G04 ================== begin FILE IDENTIFICATION RECORD ==================*
G04 Layout Name:  C:/Users/ÒÚ¼ÎºÍ/Desktop/COULOMETER/PCB/COULOMETER_BOARD_V1.0.brd*
G04 Film Name:    art01*
G04 File Format:  Gerber RS274X*
G04 File Origin:  Cadence Allegro 17.2-S007*
G04 Origin Date:  Tue Oct 08 14:54:51 2019*
G04 *
G04 Layer:  VIA CLASS/TOP*
G04 Layer:  PIN/TOP*
G04 Layer:  ETCH/TOP*
G04 *
G04 Offset:    (0.000 0.000)*
G04 Mirror:    No*
G04 Mode:      Positive*
G04 Rotation:  0*
G04 FullContactRelief:  No*
G04 UndefLineWidth:     6.000*
G04 ================== end FILE IDENTIFICATION RECORD ====================*
%FSLAX25Y25*MOIN*%
%IR0*IPPOS*OFA0.00000B0.00000*MIA0B0*SFA1.00000B1.00000*%
%ADD32R,.059059X.062988*%
%ADD26R,.105X.09*%
%AMMACRO44*
21,1,.051181,.08661,0.0,0.0,89.977*%
%ADD44MACRO44*%
%ADD25R,.095X.122012*%
%ADD33C,.118*%
%ADD27C,.11811*%
%ADD10C,.177*%
%ADD16C,.141732*%
%ADD31R,.22X.12*%
%ADD35R,.059059X.009839*%
%ADD18R,.02X.025*%
%ADD38R,.009839X.059059*%
%ADD19R,.025X.02*%
%ADD43R,.025X.05*%
%ADD17R,.03X.032012*%
%ADD40R,.05X.025*%
%ADD22R,.05X.07*%
%ADD23R,.07X.025*%
%ADD24R,.032012X.035*%
%ADD34R,.082988X.117988*%
%ADD20R,.035X.032012*%
%ADD13C,.06*%
%ADD14C,.022012*%
%ADD36R,.03902X.035*%
%ADD28R,.035X.03902*%
%ADD21R,.055X.095*%
%ADD41R,.02098X.06*%
%ADD15R,.06X.06*%
%ADD30R,.03598X.05*%
%ADD11R,.08661X.051181*%
%ADD29R,.04724X.04724*%
%ADD39R,.062988X.05*%
%ADD42R,.01378X.060429*%
%ADD12R,.042012X.037988*%
%ADD37R,.0315X.074799*%
%ADD45C,.006*%
%ADD46C,.008*%
%ADD47C,.01*%
%ADD48C,.02*%
%ADD49C,.015*%
%ADD50C,.138004*%
%ADD51C,.080004*%
G75*
%LPD*%
G75*
G36*
G01X28250Y124000D02*
G03X26750Y122500I0J-1500D01*
G01Y120500D01*
G03X27119Y119514I1500J0D01*
G02Y118986I-303J-264D01*
G03X26750Y118000I1131J-986D01*
G01Y116000D01*
G03X27119Y115014I1500J0D01*
G02Y114486I-303J-264D01*
G03X26847Y114030I1131J-986D01*
G01X26798Y113900D01*
X26480D01*
X21480Y118900D01*
X20000D01*
Y120500D01*
G03X19000Y121500I-1000J0D01*
G01X13000D01*
G03X12000Y120500I0J-1000D01*
G01Y114500D01*
G03X13000Y113500I1000J0D01*
G01X19000D01*
G03X20000Y114500I0J1000D01*
G01Y116100D01*
X20320D01*
X25320Y111100D01*
X26798D01*
X26847Y110970D01*
G03X28250Y110000I1403J530D01*
G01X33849D01*
G02X34133Y109314I0J-402D01*
G01X29800Y104980D01*
Y100180D01*
X29221Y99601D01*
X20600D01*
G03X19100Y98101I0J-1500D01*
G01X19100Y97900D01*
X15853D01*
Y98399D01*
G03X14353Y99900I-1500J0D01*
G01X10151D01*
G03X8651Y98399I0J-1500D01*
G01Y94601D01*
G03X9095Y93535I1500J0D01*
G02Y92965I-283J-285D01*
G03X8651Y91899I1056J-1065D01*
G01Y88101D01*
G03X10151Y86600I1500J0D01*
G01X14353D01*
G03X15853Y88101I0J1500D01*
G01Y88600D01*
X19100D01*
X19100Y88399D01*
G03X20600Y86899I1500J1D01*
G01X29600D01*
G03X31100Y88399I0J1500D01*
G01Y91020D01*
X35000Y94920D01*
Y103220D01*
X41168Y109388D01*
Y113721D01*
X51414Y123966D01*
G02X52100Y123682I284J-284D01*
G01Y116000D01*
X48250D01*
G03X46750Y114500I0J-1500D01*
G01Y112500D01*
G03X47119Y111514I1500J0D01*
G02Y110986I-303J-264D01*
G03X46750Y110000I1131J-986D01*
G01Y108000D01*
G03X47560Y106668I1500J0D01*
G02X47649Y106402I-92J-179D01*
G03X47500Y105750I1351J-652D01*
G01Y103250D01*
G03X47701Y102500I1500J0D01*
G03X47532Y102060I1299J-750D01*
G01X47499Y101900D01*
X45896D01*
G03X43796Y99227I-1096J-1300D01*
G02X43559Y98500I-237J-325D01*
G01X39550D01*
G03X38050Y97000I0J-1500D01*
G01Y96571D01*
X32100Y90621D01*
Y87621D01*
X29678Y85200D01*
X2400D01*
X1200Y86400D01*
Y193800D01*
X3000Y195600D01*
X22708D01*
G02X22992Y194914I0J-402D01*
G01X21300Y193221D01*
Y174921D01*
X17879Y171500D01*
X13000D01*
G03X12000Y170500I0J-1000D01*
G01Y165721D01*
X9100Y162821D01*
Y147279D01*
X12000Y144379D01*
Y139500D01*
G03X13000Y138500I1000J0D01*
G01X19000D01*
G03X20000Y139500I0J1000D01*
G01Y145500D01*
G03X19000Y146500I-1000J0D01*
G01X14121D01*
X12100Y148521D01*
Y154827D01*
G02X12822Y155071I402J0D01*
G03X19444Y155466I3178J2429D01*
G02X20074Y155545I346J-204D01*
G01X21800Y153820D01*
Y138020D01*
X26220Y133600D01*
X26998D01*
X27032Y133440D01*
G03X27382Y132750I1468J310D01*
G03X27032Y132060I1118J-1000D01*
G01X26998Y131900D01*
X23680D01*
X21680Y133900D01*
X19747D01*
G03Y131100I-3747J-1400D01*
G01X20520D01*
X22520Y129100D01*
X26998D01*
X27032Y128940D01*
G03X28500Y127750I1468J310D01*
G01X30500D01*
G03X31500Y128132I0J1500D01*
G03X32500Y127750I1000J1118D01*
G01X34500D01*
G03X35968Y128940I0J1500D01*
G01X36002Y129100D01*
X45549D01*
G02X45833Y128414I0J-402D01*
G01X36429Y119009D01*
G02X35850Y119020I-284J284D01*
G03X34750Y119500I-1100J-1020D01*
G01X32556D01*
G02X32174Y120028I0J402D01*
G03X32250Y120500I-1424J471D01*
G01Y122500D01*
G03X30750Y124000I-1500J0D01*
G01X28250D01*
G37*
G36*
G01X20000Y169379D02*
X24300Y173679D01*
Y182803D01*
G02X24732Y183204I402J0D01*
G03X24842Y183200I111J1496D01*
G01X25942D01*
Y182078D01*
X29100Y178920D01*
Y174502D01*
X28940Y174468D01*
G03X27750Y173000I310J-1468D01*
G01Y171000D01*
G03X29250Y169500I1500J0D01*
G01X32286D01*
X33186Y168600D01*
X36386D01*
X37299Y167686D01*
G02X37015Y167000I-284J-284D01*
G01X36000D01*
Y157000D01*
X39400D01*
Y154000D01*
X36000D01*
Y144000D01*
X39586D01*
X39835Y143751D01*
X39850Y143711D01*
G03X41161Y142752I1400J539D01*
G01X41238Y142748D01*
X42142Y141843D01*
G02X42000Y141500I-142J-142D01*
G01X42000Y137500D01*
X42797D01*
X42846Y137370D01*
G03X44114Y136405I1404J530D01*
G01X44187Y136399D01*
X44386Y136200D01*
X47049D01*
G02X47333Y135514I0J-402D01*
G01X45620Y133800D01*
X36680D01*
X36000Y134480D01*
Y136250D01*
G03X34500Y137750I-1500J0D01*
G01X32500D01*
G03X31500Y137368I0J-1500D01*
G03X30500Y137750I-1000J-1118D01*
G01X28500D01*
G03X27293Y137141I0J-1500D01*
G02X26685Y137095I-323J239D01*
G01X24600Y139180D01*
Y154980D01*
X20680Y158900D01*
X19747D01*
G03X12822Y159929I-3747J-1400D01*
G02X12100Y160173I-319J244D01*
G01Y161579D01*
X14021Y163500D01*
X19000D01*
G03X20000Y164500I0J1000D01*
G01Y169379D01*
G37*
G36*
G01X31300Y10100D02*
Y48900D01*
X34800Y52400D01*
X52200D01*
X55600Y49000D01*
Y38000D01*
X59000Y34600D01*
X81200D01*
X84200Y31600D01*
Y6000D01*
X82300Y4100D01*
X71000D01*
X68750Y6350D01*
X35050D01*
X31300Y10100D01*
G37*
G36*
G01X239000Y14000D02*
X150200D01*
X131600Y32600D01*
X87800D01*
X83200Y37200D01*
X61000D01*
X57600Y40600D01*
Y51200D01*
X53200Y55600D01*
X35200D01*
X33600Y57200D01*
Y77200D01*
X35200Y78800D01*
X75800D01*
X86300Y68300D01*
X109500D01*
X115800Y62000D01*
X142400D01*
X144700Y59700D01*
X239500D01*
X242600Y56600D01*
Y17600D01*
X239000Y14000D01*
G37*
G36*
G01X44800Y137200D02*
X44000Y138000D01*
Y141500D01*
X43900D01*
X41200Y144200D01*
X41000D01*
Y154000D01*
X40400D01*
Y157000D01*
X41000D01*
Y167000D01*
X38800D01*
Y167600D01*
X36800Y169600D01*
X33600D01*
X33000Y170200D01*
Y175000D01*
X33600Y175600D01*
X40200D01*
X40800Y175000D01*
Y170800D01*
X41198Y170402D01*
X41400Y170200D01*
X46200D01*
X46800Y169600D01*
Y155600D01*
X49600Y152800D01*
X58000D01*
X58200Y152600D01*
Y150800D01*
X57800Y150400D01*
X49800D01*
X49200Y149800D01*
Y138400D01*
X48000Y137200D01*
X44800D01*
G37*
G36*
G01X84514Y73086D02*
X72400Y85200D01*
X43400D01*
Y86549D01*
G02X43993Y86903I402J0D01*
G03X46461Y88767I807J1497D01*
G02X46585Y88998I196J43D01*
G03X47550Y90400I-535J1402D01*
G01Y92400D01*
G03X47145Y93425I-1500J0D01*
G02Y93975I293J275D01*
G03X47288Y94153I-1095J1025D01*
G02X47637Y94124I166J-113D01*
G03X49000Y93250I1363J626D01*
G01X51000D01*
G03X52000Y93632I0J1500D01*
G03X53000Y93250I1000J1118D01*
G01X55000D01*
G03X56301Y94002I0J1500D01*
G02X56934Y94086I349J-200D01*
G01X57420Y93600D01*
X58998D01*
X59032Y93440D01*
G03X60500Y92250I1468J310D01*
G01X67500D01*
G03X69000Y93750I0J1500D01*
G01Y96250D01*
G03X68631Y97236I-1500J0D01*
G02Y97764I303J264D01*
G03X69000Y98750I-1131J986D01*
G01Y101250D01*
G03X68631Y102236I-1500J0D01*
G02Y102764I303J264D01*
G03X69000Y103750I-1131J986D01*
G01Y106250D01*
G03X68987Y106445I-1500J0D01*
G02X69386Y106900I399J52D01*
G01X70661D01*
X72700Y104861D01*
Y92661D01*
X76661Y88700D01*
X79991D01*
X80016Y88528D01*
G03X81500Y87250I1484J222D01*
G01X88500D01*
G03X90000Y88750I0J1500D01*
G01Y91250D01*
G03X89631Y92236I-1500J0D01*
G02Y92764I303J264D01*
G03X89968Y93440I-1131J986D01*
G01X90002Y93600D01*
X92080D01*
X93080Y94600D01*
X95499D01*
X95532Y94440D01*
G03X95817Y93828I1468J310D01*
G02X95787Y93550I-159J-124D01*
G03X95316Y92842I963J-1150D01*
G01X95273Y92700D01*
X94899D01*
X94844Y92742D01*
G03Y90058I-1044J-1342D01*
G01X94899Y90100D01*
X95273D01*
X95316Y89958D01*
G03X96750Y88900I1434J442D01*
G01X100700D01*
Y87739D01*
X99461Y86500D01*
X91061D01*
X87900Y83339D01*
Y78600D01*
X86200D01*
G03X85200Y77600I0J-1000D01*
G01Y73371D01*
G02X84514Y73086I-402J0D01*
G37*
G36*
G01X78600Y120456D02*
Y123414D01*
X77414Y124600D01*
X73186D01*
X72464Y123879D01*
X72446Y123867D01*
G03X71846Y123130I804J-1266D01*
G01X71797Y123000D01*
X71000D01*
Y119000D01*
X71797D01*
X71846Y118870D01*
G03X71997Y118574I1404J530D01*
G02X71661Y117951I-336J-221D01*
G01X67400D01*
G03X66291Y117461I0J-1500D01*
G02X65741Y117418I-297J271D01*
G03X65330Y117654I-941J-1168D01*
G01X65200Y117703D01*
Y118500D01*
X61200D01*
Y117703D01*
X61070Y117654D01*
G03X60419Y117176I530J-1404D01*
G02X59912Y117070I-316J248D01*
G03X59200Y117250I-712J-1320D01*
G01X57200D01*
G03X55763Y116180I0J-1500D01*
G02X55245Y115916I-385J115D01*
G03X55060Y115968I-495J-1416D01*
G01X54900Y116002D01*
Y122941D01*
X56980Y125021D01*
X85164D01*
G02X85304Y124676I0J-201D01*
G03X85047Y124344I1046J-1076D01*
G03X83574Y121951I153J-1743D01*
G02X83201Y121400I-373J-149D01*
G01X83186D01*
X82200Y120414D01*
Y120103D01*
X81975D01*
X81952Y120108D01*
G03X81600Y120150I-352J-1458D01*
G01X79600D01*
G03X79128Y120074I0J-1500D01*
G02X78600Y120456I-126J382D01*
G37*
G36*
G01X56800Y117200D02*
X56000Y118000D01*
Y123800D01*
X57221Y125021D01*
X69179D01*
X71000Y123200D01*
Y119400D01*
X70200Y118600D01*
X61400D01*
X61300Y118500D01*
X61200D01*
Y118400D01*
X60000Y117200D01*
X59586D01*
X59562Y117206D01*
G03X59200Y117250I-362J-1456D01*
G01X57200D01*
G03X56815Y117200I0J-1500D01*
G01X56800D01*
G37*
G36*
G01X245800Y66200D02*
X239859Y72141D01*
X239844Y72181D01*
G03X235475Y76728I-7554J-2886D01*
G02X235634Y77500I158J370D01*
G01X237882D01*
X247682Y67700D01*
X265318D01*
X273700Y76082D01*
Y151139D01*
X264596Y160243D01*
X264652Y160369D01*
G03X262631Y158348I-3653J1631D01*
G01X262757Y158404D01*
X271100Y150061D01*
Y113793D01*
G02X270488Y113451I-402J0D01*
G03X269197Y113652I-888J-1451D01*
G02X268700Y114043I-95J391D01*
G01Y126139D01*
X264596Y130243D01*
X264652Y130369D01*
G03X262631Y128347I-3653J1631D01*
G01X262757Y128404D01*
X266100Y125061D01*
Y119710D01*
G02X265414Y119425I-402J0D01*
G01X264596Y120243D01*
X264652Y120369D01*
G03X262631Y118347I-3653J1631D01*
G01X262757Y118404D01*
X264700Y116461D01*
Y116370D01*
G02X264212Y115977I-402J0D01*
G03X264000Y116000I-212J-977D01*
G01X258839D01*
X248100Y126739D01*
Y140739D01*
X243637Y145202D01*
G02X243621Y145753I284J284D01*
G03X244000Y146750I-1121J997D01*
G01Y149250D01*
G03X243799Y150000I-1500J0D01*
G03X243867Y150132I-1299J750D01*
G01X243920Y150250D01*
X257403D01*
G03Y153750I3597J1750D01*
G01X243920D01*
X243867Y153868D01*
G03X242500Y154750I-1367J-618D01*
G01X240500D01*
G03X239133Y153868I0J-1500D01*
G01X239080Y153750D01*
X237675D01*
X232709Y148784D01*
G02X232022Y149068I-284J284D01*
G01Y153008D01*
G03X230522Y154508I-1500J0D01*
G01X229272D01*
Y173146D01*
X225728D01*
Y154508D01*
X224478D01*
G03X222978Y153008I0J-1500D01*
G01Y148008D01*
G03X224168Y146540I1500J0D01*
G01X224328Y146506D01*
Y146108D01*
X223820Y145600D01*
X220200D01*
Y166580D01*
X216380Y170400D01*
X202000D01*
G03X201513Y170313I0J-1400D01*
G01X201479Y170300D01*
X201227D01*
X201184Y170442D01*
G03X199750Y171500I-1434J-442D01*
G01X193250D01*
G03X191847Y170530I0J-1500D01*
G01X191798Y170400D01*
X190980D01*
X182900Y178480D01*
Y180319D01*
X184500D01*
G03X185500Y181319I0J1000D01*
G01Y187319D01*
G03X184500Y188319I-1000J0D01*
G01X178500D01*
G03X177500Y187319I0J-1000D01*
G01Y181319D01*
G03X178500Y180319I1000J0D01*
G01X180100D01*
Y177320D01*
X189820Y167600D01*
X191798D01*
X191847Y167470D01*
G03X192119Y167014I1403J530D01*
G02Y166486I-303J-264D01*
G03X191847Y166030I1131J-986D01*
G01X191798Y165900D01*
X189480D01*
X174393Y180987D01*
G02X174387Y181550I284J284D01*
G03X171011Y180349I-2887J2769D01*
G01X171080Y180340D01*
X188320Y163100D01*
X191798D01*
X191847Y162970D01*
G03X193250Y162000I1403J530D01*
G01X199750D01*
G03X201153Y162970I0J1500D01*
G01X201202Y163100D01*
X213320D01*
X215600Y160820D01*
Y147580D01*
X213620Y145600D01*
X208620D01*
X205800Y142780D01*
Y125980D01*
X205494Y125674D01*
X205436Y125662D01*
G03X205337Y122363I364J-1661D01*
G02X205512Y121692I-109J-387D01*
G01X204220Y120400D01*
X203403D01*
X203353Y120530D01*
G03X201950Y121500I-1403J-530D01*
G01X199850D01*
G02X199448Y121923I0J402D01*
G03X199450Y122000I-1498J77D01*
G01Y124100D01*
X200639D01*
X201739Y125200D01*
X201950D01*
G03X203450Y126700I0J1500D01*
G01Y128700D01*
G03X201950Y130200I-1500J0D01*
G01X199850D01*
G02X199448Y130623I0J402D01*
G03X199450Y130700I-1498J77D01*
G01Y132700D01*
G03X199249Y133450I-1500J0D01*
G03X199450Y134200I-1299J750D01*
G01Y136200D01*
G03X199421Y136495I-1500J0D01*
G02X199539Y136720I197J40D01*
G03X200354Y137570I-589J1380D01*
G01X200403Y137700D01*
X201200D01*
Y141700D01*
X200403D01*
X200354Y141830D01*
G03X198950Y142801I-1404J-530D01*
G01X195450D01*
G03X195410Y142800I-1J-1500D01*
G01X195408Y142800D01*
X188986D01*
X187800Y141614D01*
Y137800D01*
X191000D01*
Y135414D01*
X190786Y135200D01*
X182814D01*
X181000Y137014D01*
Y142214D01*
X179814Y143400D01*
X177386D01*
X177036Y143050D01*
X176981Y143037D01*
G03X176843Y142996I356J-1457D01*
G03X176350Y143079I-493J-1417D01*
G01X175290D01*
Y143510D01*
X179608Y147828D01*
X181006D01*
X181040Y147668D01*
G03X182508Y146478I1468J310D01*
G01X182872D01*
Y146260D01*
X182870Y146244D01*
G03X182850Y146000I1480J-244D01*
G01Y144000D01*
G03X184350Y142500I1500J0D01*
G01X186850D01*
G03X188350Y144000I0J1500D01*
G01Y146000D01*
G03X188203Y146648I-1500J0D01*
G03X189008Y147978I-695J1330D01*
G01Y149228D01*
X207646D01*
Y152772D01*
X189008D01*
Y154022D01*
G03X188416Y155216I-1500J0D01*
G02X188362Y155473I122J160D01*
G03X188550Y156200I-1312J727D01*
G01Y158200D01*
G03X187050Y159700I-1500J0D01*
G01X184550D01*
G03X183050Y158200I0J-1500D01*
G01Y156200D01*
G03X183066Y155982I1500J0D01*
G02X182668Y155522I-398J-58D01*
G01X182508D01*
G03X181040Y154332I0J-1500D01*
G01X181006Y154172D01*
X179592D01*
X174936Y149517D01*
G02X174250Y149801I-284J284D01*
G01Y151000D01*
G03X173148Y152446I-1500J0D01*
G01X173000Y152487D01*
Y152921D01*
X171500Y154421D01*
Y155094D01*
X172043D01*
Y159819D01*
X177949D01*
Y161232D01*
X178736D01*
G03X179078Y161271I0J1500D01*
G03X180500Y160250I1422J479D01*
G01X182500D01*
G03X184000Y161750I0J1500D01*
G01Y164250D01*
G03X182500Y165750I-1500J0D01*
G01X180871D01*
X180237Y166385D01*
Y167732D01*
G03X178736Y169232I-1500J0D01*
G01X172438D01*
G03X170937Y167732I0J-1500D01*
G01Y166906D01*
X164957D01*
Y162181D01*
X159051D01*
Y160768D01*
X158264D01*
G03X157922Y160729I0J-1500D01*
G03X156500Y161750I-1422J-479D01*
G01X154500D01*
G03X153134Y160871I0J-1500D01*
G01X153081Y160753D01*
X152750D01*
Y161000D01*
G03X151250Y162500I-1500J0D01*
G01X147500D01*
Y163579D01*
X163000Y179079D01*
Y180611D01*
G03X159880Y180661I-1500J3708D01*
G01X160000Y180608D01*
Y180321D01*
X144500Y164821D01*
Y162487D01*
X144352Y162446D01*
G03X144043Y162323I398J-1446D01*
G02X143451Y162678I-190J355D01*
G01Y164600D01*
G03X141951Y166100I-1500J0D01*
G01X138049D01*
G03X136936Y165606I0J-1500D01*
G02X136325Y165624I-298J270D01*
G03X135156Y166183I-1169J-940D01*
G01X131955D01*
G03X130695Y165498I0J-1500D01*
G02X130405Y165447I-169J109D01*
G03X130250Y165549I-905J-1196D01*
G01Y167100D01*
G03X126750I-1750J0D01*
G01Y165549D01*
G03X126000Y164250I750J-1299D01*
G01Y161750D01*
G03X127500Y160250I1500J0D01*
G01X129500D01*
G03X130215Y160431I0J1500D01*
G02X130734Y160311I192J-353D01*
G03X131425Y159780I1221J872D01*
G01X131555Y159730D01*
Y158933D01*
X135555D01*
Y159730D01*
X135685Y159780D01*
G03X136269Y160177I-530J1404D01*
G02X136880Y160160I298J-270D01*
G03X137238Y159838I1169J940D01*
G02Y159162I-217J-338D01*
G03X136549Y157900I812J-1262D01*
G01Y154400D01*
G03X137118Y153224I1500J0D01*
G02X137161Y152632I-249J-315D01*
G03X136846Y152130I1089J-1031D01*
G01X136797Y152000D01*
X136000D01*
Y148000D01*
X136797D01*
X136846Y147870D01*
G03X138250Y146899I1404J530D01*
G01X141750D01*
G03X143248Y148311I0J1500D01*
G01X143259Y148500D01*
X154330D01*
X154383Y148382D01*
G03X155750Y147500I1367J618D01*
G01X155979D01*
X156592Y146886D01*
G02X156308Y146200I-284J-284D01*
G01X125180D01*
X122800Y148580D01*
Y170020D01*
X131000Y178220D01*
Y189380D01*
X126980Y193400D01*
X111020D01*
X109920Y192300D01*
X104150D01*
G03X103125Y191895I0J-1500D01*
G03X102462Y192050I-663J-1346D01*
G01X96556D01*
G03X95056Y190549I0J-1500D01*
G01Y184251D01*
G03X96556Y182750I1500J0D01*
G01X102462D01*
G03X103125Y182905I0J1500D01*
G03X104150Y182500I1025J1095D01*
G01X106650D01*
G03X108150Y184000I0J1500D01*
G01Y186000D01*
G03X107973Y186708I-1500J0D01*
G02X108327Y187300I354J190D01*
G01X110650D01*
G03X112150Y188800I0J1500D01*
G01Y190570D01*
X112180Y190600D01*
X125820D01*
X128200Y188220D01*
Y179380D01*
X120000Y171180D01*
Y147420D01*
X122133Y145286D01*
G02X121849Y144600I-284J-284D01*
G01X112820D01*
X105620Y137400D01*
X50100D01*
G02X49958Y137743I0J201D01*
G01X50200Y137986D01*
Y143668D01*
G02X50790Y144024I402J0D01*
G03X51491Y143850I701J1326D01*
G01X53000D01*
Y142171D01*
X56572Y138600D01*
X86828D01*
X89328Y141099D01*
X91286D01*
X92186Y140200D01*
X96814D01*
X97800Y141186D01*
Y145386D01*
X99214Y146800D01*
X108414D01*
X109600Y147986D01*
Y148460D01*
X109612Y148493D01*
G03X109700Y149000I-1412J507D01*
G01Y161000D01*
G03X108377Y162490I-1500J0D01*
G01X108200Y162511D01*
Y165489D01*
X108377Y165510D01*
G03X109527Y166299I-177J1490D01*
G01X109541Y166326D01*
X110800Y167586D01*
Y179414D01*
X109414Y180800D01*
X90572D01*
Y181007D01*
X90573Y181013D01*
G03X90575Y181101I-1498J88D01*
G01Y185825D01*
G03X89916Y187067I-1500J0D01*
G02Y187733I225J333D01*
G03X90575Y188975I-841J1242D01*
G01Y193699D01*
G03X89999Y194881I-1500J0D01*
G02X90246Y195600I247J317D01*
G01X271400D01*
X274400Y192600D01*
Y69800D01*
X270800Y66200D01*
X245800D01*
G37*
G36*
G01X59622Y159364D02*
G03X59976Y160139I-1131J986D01*
G01X59986Y160205D01*
X60906Y161126D01*
X60964Y161138D01*
G03X62231Y163284I-364J1661D01*
G02X62616Y163800I385J114D01*
G01X79420D01*
X80000Y163220D01*
Y159730D01*
G02X79537Y159333I-402J0D01*
G03X79309Y159350I-228J-1483D01*
G01X72309D01*
G03X70809Y157850I0J-1500D01*
G01Y155350D01*
G03X71178Y154364I1500J0D01*
G02Y153836I-303J-264D01*
G03X70809Y152850I1131J-986D01*
G01Y150350D01*
G03X71178Y149364I1500J0D01*
G02Y148836I-303J-264D01*
G03X70809Y147850I1131J-986D01*
G01Y145350D01*
G03X71200Y144340I1500J0D01*
G01Y143186D01*
X71442Y142943D01*
G02X71300Y142600I-142J-142D01*
G01X58228D01*
X57665Y143164D01*
G02X57949Y143850I284J284D01*
G01X58491D01*
G03X59991Y145350I0J1500D01*
G01Y147850D01*
G03X59622Y148836I-1500J0D01*
G02Y149364I303J264D01*
G03X59991Y150350I-1131J986D01*
G01Y152850D01*
G03X59622Y153836I-1500J0D01*
G02Y154364I303J264D01*
G03X59991Y155350I-1131J986D01*
G01Y157850D01*
G03X59622Y158836I-1500J0D01*
G02Y159364I303J264D01*
G37*
G36*
G01X48652Y160942D02*
G02X48250Y161344I0J402D01*
G01Y166750D01*
G03X47800Y167821I-1500J0D01*
G01Y170014D01*
X46788Y171026D01*
X46830Y171237D01*
X46900Y171266D01*
Y178339D01*
X48661Y180100D01*
X49157D01*
G03X49325Y180137I0J402D01*
G02X49819Y180007I168J-365D01*
G03X52784Y181618I1381J993D01*
G03X53150Y182600I-1134J982D01*
G01Y184600D01*
G03X52745Y185625I-1500J0D01*
G02Y186175I293J275D01*
G03X53150Y187200I-1095J1025D01*
G01Y189200D01*
G03X51650Y190700I-1500J0D01*
G01X49058D01*
Y191700D01*
G03X49025Y192014I-1500J0D01*
G02X49418Y192500I393J84D01*
G01X68600D01*
Y191672D01*
G03X68246Y191130I1050J-1071D01*
G01X68197Y191000D01*
X67400D01*
Y187000D01*
X68197D01*
X68246Y186870D01*
G03X68327Y186692I1404J530D01*
G02X67973Y186100I-354J-190D01*
G01X66650D01*
G03X65664Y185731I0J-1500D01*
G02X65136I-264J303D01*
G03X64150Y186100I-986J-1131D01*
G01X61650D01*
G03X60150Y184600I0J-1500D01*
G01Y182600D01*
G03X60191Y182251I1500J0D01*
G03X61518Y179168I409J-1651D01*
G01X61567Y179200D01*
X62180D01*
X64079Y181099D01*
X64162Y181100D01*
G03X65136Y181469I-12J1500D01*
G02X65664I264J-303D01*
G03X66650Y181100I986J1131D01*
G01X69600D01*
Y179110D01*
X69425Y179087D01*
G03X68132Y177777I197J-1487D01*
G01X68111Y177600D01*
X61498D01*
Y168600D01*
X68111D01*
X68132Y168423D01*
G03X69605Y167100I1490J177D01*
G01X69687Y167099D01*
X69842Y166943D01*
G02X69700Y166600I-142J-142D01*
G01X52166D01*
G03X50146Y163865I-965J-1400D01*
G02X50195Y163606I-125J-158D01*
G03X49991Y162850I1296J-756D01*
G01Y160300D01*
X49461D01*
X48937Y160825D01*
G03X48652Y160942I-284J-284D01*
G37*
G36*
G01X80200Y103800D02*
X74200Y109800D01*
Y117800D01*
X73200Y118800D01*
Y123200D01*
X73600Y123600D01*
X77000D01*
X77600Y123000D01*
Y119400D01*
X78200Y118800D01*
X78944D01*
X78984Y118782D01*
G03X79600Y118650I616J1368D01*
G01X81600D01*
G03X82216Y118782I0J1500D01*
G01X82256Y118800D01*
X82600D01*
X83200Y119400D01*
Y120000D01*
X83600Y120400D01*
X85600D01*
X86000Y120000D01*
Y117200D01*
X86074Y117126D01*
X86087Y117069D01*
G03X86888Y116054I1463J331D01*
G01X87000Y115999D01*
Y110800D01*
X89000Y108800D01*
Y104200D01*
X88600Y103800D01*
X80200D01*
G37*
G36*
G01X92600Y141200D02*
X92000Y141800D01*
Y142200D01*
X92200D01*
Y146200D01*
X92000D01*
Y147200D01*
X91400Y147800D01*
X85200D01*
X83800Y146400D01*
Y143800D01*
X83000Y143000D01*
X72800D01*
X72200Y143600D01*
Y147800D01*
X72400Y148000D01*
X80200D01*
X84200Y152000D01*
Y159200D01*
X86000Y161000D01*
X86401D01*
X108200Y161000D01*
X108600Y160600D01*
Y148400D01*
X108000Y147800D01*
X98800D01*
X96800Y145800D01*
Y141600D01*
X96400Y141200D01*
X92600D01*
G37*
G36*
G01X71200Y167000D02*
X69600Y168600D01*
Y177400D01*
X70600Y178400D01*
Y186000D01*
X69600Y187000D01*
Y192000D01*
X70200Y192600D01*
X77000D01*
X77400Y192200D01*
Y185600D01*
X78200Y184800D01*
X81000D01*
X81200Y184600D01*
Y182600D01*
X84000Y179800D01*
X109000D01*
X109800Y179000D01*
Y168000D01*
X108800Y167000D01*
X108200D01*
X86200Y167000D01*
X71200Y167000D01*
G37*
G36*
G01X82851Y185539D02*
X82537D01*
X82478Y185635D01*
G03X81200Y186350I-1278J-785D01*
G01X79200D01*
G03X78886Y186317I0J-1500D01*
G02X78400Y186710I-84J393D01*
G01Y192614D01*
X77414Y193600D01*
X72121D01*
X70808Y194914D01*
G02X71092Y195600I284J284D01*
G01X83180D01*
G02X83427Y194881I0J-402D01*
G03X82851Y193699I924J-1182D01*
G01Y192837D01*
X82403D01*
X82360Y192858D01*
G03Y189816I-760J-1521D01*
G01X82403Y189837D01*
X82851D01*
Y188975D01*
G03X83510Y187733I1500J0D01*
G02Y187067I-225J-333D01*
G03X82851Y185825I841J-1242D01*
G01Y185539D01*
G37*
G36*
G01X113479Y67521D02*
X110000Y71000D01*
X93588D01*
G02X93190Y71459I0J402D01*
G03X93200Y71600I-990J141D01*
G01Y77600D01*
G03X92200Y78600I-1000J0D01*
G01X90500D01*
Y82261D01*
X92139Y83900D01*
X100539D01*
X103300Y86661D01*
Y88891D01*
X103471Y88916D01*
G03X104750Y90400I-222J1484D01*
G01Y92400D01*
G03X104633Y92981I-1500J0D01*
G02X104840Y93258I185J78D01*
G03X105000Y93250I160J1492D01*
G01X107000D01*
G03X108500Y94750I0J1500D01*
G01Y97034D01*
G02X108843Y97176I201J0D01*
G01X109100Y96920D01*
Y75920D01*
X114359Y70661D01*
X114307Y70537D01*
G03X114150Y67915I3693J-1537D01*
G02X113479Y67521I-387J-109D01*
G37*
G36*
G01X145000Y61800D02*
X141400Y65400D01*
X121025D01*
G02X120749Y66094I0J402D01*
G03X116340Y72640I-2749J2906D01*
G01X111900Y77080D01*
Y98080D01*
X108480Y101500D01*
X108468Y101558D01*
G03X108223Y102118I-1468J-308D01*
G02X108253Y102384I164J116D01*
G03X108750Y103500I-1003J1116D01*
G01Y105500D01*
G03X107250Y107000I-1500J0D01*
G01X103750D01*
Y107475D01*
X106810Y110534D01*
Y118600D01*
X111200D01*
Y119397D01*
X111330Y119446D01*
G03X112065Y120042I-530J1404D01*
G03X112800Y119850I735J1308D01*
G01X114800D01*
G03X116141Y120678I0J1500D01*
G01X116197Y120789D01*
X117864D01*
X118925Y121850D01*
X126251D01*
G03X126453Y121577I1299J750D01*
G02X126159Y120900I-294J-274D01*
G01X123861D01*
X120300Y117339D01*
Y108461D01*
X144061Y84700D01*
X160883D01*
G02X161217Y84074I0J-402D01*
G03X160964Y83240I1247J-834D01*
G01Y75760D01*
G03X162464Y74260I1500J0D01*
G01X165614D01*
G03X167114Y75760I0J1500D01*
G01Y82900D01*
X188979D01*
X191572Y80307D01*
X191587Y80262D01*
G03X193738Y82413I1613J538D01*
G01X193693Y82428D01*
X192108Y84014D01*
G02X192392Y84700I284J284D01*
G01X193482D01*
X201695Y76486D01*
G02X201411Y75800I-284J-284D01*
G01X199800D01*
X185800Y61800D01*
X145000D01*
G37*
G36*
G01X90000Y103750D02*
Y109214D01*
X88043Y111172D01*
G03X88354Y111670I-1093J1028D01*
G01X88403Y111800D01*
X89200D01*
Y115800D01*
X88403D01*
X88354Y115930D01*
G03X88053Y116417I-1404J-529D01*
G01X88000Y116475D01*
Y116614D01*
X87522Y117093D01*
X87536Y117192D01*
G03X87550Y117400I-1486J208D01*
G01Y119400D01*
G03X87532Y119635I-1500J0D01*
G02X87929Y120100I397J63D01*
G01X92850D01*
G03X92898Y120101I-2J1500D01*
G02X93104Y119911I6J-201D01*
G03X94602Y118499I1498J87D01*
G01X98200D01*
G03X99700Y119999I0J1500D01*
G01Y120749D01*
X100700D01*
Y119999D01*
G03X102200Y118499I1500J0D01*
G01X102826D01*
X103309Y118016D01*
Y111984D01*
X100250Y108925D01*
Y106920D01*
X100132Y106867D01*
G03X99250Y105500I618J-1367D01*
G01Y103500D01*
G03X99332Y103011I1500J0D01*
G02X99125Y102745I-190J-66D01*
G03X99000Y102750I-125J-1495D01*
G01X97000D01*
G03X95532Y101560I0J-1500D01*
G01X95499Y101400D01*
X94767D01*
X94718Y101432D01*
G03X92835Y101400I-918J-1432D01*
G01X90002D01*
X89968Y101560D01*
G03X89631Y102236I-1468J-310D01*
G02Y102764I303J264D01*
G03X90000Y103750I-1131J986D01*
G37*
G36*
G01X145718Y88700D02*
X124300Y110118D01*
Y115682D01*
X125518Y116900D01*
X129780D01*
G02X130154Y116350I0J-402D01*
G03X130050Y115800I1396J-550D01*
G01Y113800D01*
G03X131550Y112300I1500J0D01*
G01X134050D01*
G03X135020Y112656I0J1500D01*
G02X135280I130J-153D01*
G03X136250Y112300I970J1144D01*
G01X138390D01*
G02X138783Y111814I0J-402D01*
G03X138750Y111500I1467J-314D01*
G01Y109500D01*
G03X139715Y108098I1500J0D01*
G02X139839Y107867I-72J-188D01*
G03X143161I1661J-367D01*
G02X143285Y108098I196J43D01*
G03X144176Y109034I-535J1401D01*
G01X144221Y109173D01*
X145810D01*
G03X146921Y108681I1111J1008D01*
G01X150691D01*
X150794Y108432D01*
X150700Y108339D01*
Y89861D01*
X151175Y89386D01*
G02X150890Y88700I-284J-284D01*
G01X145718D01*
G37*
G36*
G01X127200Y146600D02*
X126200Y147600D01*
Y159600D01*
X126949Y160349D01*
X127065Y160314D01*
G03X127500Y160250I435J1436D01*
G01X129500D01*
G03X129935Y160314I0J1500D01*
G01X130051Y160349D01*
X131600Y158800D01*
X135600D01*
X136549Y157851D01*
Y154400D01*
G03X136594Y154035I1500J0D01*
G01X136600Y154011D01*
Y152000D01*
X136000D01*
Y148000D01*
X136114D01*
G02X136257Y147657I0J-201D01*
G01X135200Y146600D01*
X127200D01*
G37*
G36*
G01X144091Y112173D02*
G03X143856Y112514I-1341J-673D01*
G02Y112786I148J136D01*
G03X144250Y113800I-1105J1014D01*
G01Y115800D01*
G03X144004Y116624I-1500J0D01*
G02X144340Y117247I336J221D01*
G01X145421D01*
Y116087D01*
G03X145504Y115594I1500J0D01*
G03X145421Y115102I1417J-493D01*
G01Y114118D01*
G03X145975Y112953I1500J0D01*
G02Y112329I-253J-312D01*
G03X145810Y112173I946J-1164D01*
G01X144091D01*
G37*
G36*
G01X148750Y153000D02*
X150620D01*
X151433Y152186D01*
G02X151149Y151500I-284J-284D01*
G01X143259D01*
X143248Y151689D01*
G03X142839Y152632I-1498J-89D01*
G02X142882Y153224I292J276D01*
G03X143451Y154400I-931J1176D01*
G01Y157322D01*
G02X144043Y157677I402J0D01*
G03X144750Y157500I707J1323D01*
G01X146944D01*
G02X147326Y156972I0J-402D01*
G03X147250Y156500I1424J-471D01*
G01Y154500D01*
G03X148750Y153000I1500J0D01*
G37*
G36*
G01X171339Y94500D02*
X169300Y96539D01*
Y99921D01*
X170445D01*
G03X170937Y100004I0J1500D01*
G03X171429Y99921I492J1417D01*
G01X174382D01*
G03X175547Y100475I0J1500D01*
G02X176171I312J-253D01*
G03X176327Y100310I1164J946D01*
G01Y98092D01*
X176176Y98053D01*
G03X175050Y96600I374J-1453D01*
G01Y94500D01*
X171339D01*
G37*
G36*
G01X161914Y145808D02*
X159525Y148196D01*
X159590Y148326D01*
G03X159750Y149000I-1340J674D01*
G01Y151000D01*
X162220D01*
X162600Y150620D01*
Y146092D01*
G02X161914Y145808I-402J0D01*
G37*
G36*
G01X194800Y126800D02*
X194400Y127200D01*
Y128400D01*
X190800Y132000D01*
X188042D01*
G03X187079Y132350I-963J-1150D01*
G01X181173D01*
G03X180262Y132041I0J-1500D01*
G01X180207Y132000D01*
X179800D01*
X177400Y134400D01*
Y142000D01*
X177800Y142400D01*
X179400D01*
X180000Y141800D01*
Y136600D01*
X182400Y134200D01*
X191200D01*
X192000Y135000D01*
Y138400D01*
X191600Y138800D01*
X188800D01*
Y141200D01*
X189400Y141800D01*
X198400D01*
X199000Y141200D01*
Y138200D01*
X198200Y137400D01*
Y137031D01*
X198170Y136983D01*
G03X197950Y136200I1280J-783D01*
G01Y134200D01*
G03X198151Y133450I1500J0D01*
G03X197950Y132700I1299J-750D01*
G01Y130700D01*
G03X198200Y129870I1500J0D01*
G01Y127200D01*
X197800Y126800D01*
X194800D01*
G37*
G36*
G01X222409Y75800D02*
G02X222125Y76486I0J402D01*
G01X223139Y77500D01*
X228945D01*
G02X229103Y76728I0J-402D01*
G03X227484Y75800I3186J-7433D01*
G01X222409D01*
G37*
G36*
G01X250339Y74700D02*
X240139Y84900D01*
X220261D01*
X216861Y81500D01*
X215157D01*
G02X215003Y82274I0J402D01*
G03X219235Y87996I-2637J6376D01*
G02X219920Y88242I400J-38D01*
G01X222261Y85900D01*
X243539D01*
X248043Y90404D01*
X248169Y90348D01*
G03X246206Y92244I1631J3653D01*
G01X242461Y88500D01*
X237110D01*
G02X236825Y89186I0J402D01*
G01X238043Y90404D01*
X238169Y90348D01*
G03X236206Y92244I1631J3653D01*
G01X234061Y90100D01*
X224139D01*
X223700Y90539D01*
Y93539D01*
X219425Y97814D01*
G02X219710Y98500I284J284D01*
G01X227939D01*
X232760Y103321D01*
Y108121D01*
X237640Y113001D01*
X237717Y113005D01*
G03X234778Y119913I-198J3995D01*
G02X234100Y120206I-276J293D01*
G01Y121861D01*
X235681Y123442D01*
G03X233825Y125442I1828J3558D01*
G01X233878Y125317D01*
X233036Y124475D01*
G02X232350Y124760I-284J284D01*
G01Y143475D01*
X238859Y149984D01*
X239084Y149760D01*
X239053Y149647D01*
G03X239000Y149250I1447J-397D01*
G01Y146750D01*
G03X240058Y145316I1500J0D01*
G01X240200Y145273D01*
Y144961D01*
X245500Y139661D01*
Y125661D01*
X257000Y114161D01*
Y109000D01*
G03X258000Y108000I1000J0D01*
G01X264000D01*
G03X264212Y108023I0J1000D01*
G02X264700Y107630I85J-393D01*
G01Y76739D01*
X262661Y74700D01*
X250339D01*
G37*
G36*
G01X219424Y105679D02*
G03X219440Y105730I-1424J471D01*
G01X219455Y105780D01*
X221604Y107929D01*
Y114174D01*
G03X222403Y115500I-701J1326D01*
G01Y116750D01*
X224580D01*
X224633Y116632D01*
G03X226000Y115750I1367J618D01*
G01X228000D01*
G03X228353Y115792I0J1500D01*
G02X228850Y115401I95J-391D01*
G01Y113525D01*
X226450Y111125D01*
Y107125D01*
X224475Y105150D01*
X219806D01*
G02X219424Y105679I0J402D01*
G37*
G36*
G01X213693Y140522D02*
G03X212193Y139021I0J-1500D01*
G01Y132979D01*
G03X212882Y131717I1500J0D01*
G01Y131221D01*
X212860Y131178D01*
G03X215903I1521J-760D01*
G01X215882Y131221D01*
Y131478D01*
X217630D01*
G03X218243Y131609I0J1500D01*
G03X218805Y131500I562J1391D01*
G01X220903D01*
G03X222403Y133000I0J1500D01*
G01Y139000D01*
G03X221722Y140257I-1500J0D01*
G02X221658Y140878I220J337D01*
G01X221780Y141000D01*
X225580D01*
X228164Y143583D01*
G02X228850Y143299I284J-284D01*
G01Y128000D01*
X225000D01*
Y127203D01*
X224870Y127154D01*
G03X223899Y125750I530J-1404D01*
G01Y122250D01*
G03X224561Y121006I1500J0D01*
G02X224688Y120478I-225J-333D01*
G03X224633Y120368I1312J-727D01*
G01X224580Y120250D01*
X222403D01*
Y121500D01*
G03X220903Y123000I-1500J0D01*
G01X218805D01*
G03X218243Y122891I0J-1500D01*
G03X217630Y123022I-613J-1369D01*
G01X213693D01*
G03X213080Y122891I0J-1500D01*
G03X212518Y123000I-562J-1391D01*
G01X210400D01*
Y140874D01*
X210526Y141000D01*
X215341D01*
G02X215542Y140792I0J-201D01*
G03X215541Y140741I1399J-50D01*
G01Y140522D01*
X213693D01*
G37*
%LPC*%
G75*
G54D50*
X120634Y182350D03*
X212366D03*
X120634Y88650D03*
G54D51*
X237500Y137000D03*
X259800Y94000D03*
%LPD*%
G75*
G36*
G01X41800Y138200D02*
X41400Y137800D01*
X27800D01*
X26000Y139600D01*
Y167000D01*
X27000Y168000D01*
X34600D01*
X35800Y166800D01*
Y144000D01*
X37800Y142000D01*
X41200D01*
X41800Y141400D01*
Y138200D01*
G37*
G54D10*
X11811Y11811D03*
Y185039D03*
X263780Y11811D03*
Y185039D03*
G54D11*
X19685Y28543D03*
Y81693D03*
G54D20*
X40000Y139500D03*
X46000D03*
X69000Y121000D03*
X75000D03*
X85200Y113800D03*
X65400Y189000D03*
X71400D03*
X91200Y113800D03*
X88200Y144200D03*
X94200D03*
X140000Y150000D03*
X134000D03*
X203200Y139700D03*
X197200D03*
G54D12*
X5748Y90000D03*
X12252D03*
X5748Y96500D03*
X12252D03*
G54D30*
X103999Y122499D03*
X96401D03*
X100200Y113901D03*
G54D21*
X33000Y149000D03*
Y162000D03*
X44000Y149000D03*
Y162000D03*
G54D13*
X16000Y107500D03*
Y132500D03*
Y157500D03*
X99200Y74600D03*
X128000Y69000D03*
X118000D03*
X138000D03*
X151500Y184319D03*
X171500D03*
X161500D03*
X237528Y107000D03*
X249800Y94000D03*
X239800D03*
X229800D03*
X237509Y127000D03*
X237519Y117000D03*
X237500Y137000D03*
X259800Y94000D03*
X261000Y132000D03*
Y122000D03*
Y152000D03*
Y142000D03*
Y162000D03*
G54D22*
X27342Y188200D03*
X45058D03*
G54D40*
X185008Y152772D03*
Y149228D03*
X210992Y152772D03*
Y149228D03*
G54D31*
X97200Y155000D03*
Y173000D03*
G54D41*
X219854Y118500D03*
X211469D03*
Y136000D03*
X219854D03*
G54D14*
X5748Y101452D03*
X37400Y100000D03*
X26600Y126500D03*
X29500Y141500D03*
X33500D03*
X27200Y145400D03*
Y149000D03*
Y152400D03*
Y158800D03*
Y162400D03*
Y165800D03*
X39400Y169000D03*
X57600Y90000D03*
X44800Y88400D03*
Y100600D03*
X58200Y121600D03*
Y124200D03*
X44000Y111800D03*
X58200Y110800D03*
X62200Y149800D03*
X51600Y142400D03*
Y138600D03*
X62200Y158400D03*
X48200Y176800D03*
Y173800D03*
Y171200D03*
X54000Y179200D03*
X56600Y179400D03*
X43400Y169000D03*
X51200Y165200D03*
X60600Y162800D03*
X61800Y189000D03*
X54400Y191200D03*
X58900Y186500D03*
X51200Y181000D03*
X43600Y181600D03*
X60600Y180600D03*
X70200Y90000D03*
X81200Y124000D03*
X85200Y122600D03*
X68600Y149800D03*
X65400Y154100D03*
X81400Y156600D03*
X68800Y158400D03*
X82800Y187600D03*
X76000Y183400D03*
Y186200D03*
Y189000D03*
X81600Y191337D03*
X93800Y100000D03*
Y91400D03*
X92200Y118400D03*
X94000Y113800D03*
X96200Y117200D03*
X109200Y112600D03*
X90400Y138600D03*
X105000D03*
X125600Y114800D03*
X113800Y115000D03*
X128400Y148800D03*
Y152000D03*
X128500Y155500D03*
X115600Y146000D03*
Y152400D03*
X114400Y135600D03*
X115600Y160200D03*
Y166600D03*
X128500Y167100D03*
X112000Y185000D03*
X134500Y110500D03*
X148000Y90800D03*
X138600Y99400D03*
X141500Y107500D03*
X145200Y113000D03*
X144800Y115600D03*
X146000Y153200D03*
X155500Y166500D03*
X170400Y97000D03*
X172600Y98600D03*
X164000Y133200D03*
X178400Y130400D03*
X175587Y152613D03*
X161600Y147600D03*
X161413Y169587D03*
X193200Y80800D03*
X201400Y90200D03*
X193600Y107000D03*
X181400Y95600D03*
X193600Y119000D03*
X181500Y156300D03*
X194200Y144800D03*
X199000D03*
X192800Y140200D03*
X190000D03*
X193800Y157200D03*
X199000Y157400D03*
X204000Y107000D03*
X224200Y114600D03*
X224400Y110600D03*
X204200Y131600D03*
X211800Y128600D03*
X211600Y124600D03*
X217000Y124400D03*
X222000D03*
X221800Y128800D03*
X217000D03*
X214382Y130418D03*
X205800Y124000D03*
X204200Y135000D03*
X203800Y144800D03*
X222000Y156200D03*
X204400Y157200D03*
X209200D03*
X221800Y162800D03*
Y168600D03*
Y177000D03*
X233200Y155400D03*
X227000Y134400D03*
Y138200D03*
X233200Y176800D03*
Y168400D03*
Y162800D03*
X269600Y112000D03*
G54D23*
X64000Y90000D03*
Y95000D03*
Y100000D03*
Y105000D03*
X54991Y151600D03*
Y146600D03*
Y161600D03*
Y156600D03*
X85000Y105000D03*
Y100000D03*
Y95000D03*
Y90000D03*
X75809Y146600D03*
Y151600D03*
Y156600D03*
Y161600D03*
G54D32*
X99509Y187400D03*
G54D42*
X216941Y118500D03*
X214382D03*
Y136000D03*
X216941D03*
G54D15*
X16000Y117500D03*
Y142500D03*
Y167500D03*
X89200Y74600D03*
X181500Y184319D03*
X261000Y112000D03*
G54D24*
X63200Y120500D03*
Y114500D03*
X109200Y122600D03*
Y116600D03*
X133555Y162933D03*
Y156933D03*
X227000Y130000D03*
Y124000D03*
G54D33*
X120634Y88650D03*
Y182350D03*
X212366Y88650D03*
Y182350D03*
G54D34*
X154000Y68083D03*
X178999D03*
G54D43*
X225728Y150508D03*
Y176492D03*
X229272Y150508D03*
Y176492D03*
G54D16*
X43307Y40945D03*
Y69291D03*
X232278Y40950D03*
X232289Y69296D03*
G54D25*
X65400Y154100D03*
G54D17*
X22100Y90000D03*
X28100D03*
X22100Y96500D03*
X28100D03*
G54D35*
X149874Y132327D03*
Y130358D03*
Y128390D03*
Y126421D03*
Y124453D03*
Y122484D03*
Y120516D03*
Y118547D03*
Y116579D03*
Y114610D03*
Y112642D03*
Y110673D03*
X184126D03*
Y112642D03*
Y114610D03*
Y116579D03*
Y118547D03*
Y120516D03*
Y122484D03*
Y124453D03*
Y126421D03*
Y128390D03*
Y130358D03*
Y132327D03*
G54D44*
X255895Y28539D03*
X255916Y81688D03*
G54D26*
X54928Y173100D03*
X74872D03*
G54D45*
G01X85000Y90000D02*
X77200D01*
X74000Y93200D01*
Y105400D01*
X71200Y108200D01*
X54300D01*
X53500Y109000D01*
G01X50400Y183600D02*
Y188200D01*
G01X45058D02*
X50400D01*
G01X89200Y74600D02*
Y82800D01*
X91600Y85200D01*
X100000D01*
X102000Y87200D01*
Y91400D01*
G01X93800D02*
X98000D01*
G01X261000Y162000D02*
X272400Y150600D01*
Y76620D01*
X264780Y69000D01*
X248220D01*
X238420Y78800D01*
X222600D01*
X220000Y76200D01*
X203820D01*
X194020Y86000D01*
X144600D01*
X121600Y109000D01*
Y116800D01*
X124400Y119600D01*
X135600D01*
X138484Y122484D01*
X149874D01*
G01X269600Y112000D02*
Y75800D01*
X264200Y70400D01*
X248800D01*
X238800Y80400D01*
X222000D01*
X219200Y77600D01*
X204400D01*
X194600Y87400D01*
X145180D01*
X123000Y109580D01*
Y116220D01*
X124980Y118200D01*
X136983D01*
X139299Y120516D01*
X149874D01*
G01Y114610D02*
X153190D01*
X154200Y113600D01*
Y110000D01*
X152000Y107800D01*
Y90400D01*
X153600Y88800D01*
X195220D01*
X205020Y79000D01*
X218400D01*
X221400Y82000D01*
X239220D01*
X249220Y72000D01*
X263780D01*
X267400Y75620D01*
Y125600D01*
X261000Y132000D01*
G01X155400Y91600D02*
X156800Y90200D01*
X195800D01*
X205800Y80200D01*
X217400D01*
X220800Y83600D01*
X239600D01*
X249800Y73400D01*
X263200D01*
X266000Y76200D01*
Y117000D01*
X261000Y122000D01*
G01X155400Y95600D02*
Y98200D01*
X153400Y100200D01*
Y107000D01*
X155400Y109000D01*
Y115000D01*
X153821Y116579D01*
X149874D01*
G01X137500Y114800D02*
Y115900D01*
X140147Y118547D01*
X149874D01*
G01X167984Y104374D02*
X168000Y104358D01*
Y96000D01*
X170800Y93200D01*
X184800D01*
X189600Y98000D01*
X217400D01*
X222400Y93000D01*
Y90000D01*
X223600Y88800D01*
X234600D01*
X239800Y94000D01*
G01X237519Y117000D02*
X237519Y114719D01*
X231460Y108660D01*
Y103860D01*
X227400Y99800D01*
X188600D01*
X178800Y109600D01*
X175600D01*
X173890Y107890D01*
Y104374D01*
G01X192800Y95600D02*
X190000D01*
X186200Y91800D01*
X170000D01*
X166016Y95784D01*
Y104374D01*
G01X201800Y76200D02*
X200800D01*
G01X215200Y81800D02*
X206400D01*
X201400Y86800D01*
Y90200D01*
G01X196800Y95600D02*
X197600Y96400D01*
X216737D01*
X220800Y92337D01*
Y89200D01*
X222800Y87200D01*
X243000D01*
X249800Y94000D01*
G01X184126Y110673D02*
Y107474D01*
X190400Y101200D01*
X226600D01*
X230200Y104800D01*
Y109400D01*
X232800Y112000D01*
Y122400D01*
X237400Y127000D01*
X237509D01*
G01X200700Y127700D02*
Y126000D01*
X200100Y125400D01*
X197400D01*
X196700Y124700D01*
Y123000D01*
G01X202000Y169000D02*
X198500D01*
G01X185008Y152772D02*
X185172D01*
G01X201100Y164500D02*
X198500D01*
G01X222600Y76400D02*
X220800Y74600D01*
X203400D01*
X201800Y76200D01*
G01X261000Y112000D02*
X246800Y126200D01*
Y140200D01*
X241500Y145500D01*
Y148000D01*
G54D36*
X140000Y156150D03*
Y162850D03*
G54D18*
X33500Y130500D03*
Y126500D03*
X29500Y130500D03*
Y126500D03*
X33500Y135000D03*
Y139000D03*
X29500Y135000D03*
Y139000D03*
X54000Y100500D03*
Y104500D03*
Y92000D03*
Y96000D03*
X50000Y100500D03*
Y104500D03*
Y92000D03*
Y96000D03*
X58200Y114500D03*
Y118500D03*
X80600Y117400D03*
Y121400D03*
X80200Y183600D03*
Y187600D03*
X102000Y96000D03*
Y100000D03*
X98000Y96000D03*
Y100000D03*
X106000D03*
Y96000D03*
X113800Y118600D03*
Y122600D03*
X128500Y163000D03*
Y159000D03*
X155400Y91600D03*
Y95600D03*
X155500Y163000D03*
Y159000D03*
X181500D03*
Y163000D03*
X217000Y107400D03*
Y111400D03*
X227000Y118500D03*
Y114500D03*
X241500Y152000D03*
Y148000D03*
G54D27*
X76315Y10500D03*
Y24500D03*
X115685Y10500D03*
Y24500D03*
G54D46*
G01X12252Y96500D02*
X22100D01*
G01X12252Y90000D02*
X22100D01*
G01X29500Y112500D02*
X25900D01*
X20900Y117500D01*
X16000D01*
G01X29500Y130500D02*
X23100D01*
X21100Y132500D01*
X16000D01*
G01X29500Y135000D02*
X26800D01*
X23200Y138600D01*
Y154400D01*
X20100Y157500D01*
X16000D01*
G01X22100Y96500D02*
X23500D01*
G01X22100Y90000D02*
X23500D01*
G01X149874Y130358D02*
X53042D01*
X37800Y115116D01*
Y111000D01*
X31200Y104400D01*
Y99600D01*
X28100Y96500D01*
G01Y90000D02*
X33600Y95500D01*
Y103800D01*
X39768Y109968D01*
Y114301D01*
X53857Y128390D01*
X149874D01*
G01X29500Y117000D02*
Y121500D01*
G01X33500Y117000D02*
Y112500D01*
G01X149874Y132327D02*
X51727D01*
X36400Y117000D01*
X33500D01*
G01X29500Y130500D02*
X33500D01*
G01X156173Y138626D02*
X111826D01*
X107457Y134257D01*
X50857D01*
X47100Y130500D01*
X33500D01*
G01X29500Y135000D02*
X33500D01*
G01X158142Y138626D02*
Y142258D01*
X157200Y143200D01*
X113400D01*
X106200Y136000D01*
X49800D01*
X46200Y132400D01*
X36100D01*
X33500Y135000D01*
G01X30500Y172000D02*
Y179500D01*
X27342Y182658D01*
Y188200D01*
G01X50000Y100500D02*
X54000D01*
G01D02*
X58000D01*
X58500Y100000D01*
X64000D01*
G01X44800Y100600D02*
X44900Y100500D01*
X50000D01*
G01X44800Y96000D02*
X50000D01*
G01X54000D02*
X57000D01*
X58000Y95000D01*
X64000D01*
G01X50000Y96000D02*
X54000D01*
G01X50000Y104500D02*
X54000D01*
G01X64000Y105000D02*
X63934Y105066D01*
X58066D01*
X57500Y104500D01*
X54000D01*
G01X50000D02*
X50066Y104566D01*
Y106434D01*
X49500Y107000D01*
Y109000D01*
G01X53500Y113500D02*
Y123521D01*
X56400Y126421D01*
X149874D01*
G01X49500Y113500D02*
Y109000D01*
G01X81400Y156600D02*
Y163800D01*
X80000Y165200D01*
X51200D01*
G01X54991Y161600D02*
X59400D01*
X60600Y162800D01*
G01X50400Y183600D02*
Y181800D01*
X51200Y181000D01*
G01X62900Y183600D02*
Y181900D01*
X61600Y180600D01*
X60600D01*
G01X98000Y96000D02*
X92500D01*
X91500Y95000D01*
X85000D01*
G01Y100000D02*
X93800D01*
G01X75809Y156600D02*
Y151600D01*
G01Y156600D02*
X81400D01*
G01X62900Y183600D02*
X67900D01*
G01X98000Y96000D02*
X102000D01*
G01D02*
X106000D01*
G01X98000Y100000D02*
X102000D01*
G01X93800D02*
X98000D01*
G01X106000Y104500D02*
Y100000D01*
G01X118000Y69000D02*
X110500Y76500D01*
Y97500D01*
X108000Y100000D01*
X106000D01*
G01X99509Y187400D02*
X103000D01*
X105400Y185000D01*
G01D02*
Y189800D01*
G01X129000Y135600D02*
X114400D01*
G01X109400Y189800D02*
X111600Y192000D01*
X126400D01*
X129600Y188800D01*
Y178800D01*
X121400Y170600D01*
Y148000D01*
X124600Y144800D01*
X158000D01*
X160110Y142690D01*
Y138626D01*
G01X132800Y114800D02*
X137500D01*
G01X132800Y123600D02*
X135600D01*
X136400Y124400D01*
X149821D01*
X149874Y124453D01*
G01X166016Y138626D02*
X166000Y138642D01*
Y144200D01*
X164000Y146200D01*
Y151200D01*
X162800Y152400D01*
X153200D01*
X150100Y155500D01*
X150000D01*
G01X156173Y104374D02*
Y107573D01*
X159600Y111000D01*
Y129200D01*
X153200Y135600D01*
X133000D01*
G01X150000Y160000D02*
Y155500D01*
G01X184126Y130358D02*
X178442D01*
X178400Y130400D01*
G01X164047Y138626D02*
Y133247D01*
X164000Y133200D01*
G01X161000Y150000D02*
Y147000D01*
G01D02*
X164000Y144000D01*
Y138673D01*
X164047Y138626D01*
G01X185008Y149228D02*
X179028D01*
X173890Y144090D01*
Y138626D01*
G01X185008Y152772D02*
X180172D01*
X171921Y144521D01*
Y138626D01*
G01X194500Y164500D02*
X188900D01*
X171500Y181900D01*
Y184319D01*
G01X200700Y107000D02*
Y110878D01*
X200755Y110933D01*
G01X204000Y107000D02*
X200700D01*
G01X184126Y124453D02*
X184179Y124400D01*
X190200D01*
X191600Y123000D01*
X196700D01*
G01X200700Y115000D02*
Y119000D01*
G01Y115000D02*
X202800D01*
X206300Y111500D01*
X207500D01*
G01X200700Y119000D02*
X204800D01*
X209000Y123200D01*
Y141454D01*
X209946Y142400D01*
X214946D01*
X218800Y146254D01*
Y166000D01*
X215800Y169000D01*
X202000D01*
G01X196755Y110933D02*
X193667D01*
X189300Y115300D01*
Y119100D01*
X187884Y120516D01*
X184126D01*
G01X196700Y115000D02*
X192200D01*
X191000Y116200D01*
Y119800D01*
X188316Y122484D01*
X184126D01*
G01X185600Y145000D02*
Y148636D01*
X185008Y149228D01*
G01X185800Y157200D02*
Y153564D01*
X185008Y152772D01*
G01X205800Y124000D02*
X207200Y125400D01*
Y142200D01*
X209200Y144200D01*
X214200D01*
X217000Y147000D01*
Y161400D01*
X213900Y164500D01*
X201100D01*
G01X194500Y169000D02*
X190400D01*
X181500Y177900D01*
Y184319D01*
G01X214382Y118500D02*
Y108582D01*
X212800Y107000D01*
X211500D01*
G01X207500D02*
X204000D01*
G01X211469Y118500D02*
Y111531D01*
X211500Y111500D01*
G01X216941Y118500D02*
Y111459D01*
X217000Y111400D01*
G01X225728Y150508D02*
Y145528D01*
X224400Y144200D01*
X220400D01*
X216941Y140741D01*
Y136000D01*
G01X229272Y150508D02*
Y146672D01*
X225000Y142400D01*
X221200D01*
X219854Y141054D01*
Y136000D01*
G54D37*
X168960Y79500D03*
X164039D03*
G54D28*
X75850Y114500D03*
X69150D03*
G54D19*
X29500Y117000D03*
X33500D03*
Y112500D03*
X29500D03*
X33500Y121500D03*
X29500D03*
X39600Y172000D03*
X30500D03*
X34500D03*
X44800Y91400D03*
X40800D03*
Y96000D03*
X44800D03*
X49500Y109000D03*
X53500D03*
X49500Y113500D03*
X53500D03*
X43600Y172000D03*
X50400Y183600D03*
X54400D03*
Y188200D03*
X50400D03*
X58900Y183600D03*
X62900D03*
X84800Y118400D03*
X71900Y183600D03*
X67900D03*
X106000Y104500D03*
X102000D03*
X98000Y91400D03*
X102000D03*
X88800Y118400D03*
X91600Y122600D03*
X87600D03*
X109400Y185000D03*
X105400D03*
X109400Y189800D03*
X105400D03*
X128800Y114800D03*
X132800D03*
Y123600D03*
X128800D03*
X129000Y135600D03*
X133000D03*
X141500Y110500D03*
X137500D03*
X141500Y114800D03*
X137500D03*
X150000Y155500D03*
X146000D03*
X150000Y160000D03*
X146000D03*
X177800Y95600D03*
X173800D03*
X157000Y150000D03*
X161000D03*
X167500D03*
X171500D03*
X196700Y107000D03*
X200700D03*
X196800Y95600D03*
X192800D03*
X196700Y131700D03*
X200700D03*
Y123000D03*
X196700D03*
Y119000D03*
X200700D03*
Y115000D03*
X196700D03*
Y127700D03*
X200700D03*
X196755Y110933D03*
X200755D03*
X189600Y145000D03*
X185600D03*
X196700Y135200D03*
X200700D03*
X189800Y157200D03*
X185800D03*
X198500Y169000D03*
X194500D03*
X198500Y164500D03*
X194500D03*
X207500Y107000D03*
X211500D03*
X207500Y111500D03*
X211500D03*
G54D47*
G01X5748Y96500D02*
Y101452D01*
G01Y90000D02*
Y96500D01*
G01X16000Y142500D02*
X10600Y147900D01*
Y162200D01*
X15900Y167500D01*
X16000D01*
G01X71400Y192200D02*
X69600Y194000D01*
X24200D01*
X22800Y192600D01*
Y174300D01*
X16000Y167500D01*
G01X76315Y10500D02*
X70415Y4600D01*
X31400D01*
X28400Y7600D01*
Y78200D01*
X36600Y86400D01*
Y90000D01*
X38000Y91400D01*
X40800D01*
G01Y96000D02*
X39600D01*
X33600Y90000D01*
Y87000D01*
X26200Y79600D01*
Y5800D01*
X29800Y2200D01*
X107385D01*
X115685Y10500D01*
G01X32000Y48200D02*
X30800Y49400D01*
Y77200D01*
X39600Y86000D01*
X44000D01*
G01X29500Y126500D02*
X26600D01*
G01X33500D02*
X29500D01*
G01X26600D02*
Y124600D01*
X27400Y123800D01*
X32400D01*
X33500Y122700D01*
Y121500D01*
G01X29500Y139000D02*
Y141500D01*
G01X33500Y139000D02*
Y141500D01*
G01X64000Y90000D02*
X57600D01*
G01X44800Y91400D02*
Y88400D01*
G01X43600Y172000D02*
Y181600D01*
G01X65400Y189000D02*
X61800D01*
G01X54400Y183600D02*
Y188200D01*
G01Y183600D02*
X58900D01*
G01D02*
Y186500D01*
G01X54400Y188200D02*
Y191200D01*
G01X64000Y90000D02*
X70200D01*
G01X80200Y187600D02*
X82800D01*
G01X71400Y189000D02*
X76000D01*
G01X71400D02*
Y192200D01*
G01X81600Y191337D02*
X86713D01*
G01X88800Y118400D02*
X92200D01*
G01X91200Y113800D02*
X94000D01*
G01X96200Y117200D02*
X97400D01*
X100200Y114400D01*
Y113901D01*
G01X109200Y116600D02*
Y112600D01*
G01X86713Y183463D02*
Y191337D01*
G01X128800Y114800D02*
X125600D01*
G01X113800Y118600D02*
Y115000D01*
G01X109400Y185000D02*
X112000D01*
G01X141500Y110500D02*
Y107500D01*
G01X137500Y110500D02*
X134500D01*
G01X145200Y113000D02*
X145558Y112642D01*
G01D02*
X149874D01*
G01Y110673D02*
X141673D01*
X141500Y110500D01*
G01Y114800D02*
Y110500D01*
G01X146000Y155500D02*
Y153200D01*
G01X140000Y156150D02*
Y150000D01*
G01X157000D02*
X140000D01*
G01X155500Y163000D02*
Y166500D01*
G01X161413Y165232D02*
X157732D01*
X155500Y163000D01*
G01X146000Y160000D02*
Y164200D01*
X161500Y179700D01*
Y184319D01*
G01X161413Y156768D02*
X161381Y156800D01*
X156400D01*
X155500Y157700D01*
Y159000D01*
G01X193200Y80800D02*
X189600Y84400D01*
X165600D01*
X164039Y82839D01*
Y79500D01*
G01X173800Y95600D02*
X171800D01*
X170400Y97000D01*
G01X175858Y104374D02*
Y99858D01*
G01D02*
X173800Y97800D01*
Y95600D01*
G01X177800D02*
X177827Y95627D01*
Y104374D01*
G01X175587Y156768D02*
Y152613D01*
G01X182853Y133600D02*
X180200D01*
X177827Y135973D01*
Y138626D01*
G01X157000Y150000D02*
Y148600D01*
X162079Y143521D01*
Y138626D01*
G01X171500Y150000D02*
Y146900D01*
X169953Y145353D01*
Y138626D01*
G01X171500Y150000D02*
Y152300D01*
X170000Y153800D01*
Y161800D01*
X173432Y165232D01*
X175587D01*
G01X167500Y150000D02*
Y153700D01*
X164432Y156768D01*
X161413D01*
G01X167500Y150000D02*
Y146300D01*
X167984Y145816D01*
Y138626D01*
G01X161413Y165232D02*
Y169587D01*
G01X175587Y156768D02*
X181032D01*
X181500Y156300D01*
G01X161413Y169587D02*
X162326Y170500D01*
X179900D01*
X184400Y166000D01*
Y161200D01*
X182200Y159000D01*
X181500D01*
G01Y163000D02*
X179268Y165232D01*
X175587D01*
G01X196700Y131700D02*
Y135200D01*
G01Y127700D02*
Y131700D01*
G01X184126Y132327D02*
X182853Y133600D01*
G01X185800Y133000D02*
X185127Y132327D01*
X184126D01*
G01X197200Y139700D02*
X193300D01*
X192800Y140200D01*
G01X196700Y135200D02*
Y139200D01*
X197200Y139700D01*
G01X196700Y135200D02*
X194500Y133000D01*
X185800D01*
G01X181500Y159000D02*
Y156300D01*
G01X227000Y114500D02*
X224300D01*
X224200Y114600D01*
G01X214382Y136000D02*
Y130418D01*
G54D29*
X86713Y183463D03*
Y191337D03*
G54D38*
X167984Y104374D03*
X169953D03*
X171921D03*
X173890D03*
X175858D03*
X177827D03*
X156173D03*
X158142D03*
X160110D03*
X162079D03*
X164047D03*
X166016D03*
X177827Y138626D03*
X175858D03*
X173890D03*
X171921D03*
X169953D03*
X167984D03*
X166016D03*
X164047D03*
X162079D03*
X160110D03*
X158142D03*
X156173D03*
G54D48*
G01X54991Y146600D02*
X55000Y146591D01*
Y143000D01*
X57400Y140600D01*
X86000D01*
X88200Y142800D01*
Y144200D01*
G54D39*
X161413Y156768D03*
X175587D03*
Y165232D03*
X161413D03*
G54D49*
G01X58200Y118500D02*
Y121600D01*
G01Y114500D02*
X63200D01*
G01X58200D02*
Y110800D01*
G01X80600Y121400D02*
Y123400D01*
X81200Y124000D01*
G01X63200Y114500D02*
X69150D01*
G01X87600Y122600D02*
X85200D01*
G01X75850Y114500D02*
Y118550D01*
X75000Y119400D01*
Y121000D01*
G01X102000Y104500D02*
Y108200D01*
X105059Y111259D01*
Y118741D01*
X103999Y119801D01*
Y122499D01*
G01X113861Y122539D02*
X109261D01*
X109200Y122600D01*
G01D02*
X104100D01*
X103999Y122499D01*
G01D02*
X96401D01*
G01X91600Y122600D02*
X96300D01*
X96401Y122499D01*
G01X113800Y122600D02*
X113861Y122539D01*
G01D02*
X117139D01*
X118200Y123600D01*
X128800D01*
G01X128500Y159000D02*
Y155500D01*
G01Y163000D02*
Y167100D01*
G01Y163000D02*
X133488D01*
X133555Y162933D01*
G01X146000Y160000D02*
X142850D01*
X140000Y162850D01*
G01X133555Y162933D02*
X139917D01*
X140000Y162850D01*
G01X181400Y95600D02*
X177800D01*
G01X196700Y107000D02*
X193600D01*
G01X230600Y117439D02*
Y112800D01*
X228200Y110400D01*
Y106400D01*
X225200Y103400D01*
X198600D01*
X196700Y105300D01*
Y107000D01*
G01Y119000D02*
X193600D01*
G01X219854Y118500D02*
Y108654D01*
X218600Y107400D01*
X217000D01*
G01X227000Y118500D02*
X219854D01*
G01X227000Y124000D02*
Y118500D01*
G01D02*
X229539D01*
X230600Y117439D01*
G01X241500Y152000D02*
X238400D01*
X230600Y144200D01*
Y117439D01*
G01X261000Y152000D02*
X241500D01*
M02*
