G04 ================== begin FILE IDENTIFICATION RECORD ==================*
G04 Layout Name:  C:/Users/ÒÚ¼ÎºÍ/Desktop/COULOMETER/PCB/COULOMETER_BOARD_V1.0.brd*
G04 Film Name:    art02*
G04 File Format:  Gerber RS274X*
G04 File Origin:  Cadence Allegro 17.2-S007*
G04 Origin Date:  Tue Oct 08 14:54:51 2019*
G04 *
G04 Layer:  VIA CLASS/BOTTOM*
G04 Layer:  PIN/BOTTOM*
G04 Layer:  ETCH/BOTTOM*
G04 *
G04 Offset:    (0.000 0.000)*
G04 Mirror:    No*
G04 Mode:      Positive*
G04 Rotation:  0*
G04 FullContactRelief:  No*
G04 UndefLineWidth:     6.000*
G04 ================== end FILE IDENTIFICATION RECORD ====================*
%FSLAX25Y25*MOIN*%
%IR0*IPPOS*OFA0.00000B0.00000*MIA0B0*SFA1.00000B1.00000*%
%AMMACRO18*
21,1,.051181,.08661,0.0,0.0,89.977*%
%ADD18MACRO18*%
%ADD17C,.118*%
%ADD16C,.11811*%
%ADD10C,.177*%
%ADD15C,.141732*%
%ADD12C,.06*%
%ADD13C,.022012*%
%ADD14R,.06X.06*%
%ADD11R,.08661X.051181*%
%ADD19C,.006*%
%ADD20C,.008*%
%ADD21C,.01*%
%ADD22C,.015*%
%ADD24C,.138004*%
%ADD25C,.161749*%
%ADD23C,.080004*%
G75*
%LPD*%
G75*
G36*
G01X1000Y1000D02*
Y195850D01*
X274591D01*
Y1000D01*
X238985D01*
G02X238701Y1686I0J402D01*
G01X248000Y10986D01*
Y71814D01*
X242014Y77800D01*
X162786D01*
X145186Y60200D01*
X115186D01*
X103200Y48214D01*
Y6786D01*
X108299Y1686D01*
G02X108015Y1000I-284J-284D01*
G01X1000D01*
G37*
G36*
G01X247000Y71400D02*
Y11400D01*
X237600Y2000D01*
X109400D01*
X104200Y7200D01*
Y47800D01*
X115600Y59200D01*
X145600D01*
X163200Y76800D01*
X241600D01*
X247000Y71400D01*
G37*
%LPC*%
G75*
G36*
G01X35412Y71041D02*
G02Y67541I7895J-1750D01*
G01X15784D01*
X6450Y76875D01*
Y171325D01*
X10475Y175350D01*
X35525D01*
X40125Y170750D01*
X43400D01*
G02Y167250I0J-1750D01*
G01X39400D01*
G02X38162Y167762I0J1750D01*
G01X34075Y171850D01*
X20033D01*
G03X19737Y171176I0J-402D01*
G02X20000Y170500I-737J-676D01*
G01Y164500D01*
G02X19000Y163500I-1000J0D01*
G01X13000D01*
G02X12000Y164500I0J1000D01*
G01Y170500D01*
G02X12708Y171457I1000J0D01*
G01X12850Y171500D01*
Y171850D01*
X11925D01*
X9950Y169875D01*
Y78325D01*
X17234Y71041D01*
X35412D01*
G37*
G36*
G01X191700Y87421D02*
X212882Y108603D01*
Y129615D01*
X212860Y129658D01*
G02X215903I1521J760D01*
G01X215882Y129615D01*
Y107361D01*
X194700Y86179D01*
Y81603D01*
X194721Y81560D01*
G02X191679I-1521J-760D01*
G01X191700Y81603D01*
Y87421D01*
G37*
G36*
G01X95100Y98904D02*
Y92496D01*
G02X92500I-1300J-1096D01*
G01Y98904D01*
G02X95100I1300J1096D01*
G37*
G36*
G01X180475Y93850D02*
X168575Y105750D01*
X141500D01*
G02X139750Y107500I0J1750D01*
G01Y153675D01*
X128075Y165350D01*
X119175D01*
X102875Y181650D01*
X77750D01*
Y138925D01*
X86950Y129725D01*
Y116475D01*
X79525Y109050D01*
X58200D01*
G02Y112550I0J1750D01*
G01X78075D01*
X83450Y117925D01*
Y128275D01*
X74250Y137475D01*
Y189000D01*
G02X77750I1750J0D01*
G01Y185150D01*
X104325D01*
X120625Y168850D01*
X129525D01*
X143250Y155125D01*
Y109250D01*
X170025D01*
X181925Y97350D01*
X186475D01*
X191850Y102725D01*
Y138450D01*
X190000D01*
G02Y141950I0J1750D01*
G01X192800D01*
G02X194038Y141438I0J-1750D01*
G01X195350Y140125D01*
Y101275D01*
X187925Y93850D01*
X180475D01*
G37*
G36*
G01X207200Y108220D02*
X205674Y106694D01*
X205662Y106636D01*
G02X203636Y108662I-1661J364D01*
G01X203694Y108674D01*
X204400Y109380D01*
Y123034D01*
G02X207200I1400J965D01*
G01Y108220D01*
G37*
G36*
G01X265000Y109000D02*
G02X264000Y108000I-1000J0D01*
G01X258000D01*
G02X257000Y109000I0J1000D01*
G01Y115000D01*
G02X258000Y116000I1000J0D01*
G01X264000D01*
G02X265000Y115000I0J-1000D01*
G01Y113300D01*
X268504D01*
G02Y110700I1096J-1300D01*
G01X265000D01*
Y109000D01*
G37*
G36*
G01X88620Y134200D02*
X80000Y142820D01*
Y155634D01*
G02X82800I1400J965D01*
G01Y143980D01*
X89780Y137000D01*
X113435D01*
G02Y134200I965J-1400D01*
G01X88620D01*
G37*
G36*
G01X62000Y179634D02*
Y163766D01*
G02X59200I-1400J-965D01*
G01Y179634D01*
G02X62000I1400J965D01*
G37*
G36*
G01X52600Y180034D02*
Y166166D01*
G02X49800I-1400J-965D01*
G01Y180034D01*
G02X52600I1400J965D01*
G37*
G36*
G01X50021Y192300D02*
X45100Y187379D01*
Y182403D01*
X45121Y182360D01*
G02X42079I-1521J-760D01*
G01X42100Y182403D01*
Y188621D01*
X48779Y195300D01*
X79758D01*
X82093Y192965D01*
X82138Y192950D01*
G02X79987Y190799I-538J-1613D01*
G01X79972Y190844D01*
X78516Y192300D01*
X50021D01*
G37*
G36*
G01X12000Y114500D02*
Y120500D01*
G02X13000Y121500I1000J0D01*
G01X19000D01*
G02X20000Y120500I0J-1000D01*
G01Y114500D01*
G02X19000Y113500I-1000J0D01*
G01X13000D01*
G02X12000Y114500I0J1000D01*
G37*
G36*
G01Y139500D02*
Y145500D01*
G02X13000Y146500I1000J0D01*
G01X19000D01*
G02X20000Y145500I0J-1000D01*
G01Y139500D01*
G02X19000Y138500I-1000J0D01*
G01X13000D01*
G02X12000Y139500I0J1000D01*
G37*
G36*
G01X85200Y71600D02*
Y77600D01*
G02X86200Y78600I1000J0D01*
G01X92200D01*
G02X93200Y77600I0J-1000D01*
G01Y71600D01*
G02X92200Y70600I-1000J0D01*
G01X86200D01*
G02X85200Y71600I0J1000D01*
G37*
G36*
G01X177500Y181319D02*
Y187319D01*
G02X178500Y188319I1000J0D01*
G01X184500D01*
G02X185500Y187319I0J-1000D01*
G01Y181319D01*
G02X184500Y180319I-1000J0D01*
G01X178500D01*
G02X177500Y181319I0J1000D01*
G37*
G36*
G01X46300Y99797D02*
Y89203D01*
X46321Y89160D01*
G02X43279I-1521J-760D01*
G01X43300Y89203D01*
Y99797D01*
X43279Y99840D01*
G02X46321I1521J760D01*
G01X46300Y99797D01*
G37*
G54D24*
X212366Y182350D03*
Y88650D03*
X120634Y182350D03*
Y88650D03*
G54D25*
X232278Y40950D03*
G54D23*
X261000Y162000D03*
Y152000D03*
Y122000D03*
Y132000D03*
X259800Y94000D03*
X237500Y137000D03*
X237519Y117000D03*
X237509Y127000D03*
X239800Y94000D03*
X249800D03*
X161500Y184319D03*
X171500D03*
X118000Y69000D03*
X16000Y157500D03*
Y132500D03*
%LPD*%
G75*
G54D10*
X11811Y11811D03*
Y185039D03*
X263780Y11811D03*
Y185039D03*
G54D20*
G01X51200Y165200D02*
Y181000D01*
G01X60600Y180600D02*
Y162800D01*
G01X81400Y156600D02*
Y143400D01*
X89200Y135600D01*
X114400D01*
G01X205800Y124000D02*
Y108800D01*
X204000Y107000D01*
G54D11*
X19685Y28543D03*
Y81693D03*
G54D21*
G01X44800Y88400D02*
Y100600D01*
G01X81600Y191337D02*
X79137Y193800D01*
X49400D01*
X43600Y188000D01*
Y181600D01*
G01X193200Y80800D02*
Y86800D01*
X214382Y107982D01*
Y130418D01*
G54D12*
X16000Y107500D03*
Y132500D03*
Y157500D03*
X99200Y74600D03*
X128000Y69000D03*
X118000D03*
X138000D03*
X151500Y184319D03*
X171500D03*
X161500D03*
X237528Y107000D03*
X249800Y94000D03*
X239800D03*
X229800D03*
X237509Y127000D03*
X237519Y117000D03*
X237500Y137000D03*
X259800Y94000D03*
X261000Y132000D03*
Y122000D03*
Y152000D03*
Y142000D03*
Y162000D03*
G54D22*
G01X43307Y69291D02*
X16509D01*
X8200Y77600D01*
Y170600D01*
X11200Y173600D01*
X34800D01*
X39400Y169000D01*
G01D02*
X43400D01*
G01X58200Y110800D02*
X78800D01*
X85200Y117200D01*
Y122600D01*
G01D02*
Y129000D01*
X76000Y138200D01*
Y183400D01*
G01D02*
X103600D01*
X119900Y167100D01*
X128500D01*
G01X76000Y186200D02*
Y189000D01*
G01Y183400D02*
Y186200D01*
G01X128500Y167100D02*
X128800D01*
X141500Y154400D01*
Y107500D01*
G01D02*
X169300D01*
X181200Y95600D01*
X181400D01*
G01X193600Y119000D02*
Y107000D01*
G01X181400Y95600D02*
X187200D01*
X193600Y102000D01*
Y107000D01*
G01X192800Y140200D02*
X193600Y139400D01*
Y119000D01*
G01X190000Y140200D02*
X192800D01*
G54D13*
X5748Y101452D03*
X37400Y100000D03*
X26600Y126500D03*
X29500Y141500D03*
X33500D03*
X27200Y145400D03*
Y149000D03*
Y152400D03*
Y158800D03*
Y162400D03*
Y165800D03*
X39400Y169000D03*
X57600Y90000D03*
X44800Y88400D03*
Y100600D03*
X58200Y121600D03*
Y124200D03*
X44000Y111800D03*
X58200Y110800D03*
X62200Y149800D03*
X51600Y142400D03*
Y138600D03*
X62200Y158400D03*
X48200Y176800D03*
Y173800D03*
Y171200D03*
X54000Y179200D03*
X56600Y179400D03*
X43400Y169000D03*
X51200Y165200D03*
X60600Y162800D03*
X61800Y189000D03*
X54400Y191200D03*
X58900Y186500D03*
X51200Y181000D03*
X43600Y181600D03*
X60600Y180600D03*
X70200Y90000D03*
X81200Y124000D03*
X85200Y122600D03*
X68600Y149800D03*
X65400Y154100D03*
X81400Y156600D03*
X68800Y158400D03*
X82800Y187600D03*
X76000Y183400D03*
Y186200D03*
Y189000D03*
X81600Y191337D03*
X93800Y100000D03*
Y91400D03*
X92200Y118400D03*
X94000Y113800D03*
X96200Y117200D03*
X109200Y112600D03*
X90400Y138600D03*
X105000D03*
X125600Y114800D03*
X113800Y115000D03*
X128400Y148800D03*
Y152000D03*
X128500Y155500D03*
X115600Y146000D03*
Y152400D03*
X114400Y135600D03*
X115600Y160200D03*
Y166600D03*
X128500Y167100D03*
X112000Y185000D03*
X134500Y110500D03*
X148000Y90800D03*
X138600Y99400D03*
X141500Y107500D03*
X145200Y113000D03*
X144800Y115600D03*
X146000Y153200D03*
X155500Y166500D03*
X170400Y97000D03*
X172600Y98600D03*
X164000Y133200D03*
X178400Y130400D03*
X175587Y152613D03*
X161600Y147600D03*
X161413Y169587D03*
X193200Y80800D03*
X201400Y90200D03*
X193600Y107000D03*
X181400Y95600D03*
X193600Y119000D03*
X181500Y156300D03*
X194200Y144800D03*
X199000D03*
X192800Y140200D03*
X190000D03*
X193800Y157200D03*
X199000Y157400D03*
X204000Y107000D03*
X224200Y114600D03*
X224400Y110600D03*
X204200Y131600D03*
X211800Y128600D03*
X211600Y124600D03*
X217000Y124400D03*
X222000D03*
X221800Y128800D03*
X217000D03*
X214382Y130418D03*
X205800Y124000D03*
X204200Y135000D03*
X203800Y144800D03*
X222000Y156200D03*
X204400Y157200D03*
X209200D03*
X221800Y162800D03*
Y168600D03*
Y177000D03*
X233200Y155400D03*
X227000Y134400D03*
Y138200D03*
X233200Y176800D03*
Y168400D03*
Y162800D03*
X269600Y112000D03*
G54D14*
X16000Y117500D03*
Y142500D03*
Y167500D03*
X89200Y74600D03*
X181500Y184319D03*
X261000Y112000D03*
G54D15*
X43307Y40945D03*
Y69291D03*
X232278Y40950D03*
X232289Y69296D03*
G54D16*
X76315Y10500D03*
Y24500D03*
X115685Y10500D03*
Y24500D03*
G54D17*
X120634Y88650D03*
Y182350D03*
X212366Y88650D03*
Y182350D03*
G54D18*
X255895Y28539D03*
X255916Y81688D03*
G54D19*
G01X93800Y100000D02*
Y91400D01*
G01X261000Y112000D02*
X269600D01*
M02*
