G04 ================== begin FILE IDENTIFICATION RECORD ==================*
G04 Layout Name:  C:/Users/ÒÚ¼ÎºÍ/Desktop/COULOMETER/PCB/COULOMETER_BOARD_V1.0.brd*
G04 Film Name:    drill*
G04 File Format:  Gerber RS274X*
G04 File Origin:  Cadence Allegro 17.2-S007*
G04 Origin Date:  Tue Oct 08 14:54:51 2019*
G04 *
G04 Layer:  MANUFACTURING/NCLEGEND-SLOTS*
G04 Layer:  BOARD GEOMETRY/OUTLINE*
G04 Layer:  MANUFACTURING/NCLEGEND-1-2*
G04 Layer:  BOARD GEOMETRY/DIMENSION*
G04 *
G04 Offset:    (0.000 0.000)*
G04 Mirror:    No*
G04 Mode:      Positive*
G04 Rotation:  0*
G04 FullContactRelief:  No*
G04 UndefLineWidth:     6.000*
G04 ================== end FILE IDENTIFICATION RECORD ====================*
%FSLAX25Y25*MOIN*%
%IR0*IPPOS*OFA0.00000B0.00000*MIA0B0*SFA1.00000B1.00000*%
%AMMACRO12*
1,1,.006,.008284,-.02*
20,1,.006,.008284,-.02,-.008284,-.02,0.0*
1,1,.006,-.008284,-.02*
20,1,.006,-.008284,-.02,-.02,-.008284,0.0*
1,1,.006,-.02,-.008284*
20,1,.006,-.02,-.008284,-.02,.008284,0.0*
1,1,.006,-.02,.008284*
20,1,.006,-.02,.008284,-.008284,.02,0.0*
1,1,.006,-.008284,.02*
20,1,.006,-.008284,.02,.008284,.02,0.0*
1,1,.006,.008284,.02*
20,1,.006,.008284,.02,.02,.008284,0.0*
1,1,.006,.02,.008284*
20,1,.006,.02,.008284,.02,-.008284,0.0*
1,1,.006,.02,-.008284*
20,1,.006,.02,-.008284,.008284,-.02,0.0*
1,1,.006,.008284,-.02*
%
%ADD12MACRO12*%
%AMMACRO21*
1,1,.006,-.032005,-.012487*
20,1,.006,-.032005,-.012487,-.031995,.012513,0.0*
1,1,.006,-.031995,.012513*
20,1,.006,-.031995,.012513,.032005,.012487,0.0*
1,1,.006,.032005,.012487*
20,1,.006,.032005,.012487,.031995,-.012513,0.0*
1,1,.006,.031995,-.012513*
20,1,.006,.031995,-.012513,-.032005,-.012487,0.0*
1,1,.006,-.032005,-.012487*
1,1,.006,-.010417,-.00625*
20,1,.006,-.010417,-.00625,-.010417,.00625,0.0*
1,1,.006,-.010417,.00625*
20,1,.006,-.010417,.00625,-.005208,.00625,0.0*
1,1,.006,-.005208,.00625*
20,1,.006,-.005208,.00625,-.003542,.005625,0.0*
1,1,.006,-.003542,.005625*
20,1,.006,-.003542,.005625,-.0025,.004792,0.0*
1,1,.006,-.0025,.004792*
20,1,.006,-.0025,.004792,-.002083,.003125,0.0*
1,1,.006,-.002083,.003125*
20,1,.006,-.002083,.003125,-.0025,.001458,0.0*
1,1,.006,-.0025,.001458*
20,1,.006,-.0025,.001458,-.00375,.000417,0.0*
1,1,.006,-.00375,.000417*
20,1,.006,-.00375,.000417,-.005208,-.000208,0.0*
1,1,.006,-.005208,-.000208*
20,1,.006,-.005208,-.000208,-.010417,-.000208,0.0*
1,1,.006,-.010417,-.000208*
1,1,.006,-.005208,-.000208*
20,1,.006,-.005208,-.000208,-.002083,-.00625,0.0*
1,1,.006,-.002083,-.00625*
1,1,.006,.001042,-.00625*
20,1,.006,.001042,-.00625,.006251,.00625,0.0*
1,1,.006,.006251,.00625*
20,1,.006,.006251,.00625,.01146,-.00625,0.0*
1,1,.006,.01146,-.00625*
1,1,.006,.009584,-.001875*
20,1,.006,.009584,-.001875,.002917,-.001875,0.0*
1,1,.006,.002917,-.001875*
%
%ADD21MACRO21*%
%AMMACRO15*
1,1,.006,.043305,0.0*
20,1,.006,.043305,0.0,.042647,-.00752,0.0*
1,1,.006,.042647,-.00752*
20,1,.006,.042647,-.00752,.040693,-.014811,0.0*
1,1,.006,.040693,-.014811*
20,1,.006,.040693,-.014811,.037503,-.021652,0.0*
1,1,.006,.037503,-.021652*
20,1,.006,.037503,-.021652,.033174,-.027836,0.0*
1,1,.006,.033174,-.027836*
20,1,.006,.033174,-.027836,.027836,-.033174,0.0*
1,1,.006,.027836,-.033174*
20,1,.006,.027836,-.033174,.021653,-.037503,0.0*
1,1,.006,.021653,-.037503*
20,1,.006,.021653,-.037503,.014811,-.040693,0.0*
1,1,.006,.014811,-.040693*
20,1,.006,.014811,-.040693,.00752,-.042647,0.0*
1,1,.006,.00752,-.042647*
20,1,.006,.00752,-.042647,0.0,-.043305,0.0*
1,1,.006,0.0,-.043305*
20,1,.006,0.0,-.043305,-.00752,-.042647,0.0*
1,1,.006,-.00752,-.042647*
20,1,.006,-.00752,-.042647,-.014811,-.040693,0.0*
1,1,.006,-.014811,-.040693*
20,1,.006,-.014811,-.040693,-.021652,-.037503,0.0*
1,1,.006,-.021652,-.037503*
20,1,.006,-.021652,-.037503,-.027836,-.033174,0.0*
1,1,.006,-.027836,-.033174*
20,1,.006,-.027836,-.033174,-.033174,-.027836,0.0*
1,1,.006,-.033174,-.027836*
20,1,.006,-.033174,-.027836,-.037503,-.021653,0.0*
1,1,.006,-.037503,-.021653*
20,1,.006,-.037503,-.021653,-.040693,-.014811,0.0*
1,1,.006,-.040693,-.014811*
20,1,.006,-.040693,-.014811,-.042647,-.00752,0.0*
1,1,.006,-.042647,-.00752*
20,1,.006,-.042647,-.00752,-.043305,0.0,0.0*
1,1,.006,-.043305,0.0*
20,1,.006,-.043305,0.0,-.042647,.00752,0.0*
1,1,.006,-.042647,.00752*
20,1,.006,-.042647,.00752,-.040693,.014811,0.0*
1,1,.006,-.040693,.014811*
20,1,.006,-.040693,.014811,-.037503,.021652,0.0*
1,1,.006,-.037503,.021652*
20,1,.006,-.037503,.021652,-.033174,.027836,0.0*
1,1,.006,-.033174,.027836*
20,1,.006,-.033174,.027836,-.027836,.033174,0.0*
1,1,.006,-.027836,.033174*
20,1,.006,-.027836,.033174,-.021653,.037503,0.0*
1,1,.006,-.021653,.037503*
20,1,.006,-.021653,.037503,-.014811,.040693,0.0*
1,1,.006,-.014811,.040693*
20,1,.006,-.014811,.040693,-.00752,.042647,0.0*
1,1,.006,-.00752,.042647*
20,1,.006,-.00752,.042647,0.0,.043305,0.0*
1,1,.006,0.0,.043305*
20,1,.006,0.0,.043305,.00752,.042647,0.0*
1,1,.006,.00752,.042647*
20,1,.006,.00752,.042647,.014811,.040693,0.0*
1,1,.006,.014811,.040693*
20,1,.006,.014811,.040693,.021652,.037503,0.0*
1,1,.006,.021652,.037503*
20,1,.006,.021652,.037503,.027836,.033174,0.0*
1,1,.006,.027836,.033174*
20,1,.006,.027836,.033174,.033174,.027836,0.0*
1,1,.006,.033174,.027836*
20,1,.006,.033174,.027836,.037503,.021653,0.0*
1,1,.006,.037503,.021653*
20,1,.006,.037503,.021653,.040693,.014811,0.0*
1,1,.006,.040693,.014811*
20,1,.006,.040693,.014811,.042647,.00752,0.0*
1,1,.006,.042647,.00752*
20,1,.006,.042647,.00752,.043305,0.0,0.0*
1,1,.006,.043305,0.0*
1,1,.006,-.037531,-.015158*
20,1,.006,-.037531,-.015158,-.033201,-.018766,0.0*
1,1,.006,-.033201,-.018766*
20,1,.006,-.033201,-.018766,-.028149,-.02093,0.0*
1,1,.006,-.028149,-.02093*
20,1,.006,-.028149,-.02093,-.021653,-.021652,0.0*
1,1,.006,-.021653,-.021652*
20,1,.006,-.021653,-.021652,-.015156,-.020209,0.0*
1,1,.006,-.015156,-.020209*
20,1,.006,-.015156,-.020209,-.010105,-.017322,0.0*
1,1,.006,-.010105,-.017322*
20,1,.006,-.010105,-.017322,-.006496,-.01227,0.0*
1,1,.006,-.006496,-.01227*
20,1,.006,-.006496,-.01227,-.005774,-.006496,0.0*
1,1,.006,-.005774,-.006496*
20,1,.006,-.005774,-.006496,-.007217,-.000722,0.0*
1,1,.006,-.007217,-.000722*
20,1,.006,-.007217,-.000722,-.010827,.002888,0.0*
1,1,.006,-.010827,.002888*
20,1,.006,-.010827,.002888,-.015879,.005774,0.0*
1,1,.006,-.015879,.005774*
20,1,.006,-.015879,.005774,-.02093,.006496,0.0*
1,1,.006,-.02093,.006496*
20,1,.006,-.02093,.006496,-.025983,.005774,0.0*
1,1,.006,-.025983,.005774*
20,1,.006,-.025983,.005774,-.032478,.002888,0.0*
1,1,.006,-.032478,.002888*
20,1,.006,-.032478,.002888,-.030314,.021653,0.0*
1,1,.006,-.030314,.021653*
20,1,.006,-.030314,.021653,-.010827,.021653,0.0*
1,1,.006,-.010827,.021653*
1,1,.006,.009383,-.016601*
20,1,.006,.009383,-.016601,.014436,-.020209,0.0*
1,1,.006,.014436,-.020209*
20,1,.006,.014436,-.020209,.02021,-.021652,0.0*
1,1,.006,.02021,-.021652*
20,1,.006,.02021,-.021652,.025984,-.020209,0.0*
1,1,.006,.025984,-.020209*
20,1,.006,.025984,-.020209,.031036,-.015879,0.0*
1,1,.006,.031036,-.015879*
20,1,.006,.031036,-.015879,.034646,-.009382,0.0*
1,1,.006,.034646,-.009382*
20,1,.006,.034646,-.009382,.036089,-.002887,0.0*
1,1,.006,.036089,-.002887*
20,1,.006,.036089,-.002887,.036089,.005052,0.0*
1,1,.006,.036089,.005052*
20,1,.006,.036089,.005052,.034646,.011548,0.0*
1,1,.006,.034646,.011548*
20,1,.006,.034646,.011548,.031036,.017322,0.0*
1,1,.006,.031036,.017322*
20,1,.006,.031036,.017322,.026705,.02021,0.0*
1,1,.006,.026705,.02021*
20,1,.006,.026705,.02021,.021653,.021653,0.0*
1,1,.006,.021653,.021653*
20,1,.006,.021653,.021653,.015879,.02021,0.0*
1,1,.006,.015879,.02021*
20,1,.006,.015879,.02021,.011549,.017322,0.0*
1,1,.006,.011549,.017322*
20,1,.006,.011549,.017322,.008661,.012993,0.0*
1,1,.006,.008661,.012993*
20,1,.006,.008661,.012993,.007218,.007217,0.0*
1,1,.006,.007218,.007217*
20,1,.006,.007218,.007217,.008661,.002166,0.0*
1,1,.006,.008661,.002166*
20,1,.006,.008661,.002166,.012271,-.002887,0.0*
1,1,.006,.012271,-.002887*
20,1,.006,.012271,-.002887,.016602,-.005774,0.0*
1,1,.006,.016602,-.005774*
20,1,.006,.016602,-.005774,.021653,-.006496,0.0*
1,1,.006,.021653,-.006496*
20,1,.006,.021653,-.006496,.027427,-.005053,0.0*
1,1,.006,.027427,-.005053*
20,1,.006,.027427,-.005053,.031758,-.001443,0.0*
1,1,.006,.031758,-.001443*
20,1,.006,.031758,-.001443,.036089,.005052,0.0*
1,1,.006,.036089,.005052*
%
%ADD15MACRO15*%
%AMMACRO16*
1,1,.006,.0395,0.0*
20,1,.006,.0395,0.0,.0389,-.006859,0.0*
1,1,.006,.0389,-.006859*
20,1,.006,.0389,-.006859,.037118,-.01351,0.0*
1,1,.006,.037118,-.01351*
20,1,.006,.037118,-.01351,.034208,-.01975,0.0*
1,1,.006,.034208,-.01975*
20,1,.006,.034208,-.01975,.030259,-.02539,0.0*
1,1,.006,.030259,-.02539*
20,1,.006,.030259,-.02539,.02539,-.030259,0.0*
1,1,.006,.02539,-.030259*
20,1,.006,.02539,-.030259,.01975,-.034208,0.0*
1,1,.006,.01975,-.034208*
20,1,.006,.01975,-.034208,.01351,-.037118,0.0*
1,1,.006,.01351,-.037118*
20,1,.006,.01351,-.037118,.006859,-.0389,0.0*
1,1,.006,.006859,-.0389*
20,1,.006,.006859,-.0389,0.0,-.0395,0.0*
1,1,.006,0.0,-.0395*
20,1,.006,0.0,-.0395,-.006859,-.0389,0.0*
1,1,.006,-.006859,-.0389*
20,1,.006,-.006859,-.0389,-.01351,-.037118,0.0*
1,1,.006,-.01351,-.037118*
20,1,.006,-.01351,-.037118,-.01975,-.034208,0.0*
1,1,.006,-.01975,-.034208*
20,1,.006,-.01975,-.034208,-.02539,-.030259,0.0*
1,1,.006,-.02539,-.030259*
20,1,.006,-.02539,-.030259,-.030259,-.02539,0.0*
1,1,.006,-.030259,-.02539*
20,1,.006,-.030259,-.02539,-.034208,-.01975,0.0*
1,1,.006,-.034208,-.01975*
20,1,.006,-.034208,-.01975,-.037118,-.01351,0.0*
1,1,.006,-.037118,-.01351*
20,1,.006,-.037118,-.01351,-.0389,-.006859,0.0*
1,1,.006,-.0389,-.006859*
20,1,.006,-.0389,-.006859,-.0395,0.0,0.0*
1,1,.006,-.0395,0.0*
20,1,.006,-.0395,0.0,-.0389,.006859,0.0*
1,1,.006,-.0389,.006859*
20,1,.006,-.0389,.006859,-.037118,.01351,0.0*
1,1,.006,-.037118,.01351*
20,1,.006,-.037118,.01351,-.034208,.01975,0.0*
1,1,.006,-.034208,.01975*
20,1,.006,-.034208,.01975,-.030259,.02539,0.0*
1,1,.006,-.030259,.02539*
20,1,.006,-.030259,.02539,-.02539,.030259,0.0*
1,1,.006,-.02539,.030259*
20,1,.006,-.02539,.030259,-.01975,.034208,0.0*
1,1,.006,-.01975,.034208*
20,1,.006,-.01975,.034208,-.01351,.037118,0.0*
1,1,.006,-.01351,.037118*
20,1,.006,-.01351,.037118,-.006859,.0389,0.0*
1,1,.006,-.006859,.0389*
20,1,.006,-.006859,.0389,0.0,.0395,0.0*
1,1,.006,0.0,.0395*
20,1,.006,0.0,.0395,.006859,.0389,0.0*
1,1,.006,.006859,.0389*
20,1,.006,.006859,.0389,.01351,.037118,0.0*
1,1,.006,.01351,.037118*
20,1,.006,.01351,.037118,.01975,.034208,0.0*
1,1,.006,.01975,.034208*
20,1,.006,.01975,.034208,.02539,.030259,0.0*
1,1,.006,.02539,.030259*
20,1,.006,.02539,.030259,.030259,.02539,0.0*
1,1,.006,.030259,.02539*
20,1,.006,.030259,.02539,.034208,.01975,0.0*
1,1,.006,.034208,.01975*
20,1,.006,.034208,.01975,.037118,.01351,0.0*
1,1,.006,.037118,.01351*
20,1,.006,.037118,.01351,.0389,.006859,0.0*
1,1,.006,.0389,.006859*
20,1,.006,.0389,.006859,.0395,0.0,0.0*
1,1,.006,.0395,0.0*
%
%ADD16MACRO16*%
%AMMACRO11*
1,1,.006,-.032,.0125*
20,1,.006,-.032,.0125,.032,.0125,0.0*
1,1,.006,.032,.0125*
20,1,.006,.032,.0125,.032,-.0125,0.0*
1,1,.006,.032,-.0125*
20,1,.006,.032,-.0125,-.032,-.0125,0.0*
1,1,.006,-.032,-.0125*
20,1,.006,-.032,-.0125,-.032,.0125,0.0*
1,1,.006,-.032,.0125*
1,1,.006,-.010417,-.00625*
20,1,.006,-.010417,-.00625,-.010417,.00625,0.0*
1,1,.006,-.010417,.00625*
20,1,.006,-.010417,.00625,-.005208,.00625,0.0*
1,1,.006,-.005208,.00625*
20,1,.006,-.005208,.00625,-.003542,.005625,0.0*
1,1,.006,-.003542,.005625*
20,1,.006,-.003542,.005625,-.0025,.004792,0.0*
1,1,.006,-.0025,.004792*
20,1,.006,-.0025,.004792,-.002083,.003125,0.0*
1,1,.006,-.002083,.003125*
20,1,.006,-.002083,.003125,-.0025,.001458,0.0*
1,1,.006,-.0025,.001458*
20,1,.006,-.0025,.001458,-.00375,.000417,0.0*
1,1,.006,-.00375,.000417*
20,1,.006,-.00375,.000417,-.005208,-.000208,0.0*
1,1,.006,-.005208,-.000208*
20,1,.006,-.005208,-.000208,-.010417,-.000208,0.0*
1,1,.006,-.010417,-.000208*
1,1,.006,-.005208,-.000208*
20,1,.006,-.005208,-.000208,-.002083,-.00625,0.0*
1,1,.006,-.002083,-.00625*
1,1,.006,.001042,-.00625*
20,1,.006,.001042,-.00625,.006251,.00625,0.0*
1,1,.006,.006251,.00625*
20,1,.006,.006251,.00625,.01146,-.00625,0.0*
1,1,.006,.01146,-.00625*
1,1,.006,.009584,-.001875*
20,1,.006,.009584,-.001875,.002917,-.001875,0.0*
1,1,.006,.002917,-.001875*
%
%ADD11MACRO11*%
%AMMACRO20*
1,1,.006,.032,.0125*
20,1,.006,.032,.0125,.032,-.0125,0.0*
1,1,.006,.032,-.0125*
20,1,.006,.032,-.0125,-.032,-.0125,0.0*
1,1,.006,-.032,-.0125*
20,1,.006,-.032,-.0125,-.032,.0125,0.0*
1,1,.006,-.032,.0125*
20,1,.006,-.032,.0125,.032,.0125,0.0*
1,1,.006,.032,.0125*
1,1,.006,-.010417,-.00625*
20,1,.006,-.010417,-.00625,-.010417,.00625,0.0*
1,1,.006,-.010417,.00625*
20,1,.006,-.010417,.00625,-.005208,.00625,0.0*
1,1,.006,-.005208,.00625*
20,1,.006,-.005208,.00625,-.003542,.005625,0.0*
1,1,.006,-.003542,.005625*
20,1,.006,-.003542,.005625,-.0025,.004792,0.0*
1,1,.006,-.0025,.004792*
20,1,.006,-.0025,.004792,-.002083,.003125,0.0*
1,1,.006,-.002083,.003125*
20,1,.006,-.002083,.003125,-.0025,.001458,0.0*
1,1,.006,-.0025,.001458*
20,1,.006,-.0025,.001458,-.00375,.000417,0.0*
1,1,.006,-.00375,.000417*
20,1,.006,-.00375,.000417,-.005208,-.000208,0.0*
1,1,.006,-.005208,-.000208*
20,1,.006,-.005208,-.000208,-.010417,-.000208,0.0*
1,1,.006,-.010417,-.000208*
1,1,.006,-.005208,-.000208*
20,1,.006,-.005208,-.000208,-.002083,-.00625,0.0*
1,1,.006,-.002083,-.00625*
1,1,.006,.001042,-.00625*
20,1,.006,.001042,-.00625,.006251,.00625,0.0*
1,1,.006,.006251,.00625*
20,1,.006,.006251,.00625,.01146,-.00625,0.0*
1,1,.006,.01146,-.00625*
1,1,.006,.009584,-.001875*
20,1,.006,.009584,-.001875,.002917,-.001875,0.0*
1,1,.006,.002917,-.001875*
%
%ADD20MACRO20*%
%AMMACRO17*
1,1,.006,.025,0.0*
20,1,.006,.025,0.0,.02462,-.004341,0.0*
1,1,.006,.02462,-.004341*
20,1,.006,.02462,-.004341,.023492,-.008551,0.0*
1,1,.006,.023492,-.008551*
20,1,.006,.023492,-.008551,.021651,-.0125,0.0*
1,1,.006,.021651,-.0125*
20,1,.006,.021651,-.0125,.019151,-.01607,0.0*
1,1,.006,.019151,-.01607*
20,1,.006,.019151,-.01607,.01607,-.019151,0.0*
1,1,.006,.01607,-.019151*
20,1,.006,.01607,-.019151,.0125,-.021651,0.0*
1,1,.006,.0125,-.021651*
20,1,.006,.0125,-.021651,.008551,-.023492,0.0*
1,1,.006,.008551,-.023492*
20,1,.006,.008551,-.023492,.004341,-.02462,0.0*
1,1,.006,.004341,-.02462*
20,1,.006,.004341,-.02462,0.0,-.025,0.0*
1,1,.006,0.0,-.025*
20,1,.006,0.0,-.025,-.004341,-.02462,0.0*
1,1,.006,-.004341,-.02462*
20,1,.006,-.004341,-.02462,-.008551,-.023492,0.0*
1,1,.006,-.008551,-.023492*
20,1,.006,-.008551,-.023492,-.0125,-.021651,0.0*
1,1,.006,-.0125,-.021651*
20,1,.006,-.0125,-.021651,-.01607,-.019151,0.0*
1,1,.006,-.01607,-.019151*
20,1,.006,-.01607,-.019151,-.019151,-.01607,0.0*
1,1,.006,-.019151,-.01607*
20,1,.006,-.019151,-.01607,-.021651,-.0125,0.0*
1,1,.006,-.021651,-.0125*
20,1,.006,-.021651,-.0125,-.023492,-.008551,0.0*
1,1,.006,-.023492,-.008551*
20,1,.006,-.023492,-.008551,-.02462,-.004341,0.0*
1,1,.006,-.02462,-.004341*
20,1,.006,-.02462,-.004341,-.025,0.0,0.0*
1,1,.006,-.025,0.0*
20,1,.006,-.025,0.0,-.02462,.004341,0.0*
1,1,.006,-.02462,.004341*
20,1,.006,-.02462,.004341,-.023492,.008551,0.0*
1,1,.006,-.023492,.008551*
20,1,.006,-.023492,.008551,-.021651,.0125,0.0*
1,1,.006,-.021651,.0125*
20,1,.006,-.021651,.0125,-.019151,.01607,0.0*
1,1,.006,-.019151,.01607*
20,1,.006,-.019151,.01607,-.01607,.019151,0.0*
1,1,.006,-.01607,.019151*
20,1,.006,-.01607,.019151,-.0125,.021651,0.0*
1,1,.006,-.0125,.021651*
20,1,.006,-.0125,.021651,-.008551,.023492,0.0*
1,1,.006,-.008551,.023492*
20,1,.006,-.008551,.023492,-.004341,.02462,0.0*
1,1,.006,-.004341,.02462*
20,1,.006,-.004341,.02462,0.0,.025,0.0*
1,1,.006,0.0,.025*
20,1,.006,0.0,.025,.004341,.02462,0.0*
1,1,.006,.004341,.02462*
20,1,.006,.004341,.02462,.008551,.023492,0.0*
1,1,.006,.008551,.023492*
20,1,.006,.008551,.023492,.0125,.021651,0.0*
1,1,.006,.0125,.021651*
20,1,.006,.0125,.021651,.01607,.019151,0.0*
1,1,.006,.01607,.019151*
20,1,.006,.01607,.019151,.019151,.01607,0.0*
1,1,.006,.019151,.01607*
20,1,.006,.019151,.01607,.021651,.0125,0.0*
1,1,.006,.021651,.0125*
20,1,.006,.021651,.0125,.023492,.008551,0.0*
1,1,.006,.023492,.008551*
20,1,.006,.023492,.008551,.02462,.004341,0.0*
1,1,.006,.02462,.004341*
20,1,.006,.02462,.004341,.025,0.0,0.0*
1,1,.006,.025,0.0*
1,1,.006,-.008333,-.0075*
20,1,.006,-.008333,-.0075,-.00625,-.010001,0.0*
1,1,.006,-.00625,-.010001*
20,1,.006,-.00625,-.010001,-.00375,-.011667,0.0*
1,1,.006,-.00375,-.011667*
20,1,.006,-.00375,-.011667,-.000834,-.0125,0.0*
1,1,.006,-.000834,-.0125*
20,1,.006,-.000834,-.0125,.0025,-.011667,0.0*
1,1,.006,.0025,-.011667*
20,1,.006,.0025,-.011667,.005,-.010001,0.0*
1,1,.006,.005,-.010001*
20,1,.006,.005,-.010001,.0075,-.0075,0.0*
1,1,.006,.0075,-.0075*
20,1,.006,.0075,-.0075,.008333,-.004167,0.0*
1,1,.006,.008333,-.004167*
20,1,.006,.008333,-.004167,.008333,.0125,0.0*
1,1,.006,.008333,.0125*
%
%ADD17MACRO17*%
%AMMACRO19*
1,1,.006,.025,0.0*
20,1,.006,.025,0.0,.0125,.021651,0.0*
1,1,.006,.0125,.021651*
20,1,.006,.0125,.021651,-.0125,.021651,0.0*
1,1,.006,-.0125,.021651*
20,1,.006,-.0125,.021651,-.025,0.0,0.0*
1,1,.006,-.025,0.0*
20,1,.006,-.025,0.0,-.0125,-.021651,0.0*
1,1,.006,-.0125,-.021651*
20,1,.006,-.0125,-.021651,.0125,-.021651,0.0*
1,1,.006,.0125,-.021651*
20,1,.006,.0125,-.021651,.025,0.0,0.0*
1,1,.006,.025,0.0*
%
%ADD19MACRO19*%
%AMMACRO14*
1,1,.006,-.042651,-.051179*
20,1,.006,-.042651,-.051179,-.000002,.051179,0.0*
1,1,.006,-.000002,.051179*
20,1,.006,-.000002,.051179,.042651,-.051179,0.0*
1,1,.006,.042651,-.051179*
1,1,.006,.027294,-.015355*
20,1,.006,.027294,-.015355,-.027297,-.015355,0.0*
1,1,.006,-.027297,-.015355*
%
%ADD14MACRO14*%
%AMMACRO18*
1,1,.006,.05,0.0*
20,1,.006,.05,0.0,.04924,-.008682,0.0*
1,1,.006,.04924,-.008682*
20,1,.006,.04924,-.008682,.046985,-.017101,0.0*
1,1,.006,.046985,-.017101*
20,1,.006,.046985,-.017101,.043301,-.025,0.0*
1,1,.006,.043301,-.025*
20,1,.006,.043301,-.025,.038302,-.032139,0.0*
1,1,.006,.038302,-.032139*
20,1,.006,.038302,-.032139,.032139,-.038302,0.0*
1,1,.006,.032139,-.038302*
20,1,.006,.032139,-.038302,.025,-.043301,0.0*
1,1,.006,.025,-.043301*
20,1,.006,.025,-.043301,.017101,-.046985,0.0*
1,1,.006,.017101,-.046985*
20,1,.006,.017101,-.046985,.008682,-.04924,0.0*
1,1,.006,.008682,-.04924*
20,1,.006,.008682,-.04924,0.0,-.05,0.0*
1,1,.006,0.0,-.05*
20,1,.006,0.0,-.05,-.008682,-.04924,0.0*
1,1,.006,-.008682,-.04924*
20,1,.006,-.008682,-.04924,-.017101,-.046985,0.0*
1,1,.006,-.017101,-.046985*
20,1,.006,-.017101,-.046985,-.025,-.043301,0.0*
1,1,.006,-.025,-.043301*
20,1,.006,-.025,-.043301,-.032139,-.038302,0.0*
1,1,.006,-.032139,-.038302*
20,1,.006,-.032139,-.038302,-.038302,-.032139,0.0*
1,1,.006,-.038302,-.032139*
20,1,.006,-.038302,-.032139,-.043301,-.025,0.0*
1,1,.006,-.043301,-.025*
20,1,.006,-.043301,-.025,-.046985,-.017101,0.0*
1,1,.006,-.046985,-.017101*
20,1,.006,-.046985,-.017101,-.04924,-.008682,0.0*
1,1,.006,-.04924,-.008682*
20,1,.006,-.04924,-.008682,-.05,0.0,0.0*
1,1,.006,-.05,0.0*
20,1,.006,-.05,0.0,-.04924,.008682,0.0*
1,1,.006,-.04924,.008682*
20,1,.006,-.04924,.008682,-.046985,.017101,0.0*
1,1,.006,-.046985,.017101*
20,1,.006,-.046985,.017101,-.043301,.025,0.0*
1,1,.006,-.043301,.025*
20,1,.006,-.043301,.025,-.038302,.032139,0.0*
1,1,.006,-.038302,.032139*
20,1,.006,-.038302,.032139,-.032139,.038302,0.0*
1,1,.006,-.032139,.038302*
20,1,.006,-.032139,.038302,-.025,.043301,0.0*
1,1,.006,-.025,.043301*
20,1,.006,-.025,.043301,-.017101,.046985,0.0*
1,1,.006,-.017101,.046985*
20,1,.006,-.017101,.046985,-.008682,.04924,0.0*
1,1,.006,-.008682,.04924*
20,1,.006,-.008682,.04924,0.0,.05,0.0*
1,1,.006,0.0,.05*
20,1,.006,0.0,.05,.008682,.04924,0.0*
1,1,.006,.008682,.04924*
20,1,.006,.008682,.04924,.017101,.046985,0.0*
1,1,.006,.017101,.046985*
20,1,.006,.017101,.046985,.025,.043301,0.0*
1,1,.006,.025,.043301*
20,1,.006,.025,.043301,.032139,.038302,0.0*
1,1,.006,.032139,.038302*
20,1,.006,.032139,.038302,.038302,.032139,0.0*
1,1,.006,.038302,.032139*
20,1,.006,.038302,.032139,.043301,.025,0.0*
1,1,.006,.043301,.025*
20,1,.006,.043301,.025,.046985,.017101,0.0*
1,1,.006,.046985,.017101*
20,1,.006,.046985,.017101,.04924,.008682,0.0*
1,1,.006,.04924,.008682*
20,1,.006,.04924,.008682,.05,0.0,0.0*
1,1,.006,.05,0.0*
1,1,.006,-.015,-.025*
20,1,.006,-.015,-.025,-.015,.025,0.0*
1,1,.006,-.015,.025*
20,1,.006,-.015,.025,-.045834,-.010833,0.0*
1,1,.006,-.045834,-.010833*
20,1,.006,-.045834,-.010833,-.004166,-.010833,0.0*
1,1,.006,-.004166,-.010833*
1,1,.006,.025,.025*
20,1,.006,.025,.025,.018333,.023334,0.0*
1,1,.006,.018333,.023334*
20,1,.006,.018333,.023334,.013335,.019166,0.0*
1,1,.006,.013335,.019166*
20,1,.006,.013335,.019166,.01,.014167,0.0*
1,1,.006,.01,.014167*
20,1,.006,.01,.014167,.007501,.007499,0.0*
1,1,.006,.007501,.007499*
20,1,.006,.007501,.007499,.006668,-.000001,0.0*
1,1,.006,.006668,-.000001*
20,1,.006,.006668,-.000001,.007501,-.007501,0.0*
1,1,.006,.007501,-.007501*
20,1,.006,.007501,-.007501,.01,-.014167,0.0*
1,1,.006,.01,-.014167*
20,1,.006,.01,-.014167,.013335,-.019168,0.0*
1,1,.006,.013335,-.019168*
20,1,.006,.013335,-.019168,.018333,-.023334,0.0*
1,1,.006,.018333,-.023334*
20,1,.006,.018333,-.023334,.025,-.025,0.0*
1,1,.006,.025,-.025*
20,1,.006,.025,-.025,.031667,-.023334,0.0*
1,1,.006,.031667,-.023334*
20,1,.006,.031667,-.023334,.036667,-.019168,0.0*
1,1,.006,.036667,-.019168*
20,1,.006,.036667,-.019168,.040002,-.014167,0.0*
1,1,.006,.040002,-.014167*
20,1,.006,.040002,-.014167,.042501,-.007501,0.0*
1,1,.006,.042501,-.007501*
20,1,.006,.042501,-.007501,.043334,-.000001,0.0*
1,1,.006,.043334,-.000001*
20,1,.006,.043334,-.000001,.042501,.007499,0.0*
1,1,.006,.042501,.007499*
20,1,.006,.042501,.007499,.040002,.014167,0.0*
1,1,.006,.040002,.014167*
20,1,.006,.040002,.014167,.036667,.019166,0.0*
1,1,.006,.036667,.019166*
20,1,.006,.036667,.019166,.031667,.023334,0.0*
1,1,.006,.031667,.023334*
20,1,.006,.031667,.023334,.025,.025,0.0*
1,1,.006,.025,.025*
%
%ADD18MACRO18*%
%AMMACRO10*
1,1,.006,.025,0.0*
20,1,.006,.025,0.0,.02462,-.004341,0.0*
1,1,.006,.02462,-.004341*
20,1,.006,.02462,-.004341,.023492,-.008551,0.0*
1,1,.006,.023492,-.008551*
20,1,.006,.023492,-.008551,.021651,-.0125,0.0*
1,1,.006,.021651,-.0125*
20,1,.006,.021651,-.0125,.019151,-.01607,0.0*
1,1,.006,.019151,-.01607*
20,1,.006,.019151,-.01607,.01607,-.019151,0.0*
1,1,.006,.01607,-.019151*
20,1,.006,.01607,-.019151,.0125,-.021651,0.0*
1,1,.006,.0125,-.021651*
20,1,.006,.0125,-.021651,.008551,-.023492,0.0*
1,1,.006,.008551,-.023492*
20,1,.006,.008551,-.023492,.004341,-.02462,0.0*
1,1,.006,.004341,-.02462*
20,1,.006,.004341,-.02462,0.0,-.025,0.0*
1,1,.006,0.0,-.025*
20,1,.006,0.0,-.025,-.004341,-.02462,0.0*
1,1,.006,-.004341,-.02462*
20,1,.006,-.004341,-.02462,-.008551,-.023492,0.0*
1,1,.006,-.008551,-.023492*
20,1,.006,-.008551,-.023492,-.0125,-.021651,0.0*
1,1,.006,-.0125,-.021651*
20,1,.006,-.0125,-.021651,-.01607,-.019151,0.0*
1,1,.006,-.01607,-.019151*
20,1,.006,-.01607,-.019151,-.019151,-.01607,0.0*
1,1,.006,-.019151,-.01607*
20,1,.006,-.019151,-.01607,-.021651,-.0125,0.0*
1,1,.006,-.021651,-.0125*
20,1,.006,-.021651,-.0125,-.023492,-.008551,0.0*
1,1,.006,-.023492,-.008551*
20,1,.006,-.023492,-.008551,-.02462,-.004341,0.0*
1,1,.006,-.02462,-.004341*
20,1,.006,-.02462,-.004341,-.025,0.0,0.0*
1,1,.006,-.025,0.0*
20,1,.006,-.025,0.0,-.02462,.004341,0.0*
1,1,.006,-.02462,.004341*
20,1,.006,-.02462,.004341,-.023492,.008551,0.0*
1,1,.006,-.023492,.008551*
20,1,.006,-.023492,.008551,-.021651,.0125,0.0*
1,1,.006,-.021651,.0125*
20,1,.006,-.021651,.0125,-.019151,.01607,0.0*
1,1,.006,-.019151,.01607*
20,1,.006,-.019151,.01607,-.01607,.019151,0.0*
1,1,.006,-.01607,.019151*
20,1,.006,-.01607,.019151,-.0125,.021651,0.0*
1,1,.006,-.0125,.021651*
20,1,.006,-.0125,.021651,-.008551,.023492,0.0*
1,1,.006,-.008551,.023492*
20,1,.006,-.008551,.023492,-.004341,.02462,0.0*
1,1,.006,-.004341,.02462*
20,1,.006,-.004341,.02462,0.0,.025,0.0*
1,1,.006,0.0,.025*
20,1,.006,0.0,.025,.004341,.02462,0.0*
1,1,.006,.004341,.02462*
20,1,.006,.004341,.02462,.008551,.023492,0.0*
1,1,.006,.008551,.023492*
20,1,.006,.008551,.023492,.0125,.021651,0.0*
1,1,.006,.0125,.021651*
20,1,.006,.0125,.021651,.01607,.019151,0.0*
1,1,.006,.01607,.019151*
20,1,.006,.01607,.019151,.019151,.01607,0.0*
1,1,.006,.019151,.01607*
20,1,.006,.019151,.01607,.021651,.0125,0.0*
1,1,.006,.021651,.0125*
20,1,.006,.021651,.0125,.023492,.008551,0.0*
1,1,.006,.023492,.008551*
20,1,.006,.023492,.008551,.02462,.004341,0.0*
1,1,.006,.02462,.004341*
20,1,.006,.02462,.004341,.025,0.0,0.0*
1,1,.006,.025,0.0*
1,1,.006,-.0125,.0125*
20,1,.006,-.0125,.0125,-.006667,-.0125,0.0*
1,1,.006,-.006667,-.0125*
20,1,.006,-.006667,-.0125,0.0,.0125,0.0*
1,1,.006,0.0,.0125*
20,1,.006,0.0,.0125,.006666,-.0125,0.0*
1,1,.006,.006666,-.0125*
20,1,.006,.006666,-.0125,.0125,.0125,0.0*
1,1,.006,.0125,.0125*
%
%ADD10MACRO10*%
%AMMACRO13*
1,1,.006,.005,.005*
20,1,.006,.005,.005,.005,-.005,0.0*
1,1,.006,.005,-.005*
20,1,.006,.005,-.005,-.005,-.005,0.0*
1,1,.006,-.005,-.005*
20,1,.006,-.005,-.005,-.005,.005,0.0*
1,1,.006,-.005,.005*
20,1,.006,-.005,.005,.005,.005,0.0*
1,1,.006,.005,.005*
%
%ADD13MACRO13*%
%ADD22C,.006*%
G75*
%LPD*%
G75*
G54D10*
X11811Y11811D03*
Y185039D03*
X263780Y11811D03*
Y185039D03*
X371738Y18900D03*
G54D20*
Y-56100D03*
G54D11*
X19685Y28543D03*
Y81693D03*
X255895Y28539D03*
X255916Y81688D03*
G54D21*
X371738Y-31100D03*
G54D12*
X16000Y107500D03*
Y117500D03*
Y132500D03*
Y157500D03*
Y142500D03*
Y167500D03*
X99200Y74600D03*
X89200D03*
X371738Y93900D03*
G54D22*
G01X556Y417D02*
Y196850D01*
X275591D01*
Y417D01*
X556D01*
G01X326800Y-68600D02*
Y281400D01*
X1151180D01*
Y-68600D01*
X326800D01*
G01Y-43600D02*
X1151180D01*
G01X326800Y-18600D02*
X1151180D01*
G01X326800Y6400D02*
X1151180D01*
G01X326800Y31400D02*
X1151180D01*
G01X326800Y56400D02*
X1151180D01*
G01X326800Y81400D02*
X1151180D01*
G01X326800Y106400D02*
X1151180D01*
G01X326800Y131400D02*
X1151180D01*
G01X326800Y156400D02*
X1151180D01*
G01X326800Y181400D02*
X1151180D01*
G01X337801Y212650D02*
Y225150D01*
X343691D01*
G01X341521Y219109D02*
X337801D01*
G01X351283Y225150D02*
X355002D01*
G01X353142D02*
Y212650D01*
G01X351283D02*
X355002D01*
G01X366469Y218900D02*
X369569D01*
Y215150D01*
X368639Y213900D01*
X367554Y213067D01*
X366004Y212650D01*
X364455Y213067D01*
X363370Y213900D01*
X362440Y215150D01*
X361820Y216608D01*
X361510Y218275D01*
Y219733D01*
X361820Y220983D01*
X362440Y222442D01*
X363370Y223692D01*
X364299Y224525D01*
X365539Y225150D01*
X366624D01*
X367864Y224733D01*
X368794Y223900D01*
G01X374527Y225150D02*
Y216192D01*
X375146Y214316D01*
X376386Y213067D01*
X377936Y212650D01*
X379486Y213067D01*
X380726Y214316D01*
X381346Y216192D01*
Y225150D01*
G01X387233Y212650D02*
Y225150D01*
X391108D01*
X392348Y224525D01*
X393123Y223692D01*
X393433Y222025D01*
X393123Y220358D01*
X392193Y219317D01*
X391108Y218692D01*
X387233D01*
G01X391108D02*
X393433Y212650D01*
G01X405829D02*
X399630D01*
Y225150D01*
X405829D01*
G01X403350Y219109D02*
X399630D01*
G01X326800Y206400D02*
X1151180D01*
G01X326800Y231400D02*
X1151180D01*
G01X326800Y256400D02*
X1151180D01*
G01X416676Y231400D02*
Y-68600D01*
G01X440074Y212650D02*
Y225150D01*
X445963D01*
G01X443793Y219109D02*
X440074D01*
G01X453555Y225150D02*
X457274D01*
G01X455415D02*
Y212650D01*
G01X453555D02*
X457274D01*
G01X464247D02*
Y225150D01*
X471376Y212650D01*
Y225150D01*
G01X478349D02*
X482068D01*
G01X480208D02*
Y212650D01*
G01X478349D02*
X482068D01*
G01X489351Y214316D02*
X490591Y213275D01*
X491986Y212650D01*
X493225D01*
X494465Y213275D01*
X495395Y214316D01*
X495860Y215775D01*
X495550Y217233D01*
X494775Y218483D01*
X493380Y219317D01*
X491521Y219733D01*
X490436Y220567D01*
X489971Y222025D01*
X490281Y223483D01*
X491056Y224525D01*
X492140Y225150D01*
X493225D01*
X494310Y224733D01*
X495240Y223692D01*
G01X501748Y212650D02*
Y225150D01*
G01X508257D02*
Y212650D01*
G01Y218900D02*
X501748D01*
G01X520499Y212650D02*
X514299D01*
Y225150D01*
X520499D01*
G01X518019Y219109D02*
X514299D01*
G01X526386Y212650D02*
Y225150D01*
X529486D01*
X530726Y224525D01*
X531656Y223692D01*
X532431Y222442D01*
X533050Y220983D01*
X533205Y218900D01*
X533050Y216816D01*
X532431Y215358D01*
X531656Y214108D01*
X530726Y213275D01*
X529486Y212650D01*
X526386D01*
G01X537543Y208484D02*
X546842D01*
G01X551335Y214316D02*
X552575Y213275D01*
X553970Y212650D01*
X555209D01*
X556449Y213275D01*
X557379Y214316D01*
X557844Y215775D01*
X557534Y217233D01*
X556759Y218483D01*
X555364Y219317D01*
X553505Y219733D01*
X552420Y220567D01*
X551955Y222025D01*
X552265Y223483D01*
X553040Y224525D01*
X554124Y225150D01*
X555209D01*
X556294Y224733D01*
X557224Y223692D01*
G01X565126Y225150D02*
X568846D01*
G01X566986D02*
Y212650D01*
G01X565126D02*
X568846D01*
G01X576438Y225150D02*
X582328D01*
X576438Y212650D01*
X582328D01*
G01X594879D02*
X588680D01*
Y225150D01*
X594879D01*
G01X592400Y219109D02*
X588680D01*
G01X464867Y-57142D02*
X465952Y-55683D01*
X466882Y-54850D01*
X468122Y-54434D01*
X469207Y-54850D01*
X469982Y-55683D01*
X470602Y-56933D01*
X470756Y-58392D01*
X470602Y-59642D01*
X469982Y-60892D01*
X469052Y-61933D01*
X467967Y-62350D01*
X466727Y-61933D01*
X465642Y-60684D01*
X465022Y-58808D01*
X464867Y-56725D01*
X465177Y-54017D01*
X465642Y-52558D01*
X466417Y-51100D01*
X467502Y-50058D01*
X468587Y-49850D01*
X469672Y-50267D01*
X470447Y-51308D01*
G01X482068Y-62350D02*
Y-49850D01*
X476334Y-58808D01*
X484083D01*
G01X492605Y-62767D02*
X492295Y-62558D01*
Y-62142D01*
X492605Y-61933D01*
X492915Y-62142D01*
Y-62558D01*
X492605Y-62767D01*
G01X505002Y-49850D02*
X503762Y-50267D01*
X502832Y-51308D01*
X502212Y-52558D01*
X501748Y-54225D01*
X501593Y-56100D01*
X501748Y-57975D01*
X502212Y-59642D01*
X502832Y-60892D01*
X503762Y-61933D01*
X505002Y-62350D01*
X506242Y-61933D01*
X507172Y-60892D01*
X507792Y-59642D01*
X508257Y-57975D01*
X508412Y-56100D01*
X508257Y-54225D01*
X507792Y-52558D01*
X507172Y-51308D01*
X506242Y-50267D01*
X505002Y-49850D01*
G01X515074Y-54017D02*
X519724Y-62350D01*
G01Y-54017D02*
X515074Y-62350D01*
G01X526851Y-51933D02*
X527781Y-50684D01*
X528866Y-50058D01*
X530106Y-49850D01*
X531656Y-50267D01*
X532740Y-51308D01*
X533050Y-52558D01*
X532895Y-53809D01*
X532275Y-54850D01*
X529176Y-56933D01*
X527781Y-58392D01*
X526851Y-60475D01*
X526541Y-62350D01*
X533050D01*
G01X538783Y-60475D02*
X539713Y-61517D01*
X540798Y-62142D01*
X542192Y-62350D01*
X543588Y-61933D01*
X544672Y-61100D01*
X545447Y-59642D01*
X545602Y-57975D01*
X545292Y-56309D01*
X544517Y-55267D01*
X543432Y-54434D01*
X542348Y-54225D01*
X541263Y-54434D01*
X539868Y-55267D01*
X540333Y-49850D01*
X544517D01*
G01X554589Y-62767D02*
X554279Y-62558D01*
Y-62142D01*
X554589Y-61933D01*
X554899Y-62142D01*
Y-62558D01*
X554589Y-62767D01*
G01X566986Y-49850D02*
X565746Y-50267D01*
X564816Y-51308D01*
X564196Y-52558D01*
X563732Y-54225D01*
X563577Y-56100D01*
X563732Y-57975D01*
X564196Y-59642D01*
X564816Y-60892D01*
X565746Y-61933D01*
X566986Y-62350D01*
X568226Y-61933D01*
X569156Y-60892D01*
X569776Y-59642D01*
X570241Y-57975D01*
X570396Y-56100D01*
X570241Y-54225D01*
X569776Y-52558D01*
X569156Y-51308D01*
X568226Y-50267D01*
X566986Y-49850D01*
G01X464867Y-32142D02*
X465952Y-30683D01*
X466882Y-29850D01*
X468122Y-29434D01*
X469207Y-29850D01*
X469982Y-30683D01*
X470602Y-31933D01*
X470756Y-33392D01*
X470602Y-34642D01*
X469982Y-35892D01*
X469052Y-36933D01*
X467967Y-37350D01*
X466727Y-36933D01*
X465642Y-35684D01*
X465022Y-33808D01*
X464867Y-31725D01*
X465177Y-29017D01*
X465642Y-27558D01*
X466417Y-26100D01*
X467502Y-25058D01*
X468587Y-24850D01*
X469672Y-25267D01*
X470447Y-26308D01*
G01X482068Y-37350D02*
Y-24850D01*
X476334Y-33808D01*
X484083D01*
G01X492605Y-37767D02*
X492295Y-37558D01*
Y-37142D01*
X492605Y-36933D01*
X492915Y-37142D01*
Y-37558D01*
X492605Y-37767D01*
G01X505002Y-24850D02*
X503762Y-25267D01*
X502832Y-26308D01*
X502212Y-27558D01*
X501748Y-29225D01*
X501593Y-31100D01*
X501748Y-32975D01*
X502212Y-34642D01*
X502832Y-35892D01*
X503762Y-36933D01*
X505002Y-37350D01*
X506242Y-36933D01*
X507172Y-35892D01*
X507792Y-34642D01*
X508257Y-32975D01*
X508412Y-31100D01*
X508257Y-29225D01*
X507792Y-27558D01*
X507172Y-26308D01*
X506242Y-25267D01*
X505002Y-24850D01*
G01X515074Y-29017D02*
X519724Y-37350D01*
G01Y-29017D02*
X515074Y-37350D01*
G01X526851Y-26933D02*
X527781Y-25683D01*
X528866Y-25058D01*
X530106Y-24850D01*
X531656Y-25267D01*
X532740Y-26308D01*
X533050Y-27558D01*
X532895Y-28809D01*
X532275Y-29850D01*
X529176Y-31933D01*
X527781Y-33392D01*
X526851Y-35475D01*
X526541Y-37350D01*
X533050D01*
G01X538783Y-35475D02*
X539713Y-36517D01*
X540798Y-37142D01*
X542192Y-37350D01*
X543588Y-36933D01*
X544672Y-36100D01*
X545447Y-34642D01*
X545602Y-32975D01*
X545292Y-31308D01*
X544517Y-30267D01*
X543432Y-29434D01*
X542348Y-29225D01*
X541263Y-29434D01*
X539868Y-30267D01*
X540333Y-24850D01*
X544517D01*
G01X554589Y-37767D02*
X554279Y-37558D01*
Y-37142D01*
X554589Y-36933D01*
X554899Y-37142D01*
Y-37558D01*
X554589Y-37767D01*
G01X566986Y-24850D02*
X565746Y-25267D01*
X564816Y-26308D01*
X564196Y-27558D01*
X563732Y-29225D01*
X563577Y-31100D01*
X563732Y-32975D01*
X564196Y-34642D01*
X564816Y-35892D01*
X565746Y-36933D01*
X566986Y-37350D01*
X568226Y-36933D01*
X569156Y-35892D01*
X569776Y-34642D01*
X570241Y-32975D01*
X570396Y-31100D01*
X570241Y-29225D01*
X569776Y-27558D01*
X569156Y-26308D01*
X568226Y-25267D01*
X566986Y-24850D01*
G01X480208Y-12350D02*
Y150D01*
X478349Y-2350D01*
G01Y-12350D02*
X482068D01*
G01X492605Y150D02*
X491365Y-267D01*
X490436Y-1308D01*
X489816Y-2558D01*
X489351Y-4225D01*
X489196Y-6100D01*
X489351Y-7975D01*
X489816Y-9642D01*
X490436Y-10892D01*
X491365Y-11933D01*
X492605Y-12350D01*
X493845Y-11933D01*
X494775Y-10892D01*
X495395Y-9642D01*
X495860Y-7975D01*
X496015Y-6100D01*
X495860Y-4225D01*
X495395Y-2558D01*
X494775Y-1308D01*
X493845Y-267D01*
X492605Y150D01*
G01X502058Y-1933D02*
X502988Y-684D01*
X504072Y-58D01*
X505312Y150D01*
X506862Y-267D01*
X507947Y-1308D01*
X508257Y-2558D01*
X508102Y-3809D01*
X507482Y-4850D01*
X504382Y-6933D01*
X502988Y-8392D01*
X502058Y-10475D01*
X501748Y-12350D01*
X508257D01*
G01X517399Y-12767D02*
X517089Y-12558D01*
Y-12142D01*
X517399Y-11933D01*
X517709Y-12142D01*
Y-12558D01*
X517399Y-12767D01*
G01X526386Y-9850D02*
X527316Y-11309D01*
X528556Y-12142D01*
X529951Y-12350D01*
X531191Y-12142D01*
X532431Y-11100D01*
X533205Y-9850D01*
X533360Y-8600D01*
X533050Y-7142D01*
X531966Y-6100D01*
X530881Y-5683D01*
X529486D01*
G01X530881D02*
X531810Y-5058D01*
X532586Y-4017D01*
X532895Y-2767D01*
X532586Y-1517D01*
X531810Y-475D01*
X530416Y150D01*
X529021Y-58D01*
X527626Y-892D01*
G01X538783Y-10475D02*
X539713Y-11517D01*
X540798Y-12142D01*
X542192Y-12350D01*
X543588Y-11933D01*
X544672Y-11100D01*
X545447Y-9642D01*
X545602Y-7975D01*
X545292Y-6308D01*
X544517Y-5267D01*
X543432Y-4434D01*
X542348Y-4225D01*
X541263Y-4434D01*
X539868Y-5267D01*
X540333Y150D01*
X544517D01*
G01X554589Y-12350D02*
X555674Y-12142D01*
X556914Y-11517D01*
X557689Y-10475D01*
X557999Y-9017D01*
X557689Y-7559D01*
X556759Y-6308D01*
X555364Y-5683D01*
X553815D01*
X552885Y-5267D01*
X552110Y-4225D01*
X551800Y-2767D01*
X552265Y-1308D01*
X553349Y-267D01*
X554589Y150D01*
X555829Y-267D01*
X556914Y-1308D01*
X557379Y-2767D01*
X557069Y-4225D01*
X556294Y-5267D01*
X555364Y-5683D01*
X553815D01*
X552420Y-6308D01*
X551490Y-7559D01*
X551180Y-9017D01*
X551490Y-10475D01*
X552265Y-11517D01*
X553505Y-12142D01*
X554589Y-12350D01*
G01X496169Y14108D02*
X497254Y13067D01*
X498494Y12650D01*
X499734Y13067D01*
X500818Y14316D01*
X501594Y16192D01*
X501903Y18067D01*
Y20358D01*
X501594Y22233D01*
X500818Y23900D01*
X499889Y24733D01*
X498804Y25150D01*
X497564Y24733D01*
X496634Y23900D01*
X496014Y22650D01*
X495704Y20983D01*
X496014Y19525D01*
X496789Y18067D01*
X497719Y17233D01*
X498804Y17025D01*
X500044Y17441D01*
X500974Y18483D01*
X501903Y20358D01*
G01X511200Y12650D02*
Y25150D01*
X509341Y22650D01*
G01Y12650D02*
X513060D01*
G01X523597Y12233D02*
X523287Y12442D01*
Y12858D01*
X523597Y13067D01*
X523907Y12858D01*
Y12442D01*
X523597Y12233D01*
G01X535994Y25150D02*
X534754Y24733D01*
X533824Y23692D01*
X533204Y22442D01*
X532740Y20775D01*
X532585Y18900D01*
X532740Y17025D01*
X533204Y15358D01*
X533824Y14108D01*
X534754Y13067D01*
X535994Y12650D01*
X537234Y13067D01*
X538164Y14108D01*
X538784Y15358D01*
X539249Y17025D01*
X539404Y18900D01*
X539249Y20775D01*
X538784Y22442D01*
X538164Y23692D01*
X537234Y24733D01*
X535994Y25150D01*
G01X492605Y37650D02*
X493690Y37858D01*
X494930Y38483D01*
X495705Y39525D01*
X496015Y40983D01*
X495705Y42441D01*
X494775Y43692D01*
X493380Y44317D01*
X491830D01*
X490901Y44733D01*
X490126Y45775D01*
X489816Y47233D01*
X490281Y48692D01*
X491365Y49733D01*
X492605Y50150D01*
X493845Y49733D01*
X494930Y48692D01*
X495395Y47233D01*
X495085Y45775D01*
X494310Y44733D01*
X493380Y44317D01*
X491830D01*
X490436Y43692D01*
X489506Y42441D01*
X489196Y40983D01*
X489506Y39525D01*
X490281Y38483D01*
X491521Y37858D01*
X492605Y37650D01*
G01X502058Y42858D02*
X503142Y44317D01*
X504072Y45150D01*
X505312Y45567D01*
X506397Y45150D01*
X507172Y44317D01*
X507792Y43067D01*
X507947Y41608D01*
X507792Y40358D01*
X507172Y39108D01*
X506242Y38067D01*
X505157Y37650D01*
X503917Y38067D01*
X502832Y39316D01*
X502212Y41192D01*
X502058Y43275D01*
X502367Y45983D01*
X502832Y47442D01*
X503607Y48900D01*
X504692Y49942D01*
X505777Y50150D01*
X506862Y49733D01*
X507637Y48692D01*
G01X517399Y37233D02*
X517089Y37442D01*
Y37858D01*
X517399Y38067D01*
X517709Y37858D01*
Y37442D01*
X517399Y37233D01*
G01X526851Y42858D02*
X527936Y44317D01*
X528866Y45150D01*
X530106Y45567D01*
X531191Y45150D01*
X531966Y44317D01*
X532586Y43067D01*
X532740Y41608D01*
X532586Y40358D01*
X531966Y39108D01*
X531036Y38067D01*
X529951Y37650D01*
X528711Y38067D01*
X527626Y39316D01*
X527006Y41192D01*
X526851Y43275D01*
X527161Y45983D01*
X527626Y47442D01*
X528401Y48900D01*
X529486Y49942D01*
X530571Y50150D01*
X531656Y49733D01*
X532431Y48692D01*
G01X542192Y37650D02*
Y50150D01*
X540333Y47650D01*
G01Y37650D02*
X544052D01*
G01X498494Y62650D02*
X498804Y65358D01*
X499269Y67650D01*
X499889Y69733D01*
X500664Y72025D01*
X501903Y75150D01*
X495704D01*
G01X508566Y64108D02*
X509651Y63067D01*
X510891Y62650D01*
X512130Y63067D01*
X513215Y64316D01*
X513990Y66192D01*
X514300Y68067D01*
Y70358D01*
X513990Y72233D01*
X513215Y73900D01*
X512285Y74733D01*
X511200Y75150D01*
X509961Y74733D01*
X509031Y73900D01*
X508411Y72650D01*
X508101Y70983D01*
X508411Y69525D01*
X509186Y68067D01*
X510116Y67233D01*
X511200Y67025D01*
X512440Y67441D01*
X513370Y68483D01*
X514300Y70358D01*
G01X523597Y62233D02*
X523287Y62442D01*
Y62858D01*
X523597Y63067D01*
X523907Y62858D01*
Y62442D01*
X523597Y62233D01*
G01X535994Y75150D02*
X534754Y74733D01*
X533824Y73692D01*
X533204Y72442D01*
X532740Y70775D01*
X532585Y68900D01*
X532740Y67025D01*
X533204Y65358D01*
X533824Y64108D01*
X534754Y63067D01*
X535994Y62650D01*
X537234Y63067D01*
X538164Y64108D01*
X538784Y65358D01*
X539249Y67025D01*
X539404Y68900D01*
X539249Y70775D01*
X538784Y72442D01*
X538164Y73692D01*
X537234Y74733D01*
X535994Y75150D01*
G01X500664Y87650D02*
Y100150D01*
X494929Y91192D01*
X502678D01*
G01X511200Y100150D02*
X509961Y99733D01*
X509031Y98692D01*
X508411Y97442D01*
X507946Y95775D01*
X507791Y93900D01*
X507946Y92025D01*
X508411Y90358D01*
X509031Y89108D01*
X509961Y88067D01*
X511200Y87650D01*
X512440Y88067D01*
X513370Y89108D01*
X513990Y90358D01*
X514455Y92025D01*
X514610Y93900D01*
X514455Y95775D01*
X513990Y97442D01*
X513370Y98692D01*
X512440Y99733D01*
X511200Y100150D01*
G01X523597Y87233D02*
X523287Y87442D01*
Y87858D01*
X523597Y88067D01*
X523907Y87858D01*
Y87442D01*
X523597Y87233D01*
G01X535994Y100150D02*
X534754Y99733D01*
X533824Y98692D01*
X533204Y97442D01*
X532740Y95775D01*
X532585Y93900D01*
X532740Y92025D01*
X533204Y90358D01*
X533824Y89108D01*
X534754Y88067D01*
X535994Y87650D01*
X537234Y88067D01*
X538164Y89108D01*
X538784Y90358D01*
X539249Y92025D01*
X539404Y93900D01*
X539249Y95775D01*
X538784Y97442D01*
X538164Y98692D01*
X537234Y99733D01*
X535994Y100150D01*
G01X500664Y112650D02*
Y125150D01*
X494929Y116192D01*
X502678D01*
G01X511200Y125150D02*
X509961Y124733D01*
X509031Y123692D01*
X508411Y122442D01*
X507946Y120775D01*
X507791Y118900D01*
X507946Y117025D01*
X508411Y115358D01*
X509031Y114108D01*
X509961Y113067D01*
X511200Y112650D01*
X512440Y113067D01*
X513370Y114108D01*
X513990Y115358D01*
X514455Y117025D01*
X514610Y118900D01*
X514455Y120775D01*
X513990Y122442D01*
X513370Y123692D01*
X512440Y124733D01*
X511200Y125150D01*
G01X523597Y112233D02*
X523287Y112442D01*
Y112858D01*
X523597Y113067D01*
X523907Y112858D01*
Y112442D01*
X523597Y112233D01*
G01X535994Y125150D02*
X534754Y124733D01*
X533824Y123692D01*
X533204Y122442D01*
X532740Y120775D01*
X532585Y118900D01*
X532740Y117025D01*
X533204Y115358D01*
X533824Y114108D01*
X534754Y113067D01*
X535994Y112650D01*
X537234Y113067D01*
X538164Y114108D01*
X538784Y115358D01*
X539249Y117025D01*
X539404Y118900D01*
X539249Y120775D01*
X538784Y122442D01*
X538164Y123692D01*
X537234Y124733D01*
X535994Y125150D01*
G01X482998Y140150D02*
X483927Y138691D01*
X485167Y137858D01*
X486562Y137650D01*
X487802Y137858D01*
X489042Y138900D01*
X489816Y140150D01*
X489972Y141400D01*
X489662Y142858D01*
X488577Y143900D01*
X487492Y144317D01*
X486097D01*
G01X487492D02*
X488422Y144942D01*
X489197Y145983D01*
X489507Y147233D01*
X489197Y148483D01*
X488422Y149525D01*
X487027Y150150D01*
X485632Y149942D01*
X484237Y149108D01*
G01X498494Y137650D02*
X498804Y140358D01*
X499269Y142650D01*
X499889Y144733D01*
X500664Y147025D01*
X501903Y150150D01*
X495704D01*
G01X511200Y137233D02*
X510891Y137442D01*
Y137858D01*
X511200Y138067D01*
X511511Y137858D01*
Y137442D01*
X511200Y137233D01*
G01X523597Y150150D02*
X522357Y149733D01*
X521428Y148692D01*
X520808Y147442D01*
X520343Y145775D01*
X520188Y143900D01*
X520343Y142025D01*
X520808Y140358D01*
X521428Y139108D01*
X522357Y138067D01*
X523597Y137650D01*
X524837Y138067D01*
X525767Y139108D01*
X526387Y140358D01*
X526852Y142025D01*
X527007Y143900D01*
X526852Y145775D01*
X526387Y147442D01*
X525767Y148692D01*
X524837Y149733D01*
X523597Y150150D01*
G01X535994Y137650D02*
Y150150D01*
X534134Y147650D01*
G01Y137650D02*
X537854D01*
G01X545446Y148067D02*
X546376Y149316D01*
X547461Y149942D01*
X548701Y150150D01*
X550251Y149733D01*
X551336Y148692D01*
X551646Y147442D01*
X551491Y146191D01*
X550871Y145150D01*
X547771Y143067D01*
X546376Y141608D01*
X545446Y139525D01*
X545136Y137650D01*
X551646D01*
G01X495394Y165150D02*
X496324Y163691D01*
X497564Y162858D01*
X498959Y162650D01*
X500199Y162858D01*
X501439Y163900D01*
X502213Y165150D01*
X502368Y166400D01*
X502058Y167858D01*
X500974Y168900D01*
X499889Y169317D01*
X498494D01*
G01X499889D02*
X500818Y169942D01*
X501594Y170983D01*
X501903Y172233D01*
X501594Y173483D01*
X500818Y174525D01*
X499424Y175150D01*
X498029Y174942D01*
X496634Y174108D01*
G01X508256Y167858D02*
X509341Y169317D01*
X510271Y170150D01*
X511511Y170566D01*
X512596Y170150D01*
X513370Y169317D01*
X513990Y168067D01*
X514145Y166608D01*
X513990Y165358D01*
X513370Y164108D01*
X512440Y163067D01*
X511356Y162650D01*
X510116Y163067D01*
X509031Y164316D01*
X508411Y166192D01*
X508256Y168275D01*
X508566Y170983D01*
X509031Y172442D01*
X509806Y173900D01*
X510891Y174942D01*
X511976Y175150D01*
X513060Y174733D01*
X513835Y173692D01*
G01X523597Y162233D02*
X523287Y162442D01*
Y162858D01*
X523597Y163067D01*
X523907Y162858D01*
Y162442D01*
X523597Y162233D01*
G01X535994Y175150D02*
X534754Y174733D01*
X533824Y173692D01*
X533204Y172442D01*
X532740Y170775D01*
X532585Y168900D01*
X532740Y167025D01*
X533204Y165358D01*
X533824Y164108D01*
X534754Y163067D01*
X535994Y162650D01*
X537234Y163067D01*
X538164Y164108D01*
X538784Y165358D01*
X539249Y167025D01*
X539404Y168900D01*
X539249Y170775D01*
X538784Y172442D01*
X538164Y173692D01*
X537234Y174733D01*
X535994Y175150D01*
G01X498804Y187650D02*
Y200150D01*
X496944Y197650D01*
G01Y187650D02*
X500663D01*
G01X511200Y200150D02*
X509961Y199733D01*
X509031Y198692D01*
X508411Y197442D01*
X507946Y195775D01*
X507791Y193900D01*
X507946Y192025D01*
X508411Y190358D01*
X509031Y189108D01*
X509961Y188067D01*
X511200Y187650D01*
X512440Y188067D01*
X513370Y189108D01*
X513990Y190358D01*
X514455Y192025D01*
X514610Y193900D01*
X514455Y195775D01*
X513990Y197442D01*
X513370Y198692D01*
X512440Y199733D01*
X511200Y200150D01*
G01X523597Y187233D02*
X523287Y187442D01*
Y187858D01*
X523597Y188067D01*
X523907Y187858D01*
Y187442D01*
X523597Y187233D01*
G01X535994Y200150D02*
X534754Y199733D01*
X533824Y198692D01*
X533204Y197442D01*
X532740Y195775D01*
X532585Y193900D01*
X532740Y192025D01*
X533204Y190358D01*
X533824Y189108D01*
X534754Y188067D01*
X535994Y187650D01*
X537234Y188067D01*
X538164Y189108D01*
X538784Y190358D01*
X539249Y192025D01*
X539404Y193900D01*
X539249Y195775D01*
X538784Y197442D01*
X538164Y198692D01*
X537234Y199733D01*
X535994Y200150D01*
G01X580620Y262650D02*
Y275150D01*
X583720D01*
X584960Y274525D01*
X585890Y273692D01*
X586665Y272442D01*
X587285Y270983D01*
X587440Y268900D01*
X587285Y266816D01*
X586665Y265358D01*
X585890Y264108D01*
X584960Y263275D01*
X583720Y262650D01*
X580620D01*
G01X593327D02*
Y275150D01*
X597202D01*
X598442Y274525D01*
X599217Y273692D01*
X599526Y272025D01*
X599217Y270358D01*
X598287Y269317D01*
X597202Y268692D01*
X593327D01*
G01X597202D02*
X599526Y262650D01*
G01X606964Y275150D02*
X610683D01*
G01X608824D02*
Y262650D01*
G01X606964D02*
X610683D01*
G01X618121Y275150D02*
Y262650D01*
X624320D01*
G01X630518Y275150D02*
Y262650D01*
X636717D01*
G01X661820Y274108D02*
X660890Y274733D01*
X659806Y275150D01*
X658566D01*
X657171Y274525D01*
X656086Y273483D01*
X655311Y272233D01*
X654691Y270150D01*
X654536Y268275D01*
X654846Y266400D01*
X655311Y265150D01*
X656241Y263900D01*
X657326Y263067D01*
X658411Y262650D01*
X659496D01*
X660580Y263067D01*
X661510Y263691D01*
X662286Y264525D01*
G01X667553Y262650D02*
Y275150D01*
G01X674062D02*
Y262650D01*
G01Y268900D02*
X667553D01*
G01X679330Y262650D02*
X683204Y275150D01*
X687079Y262650D01*
G01X685684Y267025D02*
X680724D01*
G01X692502Y262650D02*
Y275150D01*
X696376D01*
X697616Y274525D01*
X698391Y273692D01*
X698701Y272025D01*
X698391Y270358D01*
X697461Y269317D01*
X696376Y268692D01*
X692502D01*
G01X696376D02*
X698701Y262650D01*
G01X707998Y275150D02*
Y262650D01*
G01X704434Y275150D02*
X711562D01*
G01X720395Y262233D02*
X720085Y262442D01*
Y262858D01*
X720395Y263067D01*
X720705Y262858D01*
Y262442D01*
X720395Y262233D01*
G01Y267858D02*
X720085Y268067D01*
Y268483D01*
X720395Y268692D01*
X720705Y268483D01*
Y268067D01*
X720395Y267858D01*
G01X745188Y275150D02*
Y262650D01*
G01X741624Y275150D02*
X748753D01*
G01X757585Y262650D02*
X756345Y262858D01*
X755261Y263691D01*
X754331Y264942D01*
X753710Y266400D01*
X753401Y268067D01*
Y269733D01*
X753710Y271400D01*
X754331Y272858D01*
X755261Y274108D01*
X756345Y274942D01*
X757585Y275150D01*
X758825Y274942D01*
X759910Y274108D01*
X760840Y272858D01*
X761460Y271400D01*
X761770Y269733D01*
Y268067D01*
X761460Y266400D01*
X760840Y264942D01*
X759910Y263691D01*
X758825Y262858D01*
X757585Y262650D01*
G01X766882D02*
Y275150D01*
X770602D01*
X771842Y274525D01*
X772772Y273067D01*
X773082Y271400D01*
X772772Y269733D01*
X771997Y268483D01*
X770602Y267858D01*
X766882D01*
G01X794776Y275150D02*
Y262650D01*
G01X792606Y270983D02*
X796945D01*
G01X807172Y262650D02*
X806243Y262858D01*
X805313Y263691D01*
X804692Y265150D01*
X804383Y266816D01*
X804692Y268483D01*
X805313Y269942D01*
X806243Y270775D01*
X807172Y270983D01*
X808102Y270775D01*
X809032Y269942D01*
X809652Y268483D01*
X809807Y266816D01*
X809652Y265150D01*
X809032Y263691D01*
X808102Y262858D01*
X807172Y262650D01*
G01X833206Y269317D02*
X833826Y269942D01*
X834291Y270983D01*
X834601Y272442D01*
X834291Y273692D01*
X833671Y274525D01*
X832586Y275150D01*
X828402D01*
Y262650D01*
X833516D01*
X834601Y263483D01*
X835221Y264733D01*
X835531Y266192D01*
X835221Y267650D01*
X834291Y268900D01*
X833206Y269317D01*
X828402D01*
G01X844363Y262650D02*
X843123Y262858D01*
X842038Y263691D01*
X841108Y264942D01*
X840488Y266400D01*
X840178Y268067D01*
Y269733D01*
X840488Y271400D01*
X841108Y272858D01*
X842038Y274108D01*
X843123Y274942D01*
X844363Y275150D01*
X845602Y274942D01*
X846687Y274108D01*
X847617Y272858D01*
X848237Y271400D01*
X848547Y269733D01*
Y268067D01*
X848237Y266400D01*
X847617Y264942D01*
X846687Y263691D01*
X845602Y262858D01*
X844363Y262650D01*
G01X856759Y275150D02*
Y262650D01*
G01X853195Y275150D02*
X860324D01*
G01X869156D02*
Y262650D01*
G01X865592Y275150D02*
X872721D01*
G01X881553Y262650D02*
X880313Y262858D01*
X879229Y263691D01*
X878299Y264942D01*
X877678Y266400D01*
X877369Y268067D01*
Y269733D01*
X877678Y271400D01*
X878299Y272858D01*
X879229Y274108D01*
X880313Y274942D01*
X881553Y275150D01*
X882793Y274942D01*
X883878Y274108D01*
X884808Y272858D01*
X885428Y271400D01*
X885738Y269733D01*
Y268067D01*
X885428Y266400D01*
X884808Y264942D01*
X883878Y263691D01*
X882793Y262858D01*
X881553Y262650D01*
G01X889920D02*
Y275150D01*
X893950Y264733D01*
X897980Y275150D01*
Y262650D01*
G01X618122Y231400D02*
Y-68600D01*
G01X611147Y237650D02*
X615022Y250150D01*
X618897Y237650D01*
G01X617502Y242025D02*
X612542D01*
G01X624319Y250150D02*
Y237650D01*
X630518D01*
G01X636716Y250150D02*
Y237650D01*
X642915D01*
G01X661200Y250150D02*
Y241192D01*
X661819Y239316D01*
X663059Y238067D01*
X664609Y237650D01*
X666159Y238067D01*
X667399Y239316D01*
X668019Y241192D01*
Y250150D01*
G01X673442Y237650D02*
Y250150D01*
X680570Y237650D01*
Y250150D01*
G01X687543D02*
X691262D01*
G01X689403D02*
Y237650D01*
G01X687543D02*
X691262D01*
G01X701800Y250150D02*
Y237650D01*
G01X698235Y250150D02*
X705364D01*
G01X710942Y239316D02*
X712182Y238275D01*
X713576Y237650D01*
X714816D01*
X716056Y238275D01*
X716986Y239316D01*
X717451Y240775D01*
X717141Y242233D01*
X716366Y243483D01*
X714971Y244317D01*
X713112Y244733D01*
X712027Y245567D01*
X711562Y247025D01*
X711872Y248483D01*
X712646Y249525D01*
X713731Y250150D01*
X714816D01*
X715901Y249733D01*
X716831Y248692D01*
G01X735115Y237650D02*
X738990Y250150D01*
X742865Y237650D01*
G01X741470Y242025D02*
X736510D01*
G01X748287Y237650D02*
Y250150D01*
X752162D01*
X753402Y249525D01*
X754177Y248692D01*
X754486Y247025D01*
X754177Y245358D01*
X753247Y244317D01*
X752162Y243692D01*
X748287D01*
G01X752162D02*
X754486Y237650D01*
G01X766883D02*
X760684D01*
Y250150D01*
X766883D01*
G01X764404Y244109D02*
X760684D01*
G01X786717Y250150D02*
X790437D01*
G01X788577D02*
Y237650D01*
G01X786717D02*
X790437D01*
G01X797410D02*
Y250150D01*
X804538Y237650D01*
Y250150D01*
G01X821738Y237650D02*
Y250150D01*
X825767Y239733D01*
X829797Y250150D01*
Y237650D01*
G01X836305Y250150D02*
X840024D01*
G01X838164D02*
Y237650D01*
G01X836305D02*
X840024D01*
G01X847462Y250150D02*
Y237650D01*
X853661D01*
G01X859703Y239316D02*
X860943Y238275D01*
X862338Y237650D01*
X863578D01*
X864818Y238275D01*
X865748Y239316D01*
X866213Y240775D01*
X865903Y242233D01*
X865128Y243483D01*
X863733Y244317D01*
X861873Y244733D01*
X860788Y245567D01*
X860323Y247025D01*
X860633Y248483D01*
X861408Y249525D01*
X862493Y250150D01*
X863578D01*
X864663Y249733D01*
X865593Y248692D01*
G01X644465Y-37350D02*
Y-24850D01*
X642605Y-27350D01*
G01Y-37350D02*
X646324D01*
G01X656552D02*
X656862Y-34642D01*
X657327Y-32350D01*
X657947Y-30267D01*
X658722Y-27975D01*
X659961Y-24850D01*
X653762D01*
G01X666624Y-35892D02*
X667709Y-36933D01*
X668949Y-37350D01*
X670188Y-36933D01*
X671273Y-35684D01*
X672048Y-33808D01*
X672358Y-31933D01*
Y-29642D01*
X672048Y-27767D01*
X671273Y-26100D01*
X670343Y-25267D01*
X669258Y-24850D01*
X668019Y-25267D01*
X667089Y-26100D01*
X666469Y-27350D01*
X666159Y-29017D01*
X666469Y-30475D01*
X667244Y-31933D01*
X668174Y-32767D01*
X669258Y-32975D01*
X670498Y-32559D01*
X671428Y-31517D01*
X672358Y-29642D01*
G01X681655Y-37767D02*
X681345Y-37558D01*
Y-37142D01*
X681655Y-36933D01*
X681965Y-37142D01*
Y-37558D01*
X681655Y-37767D01*
G01X694052Y-24850D02*
X692812Y-25267D01*
X691882Y-26308D01*
X691262Y-27558D01*
X690798Y-29225D01*
X690643Y-31100D01*
X690798Y-32975D01*
X691262Y-34642D01*
X691882Y-35892D01*
X692812Y-36933D01*
X694052Y-37350D01*
X695292Y-36933D01*
X696222Y-35892D01*
X696842Y-34642D01*
X697307Y-32975D01*
X697462Y-31100D01*
X697307Y-29225D01*
X696842Y-27558D01*
X696222Y-26308D01*
X695292Y-25267D01*
X694052Y-24850D01*
G01X706449D02*
X705209Y-25267D01*
X704279Y-26308D01*
X703659Y-27558D01*
X703194Y-29225D01*
X703040Y-31100D01*
X703194Y-32975D01*
X703659Y-34642D01*
X704279Y-35892D01*
X705209Y-36933D01*
X706449Y-37350D01*
X707689Y-36933D01*
X708619Y-35892D01*
X709239Y-34642D01*
X709704Y-32975D01*
X709858Y-31100D01*
X709704Y-29225D01*
X709239Y-27558D01*
X708619Y-26308D01*
X707689Y-25267D01*
X706449Y-24850D01*
G01X718846D02*
X717606Y-25267D01*
X716676Y-26308D01*
X716056Y-27558D01*
X715591Y-29225D01*
X715436Y-31100D01*
X715591Y-32975D01*
X716056Y-34642D01*
X716676Y-35892D01*
X717606Y-36933D01*
X718846Y-37350D01*
X720086Y-36933D01*
X721016Y-35892D01*
X721636Y-34642D01*
X722100Y-32975D01*
X722255Y-31100D01*
X722100Y-29225D01*
X721636Y-27558D01*
X721016Y-26308D01*
X720086Y-25267D01*
X718846Y-24850D01*
G01X635167Y212650D02*
Y225150D01*
X639042D01*
X640281Y224525D01*
X641056Y223692D01*
X641366Y222025D01*
X641056Y220358D01*
X640126Y219317D01*
X639042Y218692D01*
X635167D01*
G01X639042D02*
X641366Y212650D01*
G01X650663D02*
X649423Y212858D01*
X648339Y213691D01*
X647409Y214942D01*
X646789Y216400D01*
X646479Y218067D01*
Y219733D01*
X646789Y221400D01*
X647409Y222858D01*
X648339Y224108D01*
X649423Y224942D01*
X650663Y225150D01*
X651903Y224942D01*
X652988Y224108D01*
X653918Y222858D01*
X654538Y221400D01*
X654848Y219733D01*
Y218067D01*
X654538Y216400D01*
X653918Y214942D01*
X652988Y213691D01*
X651903Y212858D01*
X650663Y212650D01*
G01X663060Y225150D02*
Y212650D01*
G01X659496Y225150D02*
X666625D01*
G01X671582Y212650D02*
X675457Y225150D01*
X679332Y212650D01*
G01X677937Y217025D02*
X672977D01*
G01X687854Y225150D02*
Y212650D01*
G01X684289Y225150D02*
X691418D01*
G01X698391D02*
X702110D01*
G01X700250D02*
Y212650D01*
G01X698391D02*
X702110D01*
G01X712647D02*
X711407Y212858D01*
X710323Y213691D01*
X709393Y214942D01*
X708773Y216400D01*
X708463Y218067D01*
Y219733D01*
X708773Y221400D01*
X709393Y222858D01*
X710323Y224108D01*
X711407Y224942D01*
X712647Y225150D01*
X713887Y224942D01*
X714972Y224108D01*
X715902Y222858D01*
X716522Y221400D01*
X716832Y219733D01*
Y218067D01*
X716522Y216400D01*
X715902Y214942D01*
X714972Y213691D01*
X713887Y212858D01*
X712647Y212650D01*
G01X721480D02*
Y225150D01*
X728609Y212650D01*
Y225150D01*
G01X656862Y-49850D02*
X655622Y-50267D01*
X654692Y-51308D01*
X654072Y-52558D01*
X653607Y-54225D01*
X653452Y-56100D01*
X653607Y-57975D01*
X654072Y-59642D01*
X654692Y-60892D01*
X655622Y-61933D01*
X656862Y-62350D01*
X658102Y-61933D01*
X659032Y-60892D01*
X659652Y-59642D01*
X660116Y-57975D01*
X660271Y-56100D01*
X660116Y-54225D01*
X659652Y-52558D01*
X659032Y-51308D01*
X658102Y-50267D01*
X656862Y-49850D01*
G01X669258Y-62767D02*
X668949Y-62558D01*
Y-62142D01*
X669258Y-61933D01*
X669569Y-62142D01*
Y-62558D01*
X669258Y-62767D01*
G01X681655Y-49850D02*
X680415Y-50267D01*
X679486Y-51308D01*
X678866Y-52558D01*
X678401Y-54225D01*
X678246Y-56100D01*
X678401Y-57975D01*
X678866Y-59642D01*
X679486Y-60892D01*
X680415Y-61933D01*
X681655Y-62350D01*
X682895Y-61933D01*
X683825Y-60892D01*
X684445Y-59642D01*
X684910Y-57975D01*
X685065Y-56100D01*
X684910Y-54225D01*
X684445Y-52558D01*
X683825Y-51308D01*
X682895Y-50267D01*
X681655Y-49850D01*
G01X694052D02*
X692812Y-50267D01*
X691882Y-51308D01*
X691262Y-52558D01*
X690798Y-54225D01*
X690643Y-56100D01*
X690798Y-57975D01*
X691262Y-59642D01*
X691882Y-60892D01*
X692812Y-61933D01*
X694052Y-62350D01*
X695292Y-61933D01*
X696222Y-60892D01*
X696842Y-59642D01*
X697307Y-57975D01*
X697462Y-56100D01*
X697307Y-54225D01*
X696842Y-52558D01*
X696222Y-51308D01*
X695292Y-50267D01*
X694052Y-49850D01*
G01X706449D02*
X705209Y-50267D01*
X704279Y-51308D01*
X703659Y-52558D01*
X703194Y-54225D01*
X703040Y-56100D01*
X703194Y-57975D01*
X703659Y-59642D01*
X704279Y-60892D01*
X705209Y-61933D01*
X706449Y-62350D01*
X707689Y-61933D01*
X708619Y-60892D01*
X709239Y-59642D01*
X709704Y-57975D01*
X709858Y-56100D01*
X709704Y-54225D01*
X709239Y-52558D01*
X708619Y-51308D01*
X707689Y-50267D01*
X706449Y-49850D01*
G01X679641Y-8183D02*
X683670D01*
G01X679641Y16816D02*
X683670D01*
G01X679641Y41816D02*
X683670D01*
G01X679641Y66816D02*
X683670D01*
G01X679641Y91816D02*
X683670D01*
G01X679641Y116816D02*
X683670D01*
G01X679641Y141816D02*
X683670D01*
G01X679641Y166816D02*
X683670D01*
G01X679641Y191816D02*
X683670D01*
G01X745188Y231400D02*
Y-68600D01*
G01X759134Y225150D02*
Y212650D01*
G01X755570Y225150D02*
X762699D01*
G01X771531Y212650D02*
X770291Y212858D01*
X769206Y213691D01*
X768276Y214942D01*
X767656Y216400D01*
X767346Y218067D01*
Y219733D01*
X767656Y221400D01*
X768276Y222858D01*
X769206Y224108D01*
X770291Y224942D01*
X771531Y225150D01*
X772771Y224942D01*
X773856Y224108D01*
X774786Y222858D01*
X775406Y221400D01*
X775716Y219733D01*
Y218067D01*
X775406Y216400D01*
X774786Y214942D01*
X773856Y213691D01*
X772771Y212858D01*
X771531Y212650D01*
G01X780828Y225150D02*
Y212650D01*
X787027D01*
G01X799424D02*
X793225D01*
Y225150D01*
X799424D01*
G01X796944Y219109D02*
X793225D01*
G01X805622Y212650D02*
Y225150D01*
X809496D01*
X810736Y224525D01*
X811511Y223692D01*
X811821Y222025D01*
X811511Y220358D01*
X810581Y219317D01*
X809496Y218692D01*
X805622D01*
G01X809496D02*
X811821Y212650D01*
G01X817244D02*
X821118Y225150D01*
X824993Y212650D01*
G01X823598Y217025D02*
X818638D01*
G01X829950Y212650D02*
Y225150D01*
X837080Y212650D01*
Y225150D01*
G01X849321Y224108D02*
X848391Y224733D01*
X847307Y225150D01*
X846067D01*
X844672Y224525D01*
X843587Y223483D01*
X842812Y222233D01*
X842192Y220150D01*
X842037Y218275D01*
X842347Y216400D01*
X842812Y215150D01*
X843742Y213900D01*
X844827Y213067D01*
X845912Y212650D01*
X846997D01*
X848082Y213067D01*
X849011Y213691D01*
X849786Y214525D01*
G01X861408Y212650D02*
X855209D01*
Y225150D01*
X861408D01*
G01X858928Y219109D02*
X855209D01*
G01X866056Y208484D02*
X875355D01*
G01X879693Y212650D02*
Y225150D01*
X882792D01*
X884032Y224525D01*
X884962Y223692D01*
X885737Y222442D01*
X886357Y220983D01*
X886512Y218900D01*
X886357Y216816D01*
X885737Y215358D01*
X884962Y214108D01*
X884032Y213275D01*
X882792Y212650D01*
X879693D01*
G01X892399D02*
Y225150D01*
X896274D01*
X897514Y224525D01*
X898289Y223692D01*
X898599Y222025D01*
X898289Y220358D01*
X897359Y219317D01*
X896274Y218692D01*
X892399D01*
G01X896274D02*
X898599Y212650D01*
G01X906036Y225150D02*
X909755D01*
G01X907896D02*
Y212650D01*
G01X906036D02*
X909755D01*
G01X917193Y225150D02*
Y212650D01*
X923392D01*
G01X929590Y225150D02*
Y212650D01*
X935789D01*
G01X794620Y-58184D02*
X798339D01*
G01X796324Y-55475D02*
Y-60892D01*
G01X808721Y-49850D02*
X807481Y-50267D01*
X806552Y-51308D01*
X805932Y-52558D01*
X805467Y-54225D01*
X805312Y-56100D01*
X805467Y-57975D01*
X805932Y-59642D01*
X806552Y-60892D01*
X807481Y-61933D01*
X808721Y-62350D01*
X809961Y-61933D01*
X810891Y-60892D01*
X811511Y-59642D01*
X811976Y-57975D01*
X812131Y-56100D01*
X811976Y-54225D01*
X811511Y-52558D01*
X810891Y-51308D01*
X809961Y-50267D01*
X808721Y-49850D01*
G01X821118Y-62767D02*
X820808Y-62558D01*
Y-62142D01*
X821118Y-61933D01*
X821428Y-62142D01*
Y-62558D01*
X821118Y-62767D01*
G01X833515Y-49850D02*
X832275Y-50267D01*
X831345Y-51308D01*
X830725Y-52558D01*
X830260Y-54225D01*
X830106Y-56100D01*
X830260Y-57975D01*
X830725Y-59642D01*
X831345Y-60892D01*
X832275Y-61933D01*
X833515Y-62350D01*
X834755Y-61933D01*
X835685Y-60892D01*
X836305Y-59642D01*
X836770Y-57975D01*
X836925Y-56100D01*
X836770Y-54225D01*
X836305Y-52558D01*
X835685Y-51308D01*
X834755Y-50267D01*
X833515Y-49850D01*
G01X843122Y-62767D02*
X848702Y-49850D01*
G01X856294Y-58184D02*
X860323D01*
G01X870705Y-49850D02*
X869465Y-50267D01*
X868536Y-51308D01*
X867916Y-52558D01*
X867451Y-54225D01*
X867296Y-56100D01*
X867451Y-57975D01*
X867916Y-59642D01*
X868536Y-60892D01*
X869465Y-61933D01*
X870705Y-62350D01*
X871945Y-61933D01*
X872875Y-60892D01*
X873495Y-59642D01*
X873960Y-57975D01*
X874115Y-56100D01*
X873960Y-54225D01*
X873495Y-52558D01*
X872875Y-51308D01*
X871945Y-50267D01*
X870705Y-49850D01*
G01X883102Y-62767D02*
X882792Y-62558D01*
Y-62142D01*
X883102Y-61933D01*
X883412Y-62142D01*
Y-62558D01*
X883102Y-62767D01*
G01X895499Y-49850D02*
X894259Y-50267D01*
X893329Y-51308D01*
X892709Y-52558D01*
X892244Y-54225D01*
X892090Y-56100D01*
X892244Y-57975D01*
X892709Y-59642D01*
X893329Y-60892D01*
X894259Y-61933D01*
X895499Y-62350D01*
X896739Y-61933D01*
X897669Y-60892D01*
X898289Y-59642D01*
X898754Y-57975D01*
X898908Y-56100D01*
X898754Y-54225D01*
X898289Y-52558D01*
X897669Y-51308D01*
X896739Y-50267D01*
X895499Y-49850D01*
G01X794620Y-33184D02*
X798339D01*
G01X796324Y-30475D02*
Y-35892D01*
G01X808721Y-24850D02*
X807481Y-25267D01*
X806552Y-26308D01*
X805932Y-27558D01*
X805467Y-29225D01*
X805312Y-31100D01*
X805467Y-32975D01*
X805932Y-34642D01*
X806552Y-35892D01*
X807481Y-36933D01*
X808721Y-37350D01*
X809961Y-36933D01*
X810891Y-35892D01*
X811511Y-34642D01*
X811976Y-32975D01*
X812131Y-31100D01*
X811976Y-29225D01*
X811511Y-27558D01*
X810891Y-26308D01*
X809961Y-25267D01*
X808721Y-24850D01*
G01X821118Y-37767D02*
X820808Y-37558D01*
Y-37142D01*
X821118Y-36933D01*
X821428Y-37142D01*
Y-37558D01*
X821118Y-37767D01*
G01X833515Y-24850D02*
X832275Y-25267D01*
X831345Y-26308D01*
X830725Y-27558D01*
X830260Y-29225D01*
X830106Y-31100D01*
X830260Y-32975D01*
X830725Y-34642D01*
X831345Y-35892D01*
X832275Y-36933D01*
X833515Y-37350D01*
X834755Y-36933D01*
X835685Y-35892D01*
X836305Y-34642D01*
X836770Y-32975D01*
X836925Y-31100D01*
X836770Y-29225D01*
X836305Y-27558D01*
X835685Y-26308D01*
X834755Y-25267D01*
X833515Y-24850D01*
G01X843122Y-37767D02*
X848702Y-24850D01*
G01X856294Y-33184D02*
X860323D01*
G01X870705Y-24850D02*
X869465Y-25267D01*
X868536Y-26308D01*
X867916Y-27558D01*
X867451Y-29225D01*
X867296Y-31100D01*
X867451Y-32975D01*
X867916Y-34642D01*
X868536Y-35892D01*
X869465Y-36933D01*
X870705Y-37350D01*
X871945Y-36933D01*
X872875Y-35892D01*
X873495Y-34642D01*
X873960Y-32975D01*
X874115Y-31100D01*
X873960Y-29225D01*
X873495Y-27558D01*
X872875Y-26308D01*
X871945Y-25267D01*
X870705Y-24850D01*
G01X883102Y-37767D02*
X882792Y-37558D01*
Y-37142D01*
X883102Y-36933D01*
X883412Y-37142D01*
Y-37558D01*
X883102Y-37767D01*
G01X895499Y-24850D02*
X894259Y-25267D01*
X893329Y-26308D01*
X892709Y-27558D01*
X892244Y-29225D01*
X892090Y-31100D01*
X892244Y-32975D01*
X892709Y-34642D01*
X893329Y-35892D01*
X894259Y-36933D01*
X895499Y-37350D01*
X896739Y-36933D01*
X897669Y-35892D01*
X898289Y-34642D01*
X898754Y-32975D01*
X898908Y-31100D01*
X898754Y-29225D01*
X898289Y-27558D01*
X897669Y-26308D01*
X896739Y-25267D01*
X895499Y-24850D01*
G01X794620Y-8183D02*
X798339D01*
G01X796324Y-5475D02*
Y-10892D01*
G01X808721Y150D02*
X807481Y-267D01*
X806552Y-1308D01*
X805932Y-2558D01*
X805467Y-4225D01*
X805312Y-6100D01*
X805467Y-7975D01*
X805932Y-9642D01*
X806552Y-10892D01*
X807481Y-11933D01*
X808721Y-12350D01*
X809961Y-11933D01*
X810891Y-10892D01*
X811511Y-9642D01*
X811976Y-7975D01*
X812131Y-6100D01*
X811976Y-4225D01*
X811511Y-2558D01*
X810891Y-1308D01*
X809961Y-267D01*
X808721Y150D01*
G01X821118Y-12767D02*
X820808Y-12558D01*
Y-12142D01*
X821118Y-11933D01*
X821428Y-12142D01*
Y-12558D01*
X821118Y-12767D01*
G01X833515Y150D02*
X832275Y-267D01*
X831345Y-1308D01*
X830725Y-2558D01*
X830260Y-4225D01*
X830106Y-6100D01*
X830260Y-7975D01*
X830725Y-9642D01*
X831345Y-10892D01*
X832275Y-11933D01*
X833515Y-12350D01*
X834755Y-11933D01*
X835685Y-10892D01*
X836305Y-9642D01*
X836770Y-7975D01*
X836925Y-6100D01*
X836770Y-4225D01*
X836305Y-2558D01*
X835685Y-1308D01*
X834755Y-267D01*
X833515Y150D01*
G01X843122Y-12767D02*
X848702Y150D01*
G01X856294Y-8183D02*
X860323D01*
G01X870705Y150D02*
X869465Y-267D01*
X868536Y-1308D01*
X867916Y-2558D01*
X867451Y-4225D01*
X867296Y-6100D01*
X867451Y-7975D01*
X867916Y-9642D01*
X868536Y-10892D01*
X869465Y-11933D01*
X870705Y-12350D01*
X871945Y-11933D01*
X872875Y-10892D01*
X873495Y-9642D01*
X873960Y-7975D01*
X874115Y-6100D01*
X873960Y-4225D01*
X873495Y-2558D01*
X872875Y-1308D01*
X871945Y-267D01*
X870705Y150D01*
G01X883102Y-12767D02*
X882792Y-12558D01*
Y-12142D01*
X883102Y-11933D01*
X883412Y-12142D01*
Y-12558D01*
X883102Y-12767D01*
G01X895499Y150D02*
X894259Y-267D01*
X893329Y-1308D01*
X892709Y-2558D01*
X892244Y-4225D01*
X892090Y-6100D01*
X892244Y-7975D01*
X892709Y-9642D01*
X893329Y-10892D01*
X894259Y-11933D01*
X895499Y-12350D01*
X896739Y-11933D01*
X897669Y-10892D01*
X898289Y-9642D01*
X898754Y-7975D01*
X898908Y-6100D01*
X898754Y-4225D01*
X898289Y-2558D01*
X897669Y-1308D01*
X896739Y-267D01*
X895499Y150D01*
G01X794620Y16816D02*
X798339D01*
G01X796324Y19525D02*
Y14108D01*
G01X805312Y15150D02*
X806242Y13691D01*
X807481Y12858D01*
X808876Y12650D01*
X810116Y12858D01*
X811356Y13900D01*
X812131Y15150D01*
X812286Y16400D01*
X811976Y17858D01*
X810891Y18900D01*
X809806Y19317D01*
X808411D01*
G01X809806D02*
X810736Y19942D01*
X811511Y20983D01*
X811821Y22233D01*
X811511Y23483D01*
X810736Y24525D01*
X809341Y25150D01*
X807947Y24942D01*
X806552Y24108D01*
G01X821118Y12233D02*
X820808Y12442D01*
Y12858D01*
X821118Y13067D01*
X821428Y12858D01*
Y12442D01*
X821118Y12233D01*
G01X833515Y25150D02*
X832275Y24733D01*
X831345Y23692D01*
X830725Y22442D01*
X830260Y20775D01*
X830106Y18900D01*
X830260Y17025D01*
X830725Y15358D01*
X831345Y14108D01*
X832275Y13067D01*
X833515Y12650D01*
X834755Y13067D01*
X835685Y14108D01*
X836305Y15358D01*
X836770Y17025D01*
X836925Y18900D01*
X836770Y20775D01*
X836305Y22442D01*
X835685Y23692D01*
X834755Y24733D01*
X833515Y25150D01*
G01X843122Y12233D02*
X848702Y25150D01*
G01X856294Y16816D02*
X860323D01*
G01X867296Y15150D02*
X868226Y13691D01*
X869465Y12858D01*
X870860Y12650D01*
X872100Y12858D01*
X873340Y13900D01*
X874115Y15150D01*
X874270Y16400D01*
X873960Y17858D01*
X872875Y18900D01*
X871790Y19317D01*
X870395D01*
G01X871790D02*
X872720Y19942D01*
X873495Y20983D01*
X873805Y22233D01*
X873495Y23483D01*
X872720Y24525D01*
X871325Y25150D01*
X869931Y24942D01*
X868536Y24108D01*
G01X883102Y12233D02*
X882792Y12442D01*
Y12858D01*
X883102Y13067D01*
X883412Y12858D01*
Y12442D01*
X883102Y12233D01*
G01X895499Y25150D02*
X894259Y24733D01*
X893329Y23692D01*
X892709Y22442D01*
X892244Y20775D01*
X892090Y18900D01*
X892244Y17025D01*
X892709Y15358D01*
X893329Y14108D01*
X894259Y13067D01*
X895499Y12650D01*
X896739Y13067D01*
X897669Y14108D01*
X898289Y15358D01*
X898754Y17025D01*
X898908Y18900D01*
X898754Y20775D01*
X898289Y22442D01*
X897669Y23692D01*
X896739Y24733D01*
X895499Y25150D01*
G01X794620Y41816D02*
X798339D01*
G01X796324Y44525D02*
Y39108D01*
G01X808721Y50150D02*
X807481Y49733D01*
X806552Y48692D01*
X805932Y47442D01*
X805467Y45775D01*
X805312Y43900D01*
X805467Y42025D01*
X805932Y40358D01*
X806552Y39108D01*
X807481Y38067D01*
X808721Y37650D01*
X809961Y38067D01*
X810891Y39108D01*
X811511Y40358D01*
X811976Y42025D01*
X812131Y43900D01*
X811976Y45775D01*
X811511Y47442D01*
X810891Y48692D01*
X809961Y49733D01*
X808721Y50150D01*
G01X821118Y37233D02*
X820808Y37442D01*
Y37858D01*
X821118Y38067D01*
X821428Y37858D01*
Y37442D01*
X821118Y37233D01*
G01X833515Y50150D02*
X832275Y49733D01*
X831345Y48692D01*
X830725Y47442D01*
X830260Y45775D01*
X830106Y43900D01*
X830260Y42025D01*
X830725Y40358D01*
X831345Y39108D01*
X832275Y38067D01*
X833515Y37650D01*
X834755Y38067D01*
X835685Y39108D01*
X836305Y40358D01*
X836770Y42025D01*
X836925Y43900D01*
X836770Y45775D01*
X836305Y47442D01*
X835685Y48692D01*
X834755Y49733D01*
X833515Y50150D01*
G01X843122Y37233D02*
X848702Y50150D01*
G01X856294Y41816D02*
X860323D01*
G01X870705Y50150D02*
X869465Y49733D01*
X868536Y48692D01*
X867916Y47442D01*
X867451Y45775D01*
X867296Y43900D01*
X867451Y42025D01*
X867916Y40358D01*
X868536Y39108D01*
X869465Y38067D01*
X870705Y37650D01*
X871945Y38067D01*
X872875Y39108D01*
X873495Y40358D01*
X873960Y42025D01*
X874115Y43900D01*
X873960Y45775D01*
X873495Y47442D01*
X872875Y48692D01*
X871945Y49733D01*
X870705Y50150D01*
G01X883102Y37233D02*
X882792Y37442D01*
Y37858D01*
X883102Y38067D01*
X883412Y37858D01*
Y37442D01*
X883102Y37233D01*
G01X895499Y50150D02*
X894259Y49733D01*
X893329Y48692D01*
X892709Y47442D01*
X892244Y45775D01*
X892090Y43900D01*
X892244Y42025D01*
X892709Y40358D01*
X893329Y39108D01*
X894259Y38067D01*
X895499Y37650D01*
X896739Y38067D01*
X897669Y39108D01*
X898289Y40358D01*
X898754Y42025D01*
X898908Y43900D01*
X898754Y45775D01*
X898289Y47442D01*
X897669Y48692D01*
X896739Y49733D01*
X895499Y50150D01*
G01X794620Y66816D02*
X798339D01*
G01X796324Y69525D02*
Y64108D01*
G01X808721Y75150D02*
X807481Y74733D01*
X806552Y73692D01*
X805932Y72442D01*
X805467Y70775D01*
X805312Y68900D01*
X805467Y67025D01*
X805932Y65358D01*
X806552Y64108D01*
X807481Y63067D01*
X808721Y62650D01*
X809961Y63067D01*
X810891Y64108D01*
X811511Y65358D01*
X811976Y67025D01*
X812131Y68900D01*
X811976Y70775D01*
X811511Y72442D01*
X810891Y73692D01*
X809961Y74733D01*
X808721Y75150D01*
G01X821118Y62233D02*
X820808Y62442D01*
Y62858D01*
X821118Y63067D01*
X821428Y62858D01*
Y62442D01*
X821118Y62233D01*
G01X833515Y75150D02*
X832275Y74733D01*
X831345Y73692D01*
X830725Y72442D01*
X830260Y70775D01*
X830106Y68900D01*
X830260Y67025D01*
X830725Y65358D01*
X831345Y64108D01*
X832275Y63067D01*
X833515Y62650D01*
X834755Y63067D01*
X835685Y64108D01*
X836305Y65358D01*
X836770Y67025D01*
X836925Y68900D01*
X836770Y70775D01*
X836305Y72442D01*
X835685Y73692D01*
X834755Y74733D01*
X833515Y75150D01*
G01X843122Y62233D02*
X848702Y75150D01*
G01X856294Y66816D02*
X860323D01*
G01X870705Y75150D02*
X869465Y74733D01*
X868536Y73692D01*
X867916Y72442D01*
X867451Y70775D01*
X867296Y68900D01*
X867451Y67025D01*
X867916Y65358D01*
X868536Y64108D01*
X869465Y63067D01*
X870705Y62650D01*
X871945Y63067D01*
X872875Y64108D01*
X873495Y65358D01*
X873960Y67025D01*
X874115Y68900D01*
X873960Y70775D01*
X873495Y72442D01*
X872875Y73692D01*
X871945Y74733D01*
X870705Y75150D01*
G01X883102Y62233D02*
X882792Y62442D01*
Y62858D01*
X883102Y63067D01*
X883412Y62858D01*
Y62442D01*
X883102Y62233D01*
G01X895499Y75150D02*
X894259Y74733D01*
X893329Y73692D01*
X892709Y72442D01*
X892244Y70775D01*
X892090Y68900D01*
X892244Y67025D01*
X892709Y65358D01*
X893329Y64108D01*
X894259Y63067D01*
X895499Y62650D01*
X896739Y63067D01*
X897669Y64108D01*
X898289Y65358D01*
X898754Y67025D01*
X898908Y68900D01*
X898754Y70775D01*
X898289Y72442D01*
X897669Y73692D01*
X896739Y74733D01*
X895499Y75150D01*
G01X794620Y91816D02*
X798339D01*
G01X796324Y94525D02*
Y89108D01*
G01X808721Y100150D02*
X807481Y99733D01*
X806552Y98692D01*
X805932Y97442D01*
X805467Y95775D01*
X805312Y93900D01*
X805467Y92025D01*
X805932Y90358D01*
X806552Y89108D01*
X807481Y88067D01*
X808721Y87650D01*
X809961Y88067D01*
X810891Y89108D01*
X811511Y90358D01*
X811976Y92025D01*
X812131Y93900D01*
X811976Y95775D01*
X811511Y97442D01*
X810891Y98692D01*
X809961Y99733D01*
X808721Y100150D01*
G01X821118Y87233D02*
X820808Y87442D01*
Y87858D01*
X821118Y88067D01*
X821428Y87858D01*
Y87442D01*
X821118Y87233D01*
G01X833515Y100150D02*
X832275Y99733D01*
X831345Y98692D01*
X830725Y97442D01*
X830260Y95775D01*
X830106Y93900D01*
X830260Y92025D01*
X830725Y90358D01*
X831345Y89108D01*
X832275Y88067D01*
X833515Y87650D01*
X834755Y88067D01*
X835685Y89108D01*
X836305Y90358D01*
X836770Y92025D01*
X836925Y93900D01*
X836770Y95775D01*
X836305Y97442D01*
X835685Y98692D01*
X834755Y99733D01*
X833515Y100150D01*
G01X843122Y87233D02*
X848702Y100150D01*
G01X856294Y91816D02*
X860323D01*
G01X870705Y100150D02*
X869465Y99733D01*
X868536Y98692D01*
X867916Y97442D01*
X867451Y95775D01*
X867296Y93900D01*
X867451Y92025D01*
X867916Y90358D01*
X868536Y89108D01*
X869465Y88067D01*
X870705Y87650D01*
X871945Y88067D01*
X872875Y89108D01*
X873495Y90358D01*
X873960Y92025D01*
X874115Y93900D01*
X873960Y95775D01*
X873495Y97442D01*
X872875Y98692D01*
X871945Y99733D01*
X870705Y100150D01*
G01X883102Y87233D02*
X882792Y87442D01*
Y87858D01*
X883102Y88067D01*
X883412Y87858D01*
Y87442D01*
X883102Y87233D01*
G01X895499Y100150D02*
X894259Y99733D01*
X893329Y98692D01*
X892709Y97442D01*
X892244Y95775D01*
X892090Y93900D01*
X892244Y92025D01*
X892709Y90358D01*
X893329Y89108D01*
X894259Y88067D01*
X895499Y87650D01*
X896739Y88067D01*
X897669Y89108D01*
X898289Y90358D01*
X898754Y92025D01*
X898908Y93900D01*
X898754Y95775D01*
X898289Y97442D01*
X897669Y98692D01*
X896739Y99733D01*
X895499Y100150D01*
G01X794620Y116816D02*
X798339D01*
G01X796324Y119525D02*
Y114108D01*
G01X808721Y125150D02*
X807481Y124733D01*
X806552Y123692D01*
X805932Y122442D01*
X805467Y120775D01*
X805312Y118900D01*
X805467Y117025D01*
X805932Y115358D01*
X806552Y114108D01*
X807481Y113067D01*
X808721Y112650D01*
X809961Y113067D01*
X810891Y114108D01*
X811511Y115358D01*
X811976Y117025D01*
X812131Y118900D01*
X811976Y120775D01*
X811511Y122442D01*
X810891Y123692D01*
X809961Y124733D01*
X808721Y125150D01*
G01X821118Y112233D02*
X820808Y112442D01*
Y112858D01*
X821118Y113067D01*
X821428Y112858D01*
Y112442D01*
X821118Y112233D01*
G01X833515Y125150D02*
X832275Y124733D01*
X831345Y123692D01*
X830725Y122442D01*
X830260Y120775D01*
X830106Y118900D01*
X830260Y117025D01*
X830725Y115358D01*
X831345Y114108D01*
X832275Y113067D01*
X833515Y112650D01*
X834755Y113067D01*
X835685Y114108D01*
X836305Y115358D01*
X836770Y117025D01*
X836925Y118900D01*
X836770Y120775D01*
X836305Y122442D01*
X835685Y123692D01*
X834755Y124733D01*
X833515Y125150D01*
G01X843122Y112233D02*
X848702Y125150D01*
G01X856294Y116816D02*
X860323D01*
G01X870705Y125150D02*
X869465Y124733D01*
X868536Y123692D01*
X867916Y122442D01*
X867451Y120775D01*
X867296Y118900D01*
X867451Y117025D01*
X867916Y115358D01*
X868536Y114108D01*
X869465Y113067D01*
X870705Y112650D01*
X871945Y113067D01*
X872875Y114108D01*
X873495Y115358D01*
X873960Y117025D01*
X874115Y118900D01*
X873960Y120775D01*
X873495Y122442D01*
X872875Y123692D01*
X871945Y124733D01*
X870705Y125150D01*
G01X883102Y112233D02*
X882792Y112442D01*
Y112858D01*
X883102Y113067D01*
X883412Y112858D01*
Y112442D01*
X883102Y112233D01*
G01X895499Y125150D02*
X894259Y124733D01*
X893329Y123692D01*
X892709Y122442D01*
X892244Y120775D01*
X892090Y118900D01*
X892244Y117025D01*
X892709Y115358D01*
X893329Y114108D01*
X894259Y113067D01*
X895499Y112650D01*
X896739Y113067D01*
X897669Y114108D01*
X898289Y115358D01*
X898754Y117025D01*
X898908Y118900D01*
X898754Y120775D01*
X898289Y122442D01*
X897669Y123692D01*
X896739Y124733D01*
X895499Y125150D01*
G01X794620Y141816D02*
X798339D01*
G01X796324Y144525D02*
Y139108D01*
G01X808721Y150150D02*
X807481Y149733D01*
X806552Y148692D01*
X805932Y147442D01*
X805467Y145775D01*
X805312Y143900D01*
X805467Y142025D01*
X805932Y140358D01*
X806552Y139108D01*
X807481Y138067D01*
X808721Y137650D01*
X809961Y138067D01*
X810891Y139108D01*
X811511Y140358D01*
X811976Y142025D01*
X812131Y143900D01*
X811976Y145775D01*
X811511Y147442D01*
X810891Y148692D01*
X809961Y149733D01*
X808721Y150150D01*
G01X821118Y137233D02*
X820808Y137442D01*
Y137858D01*
X821118Y138067D01*
X821428Y137858D01*
Y137442D01*
X821118Y137233D01*
G01X833515Y150150D02*
X832275Y149733D01*
X831345Y148692D01*
X830725Y147442D01*
X830260Y145775D01*
X830106Y143900D01*
X830260Y142025D01*
X830725Y140358D01*
X831345Y139108D01*
X832275Y138067D01*
X833515Y137650D01*
X834755Y138067D01*
X835685Y139108D01*
X836305Y140358D01*
X836770Y142025D01*
X836925Y143900D01*
X836770Y145775D01*
X836305Y147442D01*
X835685Y148692D01*
X834755Y149733D01*
X833515Y150150D01*
G01X843122Y137233D02*
X848702Y150150D01*
G01X856294Y141816D02*
X860323D01*
G01X870705Y150150D02*
X869465Y149733D01*
X868536Y148692D01*
X867916Y147442D01*
X867451Y145775D01*
X867296Y143900D01*
X867451Y142025D01*
X867916Y140358D01*
X868536Y139108D01*
X869465Y138067D01*
X870705Y137650D01*
X871945Y138067D01*
X872875Y139108D01*
X873495Y140358D01*
X873960Y142025D01*
X874115Y143900D01*
X873960Y145775D01*
X873495Y147442D01*
X872875Y148692D01*
X871945Y149733D01*
X870705Y150150D01*
G01X883102Y137233D02*
X882792Y137442D01*
Y137858D01*
X883102Y138067D01*
X883412Y137858D01*
Y137442D01*
X883102Y137233D01*
G01X895499Y150150D02*
X894259Y149733D01*
X893329Y148692D01*
X892709Y147442D01*
X892244Y145775D01*
X892090Y143900D01*
X892244Y142025D01*
X892709Y140358D01*
X893329Y139108D01*
X894259Y138067D01*
X895499Y137650D01*
X896739Y138067D01*
X897669Y139108D01*
X898289Y140358D01*
X898754Y142025D01*
X898908Y143900D01*
X898754Y145775D01*
X898289Y147442D01*
X897669Y148692D01*
X896739Y149733D01*
X895499Y150150D01*
G01X794620Y166816D02*
X798339D01*
G01X796324Y169525D02*
Y164108D01*
G01X808721Y175150D02*
X807481Y174733D01*
X806552Y173692D01*
X805932Y172442D01*
X805467Y170775D01*
X805312Y168900D01*
X805467Y167025D01*
X805932Y165358D01*
X806552Y164108D01*
X807481Y163067D01*
X808721Y162650D01*
X809961Y163067D01*
X810891Y164108D01*
X811511Y165358D01*
X811976Y167025D01*
X812131Y168900D01*
X811976Y170775D01*
X811511Y172442D01*
X810891Y173692D01*
X809961Y174733D01*
X808721Y175150D01*
G01X821118Y162233D02*
X820808Y162442D01*
Y162858D01*
X821118Y163067D01*
X821428Y162858D01*
Y162442D01*
X821118Y162233D01*
G01X833515Y175150D02*
X832275Y174733D01*
X831345Y173692D01*
X830725Y172442D01*
X830260Y170775D01*
X830106Y168900D01*
X830260Y167025D01*
X830725Y165358D01*
X831345Y164108D01*
X832275Y163067D01*
X833515Y162650D01*
X834755Y163067D01*
X835685Y164108D01*
X836305Y165358D01*
X836770Y167025D01*
X836925Y168900D01*
X836770Y170775D01*
X836305Y172442D01*
X835685Y173692D01*
X834755Y174733D01*
X833515Y175150D01*
G01X843122Y162233D02*
X848702Y175150D01*
G01X856294Y166816D02*
X860323D01*
G01X870705Y175150D02*
X869465Y174733D01*
X868536Y173692D01*
X867916Y172442D01*
X867451Y170775D01*
X867296Y168900D01*
X867451Y167025D01*
X867916Y165358D01*
X868536Y164108D01*
X869465Y163067D01*
X870705Y162650D01*
X871945Y163067D01*
X872875Y164108D01*
X873495Y165358D01*
X873960Y167025D01*
X874115Y168900D01*
X873960Y170775D01*
X873495Y172442D01*
X872875Y173692D01*
X871945Y174733D01*
X870705Y175150D01*
G01X883102Y162233D02*
X882792Y162442D01*
Y162858D01*
X883102Y163067D01*
X883412Y162858D01*
Y162442D01*
X883102Y162233D01*
G01X895499Y175150D02*
X894259Y174733D01*
X893329Y173692D01*
X892709Y172442D01*
X892244Y170775D01*
X892090Y168900D01*
X892244Y167025D01*
X892709Y165358D01*
X893329Y164108D01*
X894259Y163067D01*
X895499Y162650D01*
X896739Y163067D01*
X897669Y164108D01*
X898289Y165358D01*
X898754Y167025D01*
X898908Y168900D01*
X898754Y170775D01*
X898289Y172442D01*
X897669Y173692D01*
X896739Y174733D01*
X895499Y175150D01*
G01X788421Y191816D02*
X792141D01*
G01X790126Y194525D02*
Y189108D01*
G01X802523Y187650D02*
Y200150D01*
X800663Y197650D01*
G01Y187650D02*
X804382D01*
G01X814920Y200150D02*
X813680Y199733D01*
X812750Y198692D01*
X812130Y197442D01*
X811665Y195775D01*
X811510Y193900D01*
X811665Y192025D01*
X812130Y190358D01*
X812750Y189108D01*
X813680Y188067D01*
X814920Y187650D01*
X816160Y188067D01*
X817090Y189108D01*
X817710Y190358D01*
X818174Y192025D01*
X818329Y193900D01*
X818174Y195775D01*
X817710Y197442D01*
X817090Y198692D01*
X816160Y199733D01*
X814920Y200150D01*
G01X827316Y187233D02*
X827007Y187442D01*
Y187858D01*
X827316Y188067D01*
X827627Y187858D01*
Y187442D01*
X827316Y187233D01*
G01X839713Y200150D02*
X838473Y199733D01*
X837544Y198692D01*
X836924Y197442D01*
X836459Y195775D01*
X836304Y193900D01*
X836459Y192025D01*
X836924Y190358D01*
X837544Y189108D01*
X838473Y188067D01*
X839713Y187650D01*
X840953Y188067D01*
X841883Y189108D01*
X842503Y190358D01*
X842968Y192025D01*
X843123Y193900D01*
X842968Y195775D01*
X842503Y197442D01*
X841883Y198692D01*
X840953Y199733D01*
X839713Y200150D01*
G01X849320Y187233D02*
X854900Y200150D01*
G01X862492Y191816D02*
X866522D01*
G01X876904Y200150D02*
X875664Y199733D01*
X874734Y198692D01*
X874114Y197442D01*
X873649Y195775D01*
X873494Y193900D01*
X873649Y192025D01*
X874114Y190358D01*
X874734Y189108D01*
X875664Y188067D01*
X876904Y187650D01*
X878144Y188067D01*
X879074Y189108D01*
X879694Y190358D01*
X880158Y192025D01*
X880313Y193900D01*
X880158Y195775D01*
X879694Y197442D01*
X879074Y198692D01*
X878144Y199733D01*
X876904Y200150D01*
G01X889300Y187233D02*
X888991Y187442D01*
Y187858D01*
X889300Y188067D01*
X889611Y187858D01*
Y187442D01*
X889300Y187233D01*
G01X901697Y200150D02*
X900457Y199733D01*
X899528Y198692D01*
X898908Y197442D01*
X898443Y195775D01*
X898288Y193900D01*
X898443Y192025D01*
X898908Y190358D01*
X899528Y189108D01*
X900457Y188067D01*
X901697Y187650D01*
X902937Y188067D01*
X903867Y189108D01*
X904487Y190358D01*
X904952Y192025D01*
X905107Y193900D01*
X904952Y195775D01*
X904487Y197442D01*
X903867Y198692D01*
X902937Y199733D01*
X901697Y200150D01*
G01X946635Y231400D02*
Y-68600D01*
G01X976077Y-62350D02*
Y-49850D01*
X979796D01*
X981036Y-50475D01*
X981966Y-51933D01*
X982276Y-53600D01*
X981966Y-55267D01*
X981191Y-56517D01*
X979796Y-57142D01*
X976077D01*
G01X988473Y-49850D02*
Y-62350D01*
X994673D01*
G01X1000095D02*
X1003970Y-49850D01*
X1007844Y-62350D01*
G01X1006449Y-57975D02*
X1001490D01*
G01X1016367Y-49850D02*
Y-62350D01*
G01X1012802Y-49850D02*
X1019931D01*
G01X1031863Y-62350D02*
X1025664D01*
Y-49850D01*
X1031863D01*
G01X1029383Y-55891D02*
X1025664D01*
G01X1037751Y-62350D02*
Y-49850D01*
X1040850D01*
X1042090Y-50475D01*
X1043020Y-51308D01*
X1043795Y-52558D01*
X1044415Y-54017D01*
X1044570Y-56100D01*
X1044415Y-58184D01*
X1043795Y-59642D01*
X1043020Y-60892D01*
X1042090Y-61725D01*
X1040850Y-62350D01*
X1037751D01*
G01X976077Y-37350D02*
Y-24850D01*
X979796D01*
X981036Y-25475D01*
X981966Y-26933D01*
X982276Y-28600D01*
X981966Y-30267D01*
X981191Y-31517D01*
X979796Y-32142D01*
X976077D01*
G01X988473Y-24850D02*
Y-37350D01*
X994673D01*
G01X1000095D02*
X1003970Y-24850D01*
X1007844Y-37350D01*
G01X1006449Y-32975D02*
X1001490D01*
G01X1016367Y-24850D02*
Y-37350D01*
G01X1012802Y-24850D02*
X1019931D01*
G01X1031863Y-37350D02*
X1025664D01*
Y-24850D01*
X1031863D01*
G01X1029383Y-30892D02*
X1025664D01*
G01X1037751Y-37350D02*
Y-24850D01*
X1040850D01*
X1042090Y-25475D01*
X1043020Y-26308D01*
X1043795Y-27558D01*
X1044415Y-29017D01*
X1044570Y-31100D01*
X1044415Y-33184D01*
X1043795Y-34642D01*
X1043020Y-35892D01*
X1042090Y-36725D01*
X1040850Y-37350D01*
X1037751D01*
G01X976077Y-12350D02*
Y150D01*
X979796D01*
X981036Y-475D01*
X981966Y-1933D01*
X982276Y-3600D01*
X981966Y-5267D01*
X981191Y-6517D01*
X979796Y-7142D01*
X976077D01*
G01X988473Y150D02*
Y-12350D01*
X994673D01*
G01X1000095D02*
X1003970Y150D01*
X1007844Y-12350D01*
G01X1006449Y-7975D02*
X1001490D01*
G01X1016367Y150D02*
Y-12350D01*
G01X1012802Y150D02*
X1019931D01*
G01X1031863Y-12350D02*
X1025664D01*
Y150D01*
X1031863D01*
G01X1029383Y-5892D02*
X1025664D01*
G01X1037751Y-12350D02*
Y150D01*
X1040850D01*
X1042090Y-475D01*
X1043020Y-1308D01*
X1043795Y-2558D01*
X1044415Y-4017D01*
X1044570Y-6100D01*
X1044415Y-8183D01*
X1043795Y-9642D01*
X1043020Y-10892D01*
X1042090Y-11725D01*
X1040850Y-12350D01*
X1037751D01*
G01X976077Y12650D02*
Y25150D01*
X979796D01*
X981036Y24525D01*
X981966Y23067D01*
X982276Y21400D01*
X981966Y19733D01*
X981191Y18483D01*
X979796Y17858D01*
X976077D01*
G01X988473Y25150D02*
Y12650D01*
X994673D01*
G01X1000095D02*
X1003970Y25150D01*
X1007844Y12650D01*
G01X1006449Y17025D02*
X1001490D01*
G01X1016367Y25150D02*
Y12650D01*
G01X1012802Y25150D02*
X1019931D01*
G01X1031863Y12650D02*
X1025664D01*
Y25150D01*
X1031863D01*
G01X1029383Y19108D02*
X1025664D01*
G01X1037751Y12650D02*
Y25150D01*
X1040850D01*
X1042090Y24525D01*
X1043020Y23692D01*
X1043795Y22442D01*
X1044415Y20983D01*
X1044570Y18900D01*
X1044415Y16816D01*
X1043795Y15358D01*
X1043020Y14108D01*
X1042090Y13275D01*
X1040850Y12650D01*
X1037751D01*
G01X976077Y37650D02*
Y50150D01*
X979796D01*
X981036Y49525D01*
X981966Y48067D01*
X982276Y46400D01*
X981966Y44733D01*
X981191Y43483D01*
X979796Y42858D01*
X976077D01*
G01X988473Y50150D02*
Y37650D01*
X994673D01*
G01X1000095D02*
X1003970Y50150D01*
X1007844Y37650D01*
G01X1006449Y42025D02*
X1001490D01*
G01X1016367Y50150D02*
Y37650D01*
G01X1012802Y50150D02*
X1019931D01*
G01X1031863Y37650D02*
X1025664D01*
Y50150D01*
X1031863D01*
G01X1029383Y44108D02*
X1025664D01*
G01X1037751Y37650D02*
Y50150D01*
X1040850D01*
X1042090Y49525D01*
X1043020Y48692D01*
X1043795Y47442D01*
X1044415Y45983D01*
X1044570Y43900D01*
X1044415Y41816D01*
X1043795Y40358D01*
X1043020Y39108D01*
X1042090Y38275D01*
X1040850Y37650D01*
X1037751D01*
G01X976077Y62650D02*
Y75150D01*
X979796D01*
X981036Y74525D01*
X981966Y73067D01*
X982276Y71400D01*
X981966Y69733D01*
X981191Y68483D01*
X979796Y67858D01*
X976077D01*
G01X988473Y75150D02*
Y62650D01*
X994673D01*
G01X1000095D02*
X1003970Y75150D01*
X1007844Y62650D01*
G01X1006449Y67025D02*
X1001490D01*
G01X1016367Y75150D02*
Y62650D01*
G01X1012802Y75150D02*
X1019931D01*
G01X1031863Y62650D02*
X1025664D01*
Y75150D01*
X1031863D01*
G01X1029383Y69108D02*
X1025664D01*
G01X1037751Y62650D02*
Y75150D01*
X1040850D01*
X1042090Y74525D01*
X1043020Y73692D01*
X1043795Y72442D01*
X1044415Y70983D01*
X1044570Y68900D01*
X1044415Y66816D01*
X1043795Y65358D01*
X1043020Y64108D01*
X1042090Y63275D01*
X1040850Y62650D01*
X1037751D01*
G01X976077Y87650D02*
Y100150D01*
X979796D01*
X981036Y99525D01*
X981966Y98067D01*
X982276Y96400D01*
X981966Y94733D01*
X981191Y93483D01*
X979796Y92858D01*
X976077D01*
G01X988473Y100150D02*
Y87650D01*
X994673D01*
G01X1000095D02*
X1003970Y100150D01*
X1007844Y87650D01*
G01X1006449Y92025D02*
X1001490D01*
G01X1016367Y100150D02*
Y87650D01*
G01X1012802Y100150D02*
X1019931D01*
G01X1031863Y87650D02*
X1025664D01*
Y100150D01*
X1031863D01*
G01X1029383Y94108D02*
X1025664D01*
G01X1037751Y87650D02*
Y100150D01*
X1040850D01*
X1042090Y99525D01*
X1043020Y98692D01*
X1043795Y97442D01*
X1044415Y95983D01*
X1044570Y93900D01*
X1044415Y91816D01*
X1043795Y90358D01*
X1043020Y89108D01*
X1042090Y88275D01*
X1040850Y87650D01*
X1037751D01*
G01X976077Y112650D02*
Y125150D01*
X979796D01*
X981036Y124525D01*
X981966Y123067D01*
X982276Y121400D01*
X981966Y119733D01*
X981191Y118483D01*
X979796Y117858D01*
X976077D01*
G01X988473Y125150D02*
Y112650D01*
X994673D01*
G01X1000095D02*
X1003970Y125150D01*
X1007844Y112650D01*
G01X1006449Y117025D02*
X1001490D01*
G01X1016367Y125150D02*
Y112650D01*
G01X1012802Y125150D02*
X1019931D01*
G01X1031863Y112650D02*
X1025664D01*
Y125150D01*
X1031863D01*
G01X1029383Y119109D02*
X1025664D01*
G01X1037751Y112650D02*
Y125150D01*
X1040850D01*
X1042090Y124525D01*
X1043020Y123692D01*
X1043795Y122442D01*
X1044415Y120983D01*
X1044570Y118900D01*
X1044415Y116816D01*
X1043795Y115358D01*
X1043020Y114108D01*
X1042090Y113275D01*
X1040850Y112650D01*
X1037751D01*
G01X976077Y137650D02*
Y150150D01*
X979796D01*
X981036Y149525D01*
X981966Y148067D01*
X982276Y146400D01*
X981966Y144733D01*
X981191Y143483D01*
X979796Y142858D01*
X976077D01*
G01X988473Y150150D02*
Y137650D01*
X994673D01*
G01X1000095D02*
X1003970Y150150D01*
X1007844Y137650D01*
G01X1006449Y142025D02*
X1001490D01*
G01X1016367Y150150D02*
Y137650D01*
G01X1012802Y150150D02*
X1019931D01*
G01X1031863Y137650D02*
X1025664D01*
Y150150D01*
X1031863D01*
G01X1029383Y144109D02*
X1025664D01*
G01X1037751Y137650D02*
Y150150D01*
X1040850D01*
X1042090Y149525D01*
X1043020Y148692D01*
X1043795Y147442D01*
X1044415Y145983D01*
X1044570Y143900D01*
X1044415Y141816D01*
X1043795Y140358D01*
X1043020Y139108D01*
X1042090Y138275D01*
X1040850Y137650D01*
X1037751D01*
G01X976077Y162650D02*
Y175150D01*
X979796D01*
X981036Y174525D01*
X981966Y173067D01*
X982276Y171400D01*
X981966Y169733D01*
X981191Y168483D01*
X979796Y167858D01*
X976077D01*
G01X988473Y175150D02*
Y162650D01*
X994673D01*
G01X1000095D02*
X1003970Y175150D01*
X1007844Y162650D01*
G01X1006449Y167025D02*
X1001490D01*
G01X1016367Y175150D02*
Y162650D01*
G01X1012802Y175150D02*
X1019931D01*
G01X1031863Y162650D02*
X1025664D01*
Y175150D01*
X1031863D01*
G01X1029383Y169109D02*
X1025664D01*
G01X1037751Y162650D02*
Y175150D01*
X1040850D01*
X1042090Y174525D01*
X1043020Y173692D01*
X1043795Y172442D01*
X1044415Y170983D01*
X1044570Y168900D01*
X1044415Y166816D01*
X1043795Y165358D01*
X1043020Y164108D01*
X1042090Y163275D01*
X1040850Y162650D01*
X1037751D01*
G01X976077Y187650D02*
Y200150D01*
X979796D01*
X981036Y199525D01*
X981966Y198067D01*
X982276Y196400D01*
X981966Y194733D01*
X981191Y193483D01*
X979796Y192858D01*
X976077D01*
G01X988473Y200150D02*
Y187650D01*
X994673D01*
G01X1000095D02*
X1003970Y200150D01*
X1007844Y187650D01*
G01X1006449Y192025D02*
X1001490D01*
G01X1016367Y200150D02*
Y187650D01*
G01X1012802Y200150D02*
X1019931D01*
G01X1031863Y187650D02*
X1025664D01*
Y200150D01*
X1031863D01*
G01X1029383Y194109D02*
X1025664D01*
G01X1037751Y187650D02*
Y200150D01*
X1040850D01*
X1042090Y199525D01*
X1043020Y198692D01*
X1043795Y197442D01*
X1044415Y195983D01*
X1044570Y193900D01*
X1044415Y191816D01*
X1043795Y190358D01*
X1043020Y189108D01*
X1042090Y188275D01*
X1040850Y187650D01*
X1037751D01*
G01X976077Y212650D02*
Y225150D01*
X979796D01*
X981036Y224525D01*
X981966Y223067D01*
X982276Y221400D01*
X981966Y219733D01*
X981191Y218483D01*
X979796Y217858D01*
X976077D01*
G01X988473Y225150D02*
Y212650D01*
X994673D01*
G01X1000095D02*
X1003970Y225150D01*
X1007844Y212650D01*
G01X1006449Y217025D02*
X1001490D01*
G01X1016367Y225150D02*
Y212650D01*
G01X1012802Y225150D02*
X1019931D01*
G01X1031863Y212650D02*
X1025664D01*
Y225150D01*
X1031863D01*
G01X1029383Y219109D02*
X1025664D01*
G01X1037751Y212650D02*
Y225150D01*
X1040850D01*
X1042090Y224525D01*
X1043020Y223692D01*
X1043795Y222442D01*
X1044415Y220983D01*
X1044570Y218900D01*
X1044415Y216816D01*
X1043795Y215358D01*
X1043020Y214108D01*
X1042090Y213275D01*
X1040850Y212650D01*
X1037751D01*
G01X1073701Y231400D02*
Y-68600D01*
G01X1106242Y137650D02*
Y150150D01*
X1104382Y147650D01*
G01Y137650D02*
X1108102D01*
G01X1118639D02*
Y150150D01*
X1116779Y147650D01*
G01Y137650D02*
X1120498D01*
G01X1100044Y187650D02*
Y200150D01*
X1098184Y197650D01*
G01Y187650D02*
X1101903D01*
G01X1109496Y198067D02*
X1110426Y199316D01*
X1111511Y199942D01*
X1112751Y200150D01*
X1114300Y199733D01*
X1115385Y198692D01*
X1115695Y197442D01*
X1115540Y196191D01*
X1114920Y195150D01*
X1111821Y193067D01*
X1110426Y191608D01*
X1109496Y189525D01*
X1109186Y187650D01*
X1115695D01*
G01X1121428Y190150D02*
X1122358Y188691D01*
X1123597Y187858D01*
X1124992Y187650D01*
X1126232Y187858D01*
X1127472Y188900D01*
X1128247Y190150D01*
X1128402Y191400D01*
X1128092Y192858D01*
X1127007Y193900D01*
X1125922Y194317D01*
X1124527D01*
G01X1125922D02*
X1126852Y194942D01*
X1127627Y195983D01*
X1127937Y197233D01*
X1127627Y198483D01*
X1126852Y199525D01*
X1125457Y200150D01*
X1124062Y199942D01*
X1122668Y199108D01*
G01X1100044Y212650D02*
X1098804Y212858D01*
X1097719Y213691D01*
X1096789Y214942D01*
X1096169Y216400D01*
X1095859Y218067D01*
Y219733D01*
X1096169Y221400D01*
X1096789Y222858D01*
X1097719Y224108D01*
X1098804Y224942D01*
X1100044Y225150D01*
X1101284Y224942D01*
X1102368Y224108D01*
X1103298Y222858D01*
X1103918Y221400D01*
X1104228Y219733D01*
Y218067D01*
X1103918Y216400D01*
X1103298Y214942D01*
X1102368Y213691D01*
X1101284Y212858D01*
X1100044Y212650D01*
G01X1101284Y215983D02*
X1103143Y212650D01*
G01X1112441Y225150D02*
Y212650D01*
G01X1108876Y225150D02*
X1116005D01*
G01X1124837Y212650D02*
Y218275D01*
X1121738Y225150D01*
G01X1127937D02*
X1124837Y218275D01*
G01X1109496Y-51933D02*
X1110426Y-50684D01*
X1111511Y-50058D01*
X1112751Y-49850D01*
X1114300Y-50267D01*
X1115385Y-51308D01*
X1115695Y-52558D01*
X1115540Y-53809D01*
X1114920Y-54850D01*
X1111821Y-56933D01*
X1110426Y-58392D01*
X1109496Y-60475D01*
X1109186Y-62350D01*
X1115695D01*
G01X1109496Y-26933D02*
X1110426Y-25683D01*
X1111511Y-25058D01*
X1112751Y-24850D01*
X1114300Y-25267D01*
X1115385Y-26308D01*
X1115695Y-27558D01*
X1115540Y-28809D01*
X1114920Y-29850D01*
X1111821Y-31933D01*
X1110426Y-33392D01*
X1109496Y-35475D01*
X1109186Y-37350D01*
X1115695D01*
G01X1114300Y-12350D02*
Y150D01*
X1108566Y-8808D01*
X1116315D01*
G01X1114300Y12650D02*
Y25150D01*
X1108566Y16192D01*
X1116315D01*
G01X1114300Y37650D02*
Y50150D01*
X1108566Y41192D01*
X1116315D01*
G01X1114300Y62650D02*
Y75150D01*
X1108566Y66192D01*
X1116315D01*
G01X1112441Y87650D02*
X1113525Y87858D01*
X1114765Y88483D01*
X1115540Y89525D01*
X1115850Y90983D01*
X1115540Y92441D01*
X1114610Y93692D01*
X1113216Y94317D01*
X1111666D01*
X1110736Y94733D01*
X1109961Y95775D01*
X1109651Y97233D01*
X1110116Y98692D01*
X1111201Y99733D01*
X1112441Y100150D01*
X1113680Y99733D01*
X1114765Y98692D01*
X1115230Y97233D01*
X1114920Y95775D01*
X1114145Y94733D01*
X1113216Y94317D01*
X1111666D01*
X1110271Y93692D01*
X1109341Y92441D01*
X1109031Y90983D01*
X1109341Y89525D01*
X1110116Y88483D01*
X1111356Y87858D01*
X1112441Y87650D01*
G01X1114300Y112650D02*
Y125150D01*
X1108566Y116192D01*
X1116315D01*
G01X1109496Y167858D02*
X1110581Y169317D01*
X1111511Y170150D01*
X1112751Y170566D01*
X1113836Y170150D01*
X1114610Y169317D01*
X1115230Y168067D01*
X1115385Y166608D01*
X1115230Y165358D01*
X1114610Y164108D01*
X1113680Y163067D01*
X1112596Y162650D01*
X1111356Y163067D01*
X1110271Y164316D01*
X1109651Y166192D01*
X1109496Y168275D01*
X1109806Y170983D01*
X1110271Y172442D01*
X1111046Y173900D01*
X1112131Y174942D01*
X1113216Y175150D01*
X1114300Y174733D01*
X1115075Y173692D01*
G54D13*
X5748Y101452D03*
X37400Y100000D03*
X26600Y126500D03*
X29500Y141500D03*
X33500D03*
X27200Y145400D03*
Y149000D03*
Y152400D03*
Y158800D03*
Y162400D03*
Y165800D03*
X39400Y169000D03*
X57600Y90000D03*
X44800Y88400D03*
Y100600D03*
X58200Y121600D03*
Y124200D03*
X44000Y111800D03*
X58200Y110800D03*
X62200Y149800D03*
X51600Y142400D03*
Y138600D03*
X62200Y158400D03*
X48200Y176800D03*
Y173800D03*
Y171200D03*
X54000Y179200D03*
X56600Y179400D03*
X43400Y169000D03*
X51200Y165200D03*
X60600Y162800D03*
X61800Y189000D03*
X54400Y191200D03*
X58900Y186500D03*
X51200Y181000D03*
X43600Y181600D03*
X60600Y180600D03*
X70200Y90000D03*
X81200Y124000D03*
X85200Y122600D03*
X68600Y149800D03*
X65400Y154100D03*
X81400Y156600D03*
X68800Y158400D03*
X82800Y187600D03*
X76000Y183400D03*
Y186200D03*
Y189000D03*
X81600Y191337D03*
X93800Y100000D03*
Y91400D03*
X92200Y118400D03*
X94000Y113800D03*
X96200Y117200D03*
X109200Y112600D03*
X90400Y138600D03*
X105000D03*
X125600Y114800D03*
X113800Y115000D03*
X128400Y148800D03*
Y152000D03*
X128500Y155500D03*
X115600Y146000D03*
Y152400D03*
X114400Y135600D03*
X115600Y160200D03*
Y166600D03*
X128500Y167100D03*
X112000Y185000D03*
X134500Y110500D03*
X148000Y90800D03*
X138600Y99400D03*
X141500Y107500D03*
X145200Y113000D03*
X144800Y115600D03*
X146000Y153200D03*
X155500Y166500D03*
X170400Y97000D03*
X172600Y98600D03*
X164000Y133200D03*
X178400Y130400D03*
X175587Y152613D03*
X161600Y147600D03*
X161413Y169587D03*
X193200Y80800D03*
X201400Y90200D03*
X193600Y107000D03*
X181400Y95600D03*
X193600Y119000D03*
X181500Y156300D03*
X194200Y144800D03*
X199000D03*
X192800Y140200D03*
X190000D03*
X193800Y157200D03*
X199000Y157400D03*
X204000Y107000D03*
X224200Y114600D03*
X224400Y110600D03*
X204200Y131600D03*
X211800Y128600D03*
X211600Y124600D03*
X217000Y124400D03*
X222000D03*
X221800Y128800D03*
X217000D03*
X214382Y130418D03*
X205800Y124000D03*
X204200Y135000D03*
X203800Y144800D03*
X222000Y156200D03*
X204400Y157200D03*
X209200D03*
X221800Y162800D03*
Y168600D03*
Y177000D03*
X233200Y155400D03*
X227000Y134400D03*
Y138200D03*
X233200Y176800D03*
Y168400D03*
Y162800D03*
X269600Y112000D03*
X371738Y193900D03*
G54D14*
X43307Y40945D03*
Y69291D03*
X232278Y40950D03*
X232289Y69296D03*
X371738Y-6100D03*
G54D15*
X76315Y10500D03*
Y24500D03*
X115685Y10500D03*
Y24500D03*
X371738Y43900D03*
G54D16*
X120634Y88650D03*
Y182350D03*
X212366Y88650D03*
Y182350D03*
X371738Y68900D03*
G54D17*
X128000Y69000D03*
X118000D03*
X138000D03*
X237528Y107000D03*
X249800Y94000D03*
X239800D03*
X229800D03*
X237509Y127000D03*
X237519Y117000D03*
X237500Y137000D03*
X259800Y94000D03*
X371738Y143900D03*
G54D18*
X151500Y184319D03*
X181500D03*
X171500D03*
X161500D03*
X371738Y118900D03*
G54D19*
X261000Y112000D03*
Y132000D03*
Y122000D03*
Y152000D03*
Y142000D03*
Y162000D03*
X371738Y168900D03*
M02*
