G04 ================== begin FILE IDENTIFICATION RECORD ==================*
G04 Layout Name:  C:/Users/ÒÚ¼ÎºÍ/Desktop/COULOMETER/PCB/COULOMETER_BOARD_V1.0.brd*
G04 Film Name:    pastemask_top*
G04 File Format:  Gerber RS274X*
G04 File Origin:  Cadence Allegro 17.2-S007*
G04 Origin Date:  Tue Oct 08 14:54:51 2019*
G04 *
G04 Layer:  PIN/PASTEMASK_TOP*
G04 *
G04 Offset:    (0.000 0.000)*
G04 Mirror:    No*
G04 Mode:      Positive*
G04 Rotation:  0*
G04 FullContactRelief:  No*
G04 UndefLineWidth:     6.000*
G04 ================== end FILE IDENTIFICATION RECORD ====================*
%FSLAX25Y25*MOIN*%
%IR0*IPPOS*OFA0.00000B0.00000*MIA0B0*SFA1.00000B1.00000*%
%ADD25R,.059059X.062988*%
%ADD20R,.105X.09*%
%ADD19R,.095X.122012*%
%ADD24R,.22X.12*%
%ADD27R,.059059X.009839*%
%ADD12R,.02X.025*%
%ADD30R,.009839X.059059*%
%ADD13R,.025X.02*%
%ADD35R,.025X.05*%
%ADD11R,.03X.032012*%
%ADD32R,.05X.025*%
%ADD16R,.05X.07*%
%ADD17R,.07X.025*%
%ADD18R,.032012X.035*%
%ADD26R,.082988X.117988*%
%ADD14R,.035X.032012*%
%ADD28R,.03902X.035*%
%ADD21R,.035X.03902*%
%ADD15R,.055X.095*%
%ADD33R,.02098X.06*%
%ADD23R,.03598X.05*%
%ADD22R,.04724X.04724*%
%ADD31R,.062988X.05*%
%ADD34R,.01378X.060429*%
%ADD10R,.042012X.037988*%
%ADD29R,.0315X.074799*%
%LPD*%
G75*
G54D10*
X5748Y90000D03*
X12252D03*
X5748Y96500D03*
X12252D03*
G54D11*
X22100Y90000D03*
X28100D03*
X22100Y96500D03*
X28100D03*
G54D20*
X54928Y173100D03*
X74872D03*
G54D21*
X75850Y114500D03*
X69150D03*
G54D30*
X167984Y104374D03*
X169953D03*
X171921D03*
X173890D03*
X175858D03*
X177827D03*
X156173D03*
X158142D03*
X160110D03*
X162079D03*
X164047D03*
X166016D03*
X177827Y138626D03*
X175858D03*
X173890D03*
X171921D03*
X169953D03*
X167984D03*
X166016D03*
X164047D03*
X162079D03*
X160110D03*
X158142D03*
X156173D03*
G54D12*
X33500Y130500D03*
Y126500D03*
X29500Y130500D03*
Y126500D03*
X33500Y135000D03*
Y139000D03*
X29500Y135000D03*
Y139000D03*
X54000Y100500D03*
Y104500D03*
Y92000D03*
Y96000D03*
X50000Y100500D03*
Y104500D03*
Y92000D03*
Y96000D03*
X58200Y114500D03*
Y118500D03*
X80600Y117400D03*
Y121400D03*
X80200Y183600D03*
Y187600D03*
X102000Y96000D03*
Y100000D03*
X98000Y96000D03*
Y100000D03*
X106000D03*
Y96000D03*
X113800Y118600D03*
Y122600D03*
X128500Y163000D03*
Y159000D03*
X155400Y91600D03*
Y95600D03*
X155500Y163000D03*
Y159000D03*
X181500D03*
Y163000D03*
X217000Y107400D03*
Y111400D03*
X227000Y118500D03*
Y114500D03*
X241500Y152000D03*
Y148000D03*
G54D31*
X161413Y156768D03*
X175587D03*
Y165232D03*
X161413D03*
G54D22*
X86713Y183463D03*
Y191337D03*
G54D13*
X29500Y117000D03*
X33500D03*
Y112500D03*
X29500D03*
X33500Y121500D03*
X29500D03*
X39600Y172000D03*
X30500D03*
X34500D03*
X44800Y91400D03*
X40800D03*
Y96000D03*
X44800D03*
X49500Y109000D03*
X53500D03*
X49500Y113500D03*
X53500D03*
X43600Y172000D03*
X50400Y183600D03*
X54400D03*
Y188200D03*
X50400D03*
X58900Y183600D03*
X62900D03*
X84800Y118400D03*
X71900Y183600D03*
X67900D03*
X106000Y104500D03*
X102000D03*
X98000Y91400D03*
X102000D03*
X88800Y118400D03*
X91600Y122600D03*
X87600D03*
X109400Y185000D03*
X105400D03*
X109400Y189800D03*
X105400D03*
X128800Y114800D03*
X132800D03*
Y123600D03*
X128800D03*
X129000Y135600D03*
X133000D03*
X141500Y110500D03*
X137500D03*
X141500Y114800D03*
X137500D03*
X150000Y155500D03*
X146000D03*
X150000Y160000D03*
X146000D03*
X177800Y95600D03*
X173800D03*
X157000Y150000D03*
X161000D03*
X167500D03*
X171500D03*
X196700Y107000D03*
X200700D03*
X196800Y95600D03*
X192800D03*
X196700Y131700D03*
X200700D03*
Y123000D03*
X196700D03*
Y119000D03*
X200700D03*
Y115000D03*
X196700D03*
Y127700D03*
X200700D03*
X196755Y110933D03*
X200755D03*
X189600Y145000D03*
X185600D03*
X196700Y135200D03*
X200700D03*
X189800Y157200D03*
X185800D03*
X198500Y169000D03*
X194500D03*
X198500Y164500D03*
X194500D03*
X207500Y107000D03*
X211500D03*
X207500Y111500D03*
X211500D03*
G54D23*
X103999Y122499D03*
X96401D03*
X100200Y113901D03*
G54D14*
X40000Y139500D03*
X46000D03*
X69000Y121000D03*
X75000D03*
X85200Y113800D03*
X65400Y189000D03*
X71400D03*
X91200Y113800D03*
X88200Y144200D03*
X94200D03*
X140000Y150000D03*
X134000D03*
X203200Y139700D03*
X197200D03*
G54D32*
X185008Y152772D03*
Y149228D03*
X210992Y152772D03*
Y149228D03*
G54D33*
X219854Y118500D03*
X211469D03*
Y136000D03*
X219854D03*
G54D15*
X33000Y149000D03*
Y162000D03*
X44000Y149000D03*
Y162000D03*
G54D24*
X97200Y155000D03*
Y173000D03*
G54D34*
X216941Y118500D03*
X214382D03*
Y136000D03*
X216941D03*
G54D16*
X27342Y188200D03*
X45058D03*
G54D25*
X99509Y187400D03*
G54D26*
X154000Y68083D03*
X178999D03*
G54D17*
X64000Y90000D03*
Y95000D03*
Y100000D03*
Y105000D03*
X54991Y151600D03*
Y146600D03*
Y161600D03*
Y156600D03*
X85000Y105000D03*
Y100000D03*
Y95000D03*
Y90000D03*
X75809Y146600D03*
Y151600D03*
Y156600D03*
Y161600D03*
G54D35*
X225728Y150508D03*
Y176492D03*
X229272Y150508D03*
Y176492D03*
G54D18*
X63200Y120500D03*
Y114500D03*
X109200Y122600D03*
Y116600D03*
X133555Y162933D03*
Y156933D03*
X227000Y130000D03*
Y124000D03*
G54D27*
X149874Y132327D03*
Y130358D03*
Y128390D03*
Y126421D03*
Y124453D03*
Y122484D03*
Y120516D03*
Y118547D03*
Y116579D03*
Y114610D03*
Y112642D03*
Y110673D03*
X184126D03*
Y112642D03*
Y114610D03*
Y116579D03*
Y118547D03*
Y120516D03*
Y122484D03*
Y124453D03*
Y126421D03*
Y128390D03*
Y130358D03*
Y132327D03*
G54D28*
X140000Y156150D03*
Y162850D03*
G54D19*
X65400Y154100D03*
G54D29*
X168960Y79500D03*
X164039D03*
M02*
